SplineFontDB: 3.0
FontName: Crimson-Semibold
FullName: Crimson Semibold
FamilyName: Crimson
Weight: Semibold
Copyright: Copyright (c) 2011, Sebastian Kosch (sebastian@aldusleaf.org),\nwith Reserved Font Name "Crimson".\nThis Font Software is licensed under the SIL Open Font License, Version 1.1.\nThis license is available with a FAQ at: http://scripts.sil.org/OFL
UComments: "2011-9-20: Created." 
Version: 0.8
ItalicAngle: 0
UnderlinePosition: -100
UnderlineWidth: 50
Ascent: 717
Descent: 307
LayerCount: 2
Layer: 0 0 "Back"  1
Layer: 1 0 "Fore"  0
XUID: [1021 732 1356305489 5808660]
FSType: 0
OS2Version: 0
OS2_WeightWidthSlopeOnly: 0
OS2_UseTypoMetrics: 1
CreationTime: 1316567991
PfmFamily: 17
TTFWeight: 600
TTFWidth: 5
LineGap: 92
VLineGap: 0
OS2TypoAscent: 717
OS2TypoAOffset: 0
OS2TypoDescent: -307
OS2TypoDOffset: 0
OS2TypoLinegap: 92
OS2WinAscent: 0
OS2WinAOffset: 1
OS2WinDescent: 0
OS2WinDOffset: 1
HheadAscent: 717
HheadAOffset: 0
HheadDescent: -307
HheadDOffset: 0
OS2SubXSize: 665
OS2SubYSize: 716
OS2SubXOff: 0
OS2SubYOff: 143
OS2SupXSize: 665
OS2SupYSize: 716
OS2SupXOff: 0
OS2SupYOff: 491
OS2StrikeYSize: 51
OS2StrikeYPos: 265
OS2Vendor: 'PfEd'
Lookup: 1 0 0 "'pnum' Proportional Numbers lookup 12"  {"'pnum' Proportional Numbers lookup 12-1" ("prop" ) } ['pnum' ('DFLT' <'dflt' > 'grek' <'dflt' > 'latn' <'AZE ' 'CRT ' 'DEU ' 'FRA ' 'ITA ' 'MOL ' 'ROM ' 'TRK ' 'dflt' > ) ]
Lookup: 258 0 0 "'kern' Horizontal Kerning in Latin lookup 0"  {"'kern' Horizontal Kerning in Latin lookup 0 kerning class 1" [153,0,0] } ['kern' ('latn' <'dflt' > ) ]
MarkAttachClasses: 1
DEI: 91125
KernClass2: 75+ 56 "'kern' Horizontal Kerning in Latin lookup 0 kerning class 1" 
 9 ampersand
 3 bar
 10 exclamdown
 10 registered
 12 questiondown
 84 A Agrave Aacute Acircumflex Atilde Adieresis Aring Amacron Abreve Aogonek Aringacute
 1 B
 47 C Ccedilla Cacute Ccircumflex Cdotaccent Ccaron
 100 E AE Egrave Eacute Ecircumflex Edieresis Emacron Ebreve Edotaccent Eogonek Ecaron OE uni01E2 AEacute

StartChar: exclam
Encoding: 33 33 1
Width: 255
Flags: W
HStem: -11 130<79.9117 175.15> 622 20G<114 146.5>
VStem: 62 130<6.75665 102.706> 73 111<350.732 629.251>
LayerCount: 2
Fore
SplineSet
62 56 m 0xe0
 62 91 91 119 127 119 c 1
 163 119 192 89 192 54 c 0
 192 19 164 -11 128 -11 c 1
 92 -11 62 20 62 56 c 0xe0
131 642 m 0
 162 642 184 613 184 579 c 0
 184 551 163 365 146 196 c 1
 142 186 138 179 128 177 c 1
 123 178 114 183 110 191 c 1
 98 305 73 529 73 580 c 0xd0
 73 615 97 642 131 642 c 0
EndSplineSet
EndChar

StartChar: quotedbl
Encoding: 34 34 2
Width: 307
Flags: W
HStem: 452 248<76.0952 107.779 216.095 247.779>
VStem: 38 86<514.588 682.3> 178 86<514.588 682.3>
LayerCount: 2
Fore
SplineSet
235 700 m 0
 248 700 256 696 264 685 c 1
 264 653 254 530 248 473 c 1
 244 467 234 456 226 452 c 1
 222 452 218 455 216 459 c 1
 193 537 178 593 178 623 c 0
 178 653 200 700 235 700 c 0
95 700 m 0
 108 700 116 696 124 685 c 1
 124 653 114 530 108 473 c 1
 104 467 94 456 86 452 c 1
 82 452 78 455 76 459 c 1
 53 537 38 593 38 623 c 0
 38 653 60 700 95 700 c 0
EndSplineSet
EndChar

StartChar: numbersign
Encoding: 35 35 3
Width: 479
Flags: W
HStem: 163 58<60.8899 390.354> 354 58<87.9822 418.276>
LayerCount: 2
Fore
SplineSet
411.945 354 m 1
 252.945 354 252.945 354 82.9453 354 c 1
 70.9453 354 81.9453 408 94.9453 412 c 9
 420.945 412 l 17
 434.945 412 424.945 360 411.945 354 c 1
383.945 163 m 1
 224.945 163 224.945 163 54.9453 163 c 1
 42.9453 163 54.9453 217 67.9453 221 c 9
 393.945 221 l 17
 407.945 221 396.945 169 383.945 163 c 1
376.945 528 m 1
 301.945 56 l 2
 300.945 52 288.945 44 273.945 44 c 0
 263.945 44 262.945 48 262.945 48 c 1
 338.945 518 l 1
 341.945 527 344.945 531 363.945 531 c 0
 372.945 531 373.945 530 376.945 528 c 1
215.945 528 m 1
 139.945 56 l 2
 138.945 52 127.945 44 112.945 44 c 0
 102.945 44 101.945 48 101.945 48 c 1
 177.945 518 l 1
 180.945 527 183.945 531 202.945 531 c 0
 211.945 531 212.945 530 215.945 528 c 1
EndSplineSet
EndChar

StartChar: dollar
Encoding: 36 36 4
Width: 508
Flags: W
HStem: -10 38<221.268 310.886> 602 38<200.824 281.565>
VStem: 53 39<123.949 182.842> 65 102<450.039 546.147> 173 37<-42.1892 -2.62753> 291 37<632.688 672.957> 353 105<86.0385 195.787> 389 37<460.001 520.91>
LayerCount: 2
Fore
SplineSet
261 640 m 0xde
 319 640 355 626 415 613 c 1
 423 562 424 507 426 465 c 1
 424 461 419 460 415 460 c 0
 411 460 391 458 389 467 c 0
 382 518 336 602 261 602 c 0
 201 602 167 564 167 509 c 0xdd
 167 441 242 396 305 356 c 0
 369 316 458 277 458 166 c 0
 458 60 357 -10 253 -10 c 0
 193 -10 128 4 76 16 c 1
 65 66 54 153 53 172 c 1
 56 178 73 184 79 184 c 0
 85 184 91 182 92 176 c 0xee
 100 136 143 28 249 28 c 0
 297 28 353 56 353 132 c 0
 353 210 276 244 219 280 c 0
 147 325 65 371 65 469 c 0
 65 569 163 640 261 640 c 0xde
291 676 m 17
 299 676 328 675 328 668 c 9
 210 -46 l 17
 201 -46 173 -44 173 -37 c 9
 291 676 l 17
EndSplineSet
EndChar

StartChar: percent
Encoding: 37 37 5
Width: 677
Flags: W
HStem: -4 28<460.649 527.409> 282 27<445.859 512.034> 331 28<165.706 234.539> 616 27<152.859 219.125>
VStem: 40 80<404.976 567.758> 265 80<406.139 570.672> 333 80<70.2255 232.248> 557 80<71.7888 237.932>
LayerCount: 2
Fore
SplineSet
187 616 m 1xfd
 133 616 120 552 120 498 c 0
 120 434 150 359 200 359 c 1
 254 359 265 424 265 476 c 0
 265 539 238 616 187 616 c 1xfd
193 643 m 0
 283 643 345 574 345 488 c 0
 345 406 283 331 193 331 c 0
 105 331 40 400 40 486 c 0
 40 572 105 643 193 643 c 0
480 282 m 1
 426 282 413 218 413 164 c 0xfb
 413 100 443 24 493 24 c 1
 547 24 557 90 557 142 c 0
 557 205 531 282 480 282 c 1
486 309 m 0
 576 309 637 240 637 154 c 0
 637 72 576 -4 486 -4 c 0
 398 -4 333 65 333 151 c 0
 333 237 398 309 486 309 c 0
611 630 m 1
 111 -2 l 2
 107 -8 89 -16 75 -16 c 0
 61 -16 58 -5 58 -4 c 1
 557 628 l 1
 563 634 575 640 587 640 c 0
 606 640 607 637 611 630 c 1
EndSplineSet
EndChar

StartChar: ampersand
Encoding: 38 38 6
Width: 689
Flags: W
HStem: -4 60<222.387 343.562 503 590.632> 284 28<471.292 518.32 597.16 667.406> 614 36<268.328 350.959>
VStem: 54 108<116.711 241.671> 149 94<449.853 581.917> 377 86<460.104 591.698>
LayerCount: 2
Fore
SplineSet
393 95 m 1xf4
 347 147 251 290 233 314 c 1
 195 286 162 255 162 196 c 0
 162 116 217 56 299 56 c 0
 336 56 371 73 393 95 c 1xf4
312 614 m 0
 273 614 243 581 243 534 c 0xec
 243 484 271 436 295 396 c 1
 348 426 377 460 377 522 c 0
 377 560 357 614 312 614 c 0
301 650 m 0
 395 650 463 607 463 536 c 0
 463 446 385 396 317 362 c 1
 352 308 421 216 461 168 c 1
 491 210 519 255 519 266 c 0
 519 288 480 282 473 284 c 1
 469 290 469 309 473 312 c 1
 547 312 l 2
 582 312 620 314 666 316 c 1
 670 314 669 288 665 285 c 1
 653 285 609 279 595 269 c 0
 585 262 533 184 489 134 c 1
 515 106 552 62 575 62 c 0
 599 62 625 98 633 112 c 1
 643 112 655 102 657 94 c 1
 653 84 601 -2 531 -2 c 1
 475 -2 433 50 419 66 c 1
 373 24 307 -4 241 -4 c 1
 141 -4 54 56 54 157 c 0xf4
 54 263 138 314 207 352 c 1
 183 392 149 436 149 504 c 0
 149 587 212 650 301 650 c 0
EndSplineSet
EndChar

StartChar: quotesingle
Encoding: 39 39 7
Width: 173
Flags: W
HStem: 462 243<79.0952 112.808>
VStem: 37 94<528.708 685.309>
LayerCount: 2
Fore
SplineSet
99 705 m 0
 113 705 123 700 131 688 c 1
 129 642 122 541 113 481 c 1
 109 475 99 466 89 462 c 1
 85 462 81 464 79 468 c 1
 57 533 37 590 37 628 c 0
 37 664 62 705 99 705 c 0
EndSplineSet
EndChar

StartChar: parenleft
Encoding: 40 40 8
Width: 277
Flags: W
VStem: 35 92<134.871 455.051>
LayerCount: 2
Fore
SplineSet
127 295 m 0
 127 101 203 -62 269 -120 c 1
 270 -122 261 -140 255 -144 c 1
 159 -81 35 63 35 295 c 0
 35 527 159 670 255 733 c 1
 261 729 270 712 269 710 c 1
 203 652 127 489 127 295 c 0
EndSplineSet
EndChar

StartChar: parenright
Encoding: 41 41 9
Width: 277
Flags: W
VStem: 150.077 92<134.871 455.051>
LayerCount: 2
Fore
SplineSet
242.077 295 m 0
 242.077 63 118.077 -81 22.0771 -144 c 1
 16.0771 -140 7.07715 -122 8.07715 -120 c 1
 74.0771 -62 150.077 101 150.077 295 c 0
 150.077 489 74.0771 652 8.07715 710 c 1
 7.07715 712 16.0771 729 22.0771 733 c 1
 118.077 670 242.077 527 242.077 295 c 0
EndSplineSet
EndChar

StartChar: asterisk
Encoding: 42 42 10
Width: 443
Flags: W
HStem: 386 72<304 392.443> 429 77<40.2705 145.522>
VStem: 161.639 78<305.875 407.75>
LayerCount: 2
Fore
SplineSet
294.639 616 m 0x60
 313.639 638 342.639 640 357.639 626 c 0
 373.639 610 373.639 583 353.639 563 c 0
 319.639 529 284.639 533 256.639 506 c 1x60
 256.639 506 250.639 497 250.639 492 c 0
 250.639 488 254.639 485 259.639 483 c 0
 294.639 467 322.639 478 366.639 458 c 0
 392.639 447 404.639 421 395.639 402 c 0
 385.639 382 360.639 374 334.639 386 c 0xa0
 291.639 407 283.639 442 249.639 460 c 1
 249.639 460 239.639 465 235.639 463 c 0
 231.639 461 231.639 458 230.639 452 c 0
 226.639 414 244.639 392 239.639 344 c 0
 236.639 316 215.639 298 195.639 300 c 0
 173.639 304 157.639 324 161.639 352 c 0
 168.639 400 198.639 418 205.639 456 c 1
 205.639 456 207.639 466 203.639 470 c 0
 201.639 473 198.639 473 192.639 472 c 0
 155.639 464 138.639 439 91.6387 429 c 0x60
 63.6387 423 39.6387 438 35.6387 458 c 0xa0
 31.6387 480 46.6387 501 74.6387 506 c 0
 121.639 514 148.639 491 187.639 496 c 1
 187.639 496 197.639 498 199.639 503 c 0
 201.639 507 199.639 511 196.639 516 c 0
 177.639 549 149.639 556 124.639 598 c 0
 110.639 622 116.639 650 134.639 660 c 0
 154.639 670 178.639 663 192.639 638 c 0
 214.639 595 200.639 563 217.639 528 c 1
 217.639 528 222.639 518 227.639 517 c 0
 231.639 517 234.639 518 238.639 522 c 0
 264.639 550 262.639 580 294.639 616 c 0x60
EndSplineSet
EndChar

StartChar: plus
Encoding: 43 43 11
Width: 542
Flags: W
HStem: 218 57<34.7524 241 299 508.097>
VStem: 242 57<9.3338 218 275 481.973>
LayerCount: 2
Fore
SplineSet
242 474 m 1
 256 482 279 485 285 485 c 0
 295 485 299 482 299 478 c 1
 299 275 l 1
 339 275 463 275 503 275 c 1
 508 275 511 269 511 262 c 0
 511 243 505 227 497 218 c 1
 299 218 l 1
 299 218 299 56 299 18 c 1
 287 10 264 6 254 6 c 0
 248 6 242 11 242 15 c 2
 242 218 l 1
 37 218 l 1
 35 218 31 220 31 230 c 0
 31 234 35 265 44 275 c 1
 241 275 l 1
 241 275 242 464 242 474 c 1
EndSplineSet
EndChar

StartChar: comma
Encoding: 44 44 12
Width: 213
Flags: W
HStem: -148 279
VStem: 85 78<-32.4522 67.5>
LayerCount: 2
Fore
SplineSet
113 131 m 0
 125 131 138 126 147 120 c 1
 155 106 163 83 163 52 c 0
 163 -24 96 -116 36 -148 c 1
 27 -146 18 -132 18 -126 c 1
 38 -112 85 -73 85 -17 c 0
 85 16 45 19 45 71 c 0
 45 89 64 131 113 131 c 0
EndSplineSet
EndChar

StartChar: hyphen
Encoding: 45 45 13
Width: 376
Flags: W
HStem: 210 66<76.1688 313.221>
VStem: 57 262
LayerCount: 2
Fore
SplineSet
71 264 m 1
 71 264 279 275 312 276 c 0
 316 276 319 275 319 267 c 0
 319 250 313 227 305 210 c 1
 258 207 155 203 64 199 c 0
 59 199 57 201 57 210 c 0
 57 229 64 249 71 264 c 1
EndSplineSet
EndChar

StartChar: period
Encoding: 46 46 14
Width: 221
Flags: W
HStem: -11 130<62.3035 158.603>
VStem: 45 130<6.75665 102.706>
LayerCount: 2
Fore
SplineSet
45 56 m 0
 45 91 75 119 111 119 c 1
 147 119 175 89 175 54 c 0
 175 19 147 -11 111 -11 c 1
 75 -11 45 20 45 56 c 0
EndSplineSet
EndChar

StartChar: slash
Encoding: 47 47 15
Width: 417
Flags: W
LayerCount: 2
Fore
SplineSet
371 761 m 0
 382 761 386 756 387 752 c 1
 92 -13 l 2
 90 -20 76 -35 47 -35 c 0
 32 -35 29 -28 29 -28 c 1
 327 742 l 1
 329 748 344 761 371 761 c 0
EndSplineSet
EndChar

StartChar: zero
Encoding: 48 48 16
Width: 545
Flags: W
HStem: -3 40<232.242 315.641> 594 40<231.791 320.627>
VStem: 53 109<172.135 455.204> 383 109<171.167 464.191>
LayerCount: 2
Fore
SplineSet
277 594 m 0
 203 594 162 468 162 311 c 0
 162 154 210 37 272 37 c 0
 349 37 383 169 383 326 c 0
 383 483 341 594 277 594 c 0
274 634 m 0
 404 634 492 502 492 315 c 0
 492 141 403 -3 274 -3 c 0
 146 -3 53 128 53 315 c 0
 53 489 145 634 274 634 c 0
EndSplineSet
Substitution2: "'pnum' Proportional Numbers lookup 12-1" zero.prop
EndChar

StartChar: one
Encoding: 49 49 17
Width: 545
Flags: W
HStem: -4 33<162.75 228.781 347.219 413.25> 622 20G<334.5 341>
VStem: 236 104<36.3778 545.993>
LayerCount: 2
Fore
SplineSet
236 130 m 2
 236 501 l 2
 236 537 230 546 215 546 c 0
 203 546 162 534 144 525 c 1
 138 529 132 537 132 543 c 0
 132 545 131 551 134 552 c 0
 232 595 333 642 336 642 c 2
 338 642 l 2
 344 642 348 630 349 625 c 1
 349 625 340 593 340 530 c 2
 340 130 l 2
 340 94 341 64 347 46 c 0
 351 34 399 29 411 29 c 1
 415 23 415 2 411 -4 c 1
 371 -1 327 2 287 2 c 0
 247 2 205 -1 165 -4 c 1
 161 2 161 23 165 29 c 1
 178 29 225 34 229 46 c 0
 235 64 236 94 236 130 c 2
EndSplineSet
Substitution2: "'pnum' Proportional Numbers lookup 12-1" one.prop
EndChar

StartChar: two
Encoding: 50 50 18
Width: 545
Flags: W
HStem: 0 88<176 415.421> 570 72<186.113 290.345>
VStem: 338 108<381.71 522.473>
LayerCount: 2
Fore
SplineSet
484 171 m 1
 468 123 432 18 426 0 c 9
 426 0 74 0 70 0 c 1
 66 4 62 12 62 16 c 1
 142 105 220 190 284 288 c 0
 328 354 338 405 338 452 c 0
 338 520 287 570 228 570 c 0
 153 570 110 506 100 492 c 1
 94 492 80 502 80 512 c 1
 92 544 164 642 272 642 c 0
 368 642 446 570 446 474 c 0
 446 415 418 360 378 312 c 0
 315 236 233 144 176 88 c 1
 362 88 l 2
 412 88 432 126 450 170 c 0
 452 175 458 177 464 177 c 0
 470 177 480 175 484 171 c 1
EndSplineSet
Substitution2: "'pnum' Proportional Numbers lookup 12-1" two.prop
EndChar

StartChar: three
Encoding: 51 51 19
Width: 545
Flags: W
HStem: -6 41<196.906 310.407> 316 32<176.695 230.438> 578 64<196.383 295.9>
VStem: 330 96<446.812 542.768> 360 110<129.505 264.814>
LayerCount: 2
Fore
SplineSet
284 642 m 0xf0
 334 642 426 605 426 514 c 0xf0
 426 440 354 392 324 376 c 1
 362 375 470 322 470 219 c 0
 470 80 334 -6 208 -6 c 0
 162 -6 116 8 90 24 c 1
 84 30 74 52 74 65 c 0
 74 91 92 116 120 116 c 0
 148 116 164 88 180 70 c 0
 198 50 228 35 254 35 c 0
 312 35 360 82 360 184 c 0xe8
 360 262 306 326 240 326 c 0
 226 326 203 321 184 316 c 1
 180 321 176 330 176 338 c 0
 176 342 176 345 178 348 c 1
 246 362 330 399 330 477 c 0
 330 534 292 578 234 578 c 0
 176 578 130 528 122 520 c 1
 116 521 110 535 110 544 c 1
 144 592 205 642 284 642 c 0xf0
EndSplineSet
Substitution2: "'pnum' Proportional Numbers lookup 12-1" three.prop
EndChar

StartChar: four
Encoding: 52 52 20
Width: 545
Flags: W
HStem: -6 21G<359.5 394> 174 62<125.946 327 429 493.769> 624 20G<404 412>
VStem: 327 102<-3.81396 174 236 495>
LayerCount: 2
Fore
SplineSet
408 644 m 0
 416 644 429 631 429 621 c 2
 429 236 l 25
 482 236 l 2
 488 236 496 217 496 192 c 0
 496 180 491 176 490 174 c 1
 429 174 l 25
 429 2 l 1
 429 2 414 -6 374 -6 c 0
 345 -6 327 -3 327 5 c 2
 327 174 l 25
 59 174 l 1
 51 178 49 186 49 196 c 1
 109 270 331 558 384 624 c 1
 390 632 400 644 408 644 c 0
327 495 m 17
 309 473 136 246 126 236 c 1
 122 236 302 236 327 236 c 1
 327 495 l 17
EndSplineSet
Substitution2: "'pnum' Proportional Numbers lookup 12-1" four.prop
EndChar

StartChar: five
Encoding: 53 53 21
Width: 545
Flags: W
HStem: -6 41<198.819 311.804> 334 76<169.181 288.171> 542 94<193.611 404.121> 625 20G<423.5 430>
VStem: 362 107<133.366 259.005>
LayerCount: 2
Fore
SplineSet
274 410 m 0xe8
 376 410 469 319 469 224 c 0
 469 85 336 -6 210 -6 c 0
 164 -6 118 8 92 24 c 1
 86 30 76 52 76 65 c 0
 76 91 94 116 122 116 c 0
 150 116 166 88 182 70 c 0
 200 50 229 35 255 35 c 0
 313 35 362 81 362 184 c 0
 362 260 298 334 212 334 c 1
 170 334 137 325 124 319 c 1
 119 319 116 330 116 336 c 1
 128 394 162 580 172 636 c 1
 229 636 304 636 336 636 c 1xe8
 378 636 420 643 427 645 c 1xd8
 433 642 440 640 440 632 c 0
 440 620 418 566 406 549 c 1
 366 545 321 543 274 542 c 1
 258 542 210 542 198 542 c 1
 191 507 174 421 168 393 c 1
 194 401 242 410 274 410 c 0xe8
EndSplineSet
Substitution2: "'pnum' Proportional Numbers lookup 12-1" five.prop
EndChar

StartChar: six
Encoding: 54 54 22
Width: 545
Flags: W
HStem: -6 38<234.975 324.131> 346 54<214.789 318.937> 618 28<416.425 443.245>
VStem: 69 108<126.724 320.644> 368 108<114.641 290.139>
LayerCount: 2
Fore
SplineSet
184 316 m 1
 180 288 177 256 177 230 c 0
 177 143 207 32 279 32 c 0
 330 32 368 93 368 183 c 0
 368 268 337 346 257 346 c 0
 237 346 208 341 184 316 c 1
293 400 m 0
 411 400 476 313 476 205 c 0
 476 91 379 -6 269 -6 c 0
 153 -6 69 112 69 231 c 1
 69 337 114 432 175 498 c 0
 253 582 361 630 437 646 c 1
 445 643 447 626 446 618 c 1
 341 578 232 504 194 365 c 1
 224 387 263 400 293 400 c 0
EndSplineSet
Substitution2: "'pnum' Proportional Numbers lookup 12-1" six.prop
EndChar

StartChar: seven
Encoding: 55 55 23
Width: 545
Flags: W
HStem: -8 21G<168.5 176> 548 86<120.429 412>
VStem: 60 34<462.287 511.375>
LayerCount: 2
Fore
SplineSet
398 635 m 2
 428 635 472 638 478 638 c 0
 484 638 484 631 484 626 c 0
 484 615 470 592 456 562 c 2
 188 -5 l 1
 185 -7 178 -8 174 -8 c 0
 163 -8 130 -1 130 13 c 1
 202 121 366 452 412 548 c 1
 168 548 l 2
 123 548 108 514 94 468 c 0
 93 464 90 462 82 462 c 0
 75 462 64 464 60 468 c 1
 75 520 95 602 102 634 c 1
 110 634 398 635 398 635 c 2
EndSplineSet
Substitution2: "'pnum' Proportional Numbers lookup 12-1" seven.prop
EndChar

StartChar: eight
Encoding: 56 56 24
Width: 545
Flags: W
HStem: -8 39<222.888 331.105> 600 38<227.184 312.345>
VStem: 74 105<74.7471 227.449> 94 102<437.757 553.896> 350 98<422.486 564.448> 366 106<87.4819 193.404>
LayerCount: 2
Fore
SplineSet
274 31 m 1xe4
 332 31 366 72 366 128 c 1
 366 208 268 270 246 285 c 0
 242 287 240 288 238 288 c 0
 236 288 235 290 234 288 c 0
 196 257 179 213 179 156 c 1
 179 86 218 31 274 31 c 1xe4
270 600 m 1
 228 600 196 557 196 505 c 1
 196 432 260 393 292 375 c 0
 294 373 297 372 300 372 c 0
 302 372 304 372 306 374 c 0
 336 401 350 438 350 486 c 1xd8
 350 538 322 600 270 600 c 1
274 638 m 1
 364 638 448 586 448 492 c 1xd8
 448 422 390 375 338 349 c 1
 335 348 336 346 338 344 c 0
 386 316 472 248 472 167 c 1
 472 63 372 -8 268 -8 c 1
 162 -8 74 46 74 154 c 1xe4
 74 240 152 290 202 312 c 0
 204 314 205 316 202 318 c 0
 164 346 94 399 94 483 c 1
 94 569 183 638 274 638 c 1
EndSplineSet
Substitution2: "'pnum' Proportional Numbers lookup 12-1" eight.prop
EndChar

StartChar: nine
Encoding: 57 57 25
Width: 545
Flags: W
HStem: -6 28<102.482 128.6> 240 54<226.938 331.211> 608 38<221.704 310.935>
VStem: 69 108<351.349 525.359> 368 108<319.287 513.276>
LayerCount: 2
Fore
SplineSet
362 324 m 1
 366 349 368 382 368 410 c 0
 368 497 339 608 267 608 c 0
 216 608 177 547 177 457 c 0
 177 372 209 294 289 294 c 0
 309 294 338 299 362 324 c 1
99 22 m 1
 204 62 314 136 352 275 c 1
 322 253 283 240 253 240 c 0
 135 240 69 327 69 435 c 0
 69 549 167 646 277 646 c 0
 393 646 476 528 476 409 c 1
 476 303 432 208 371 142 c 0
 293 58 185 10 109 -6 c 1
 101 -3 98 14 99 22 c 1
EndSplineSet
Substitution2: "'pnum' Proportional Numbers lookup 12-1" nine.prop
EndChar

StartChar: colon
Encoding: 58 58 26
Width: 233
Flags: W
HStem: 135 150<81 153> 155 110<81 153>
VStem: 51 130<166 268.706>
LayerCount: 2
Fore
SplineSet
51 202 m 0xa0
 51 237 81 265 117 265 c 1x60
 153 265 181 235 181 200 c 0
 181 165 153 135 117 135 c 1
 81 135 51 166 51 202 c 0xa0
51 222 m 0
 51 257 81 285 117 285 c 1xa0
 153 285 181 255 181 220 c 0
 181 185 153 155 117 155 c 1
 81 155 51 186 51 222 c 0
EndSplineSet
EndChar

StartChar: semicolon
Encoding: 59 59 27
Width: 244
Flags: W
HStem: 301 130<73.3883 166.518>
VStem: 55 128<319.107 414.706> 106 78<-32.4522 67.5>
LayerCount: 2
Fore
SplineSet
133 131 m 0xa0
 145 131 160 126 169 120 c 1
 177 106 184 83 184 52 c 0
 184 -24 117 -116 57 -148 c 1
 48 -146 39 -132 39 -126 c 1
 59 -112 106 -73 106 -17 c 0
 106 16 65 19 65 71 c 0
 65 89 84 131 133 131 c 0xa0
55 368 m 0xc0
 55 403 85 431 121 431 c 1
 156 431 183 403 183 368 c 0
 183 333 157 301 121 301 c 1
 85 301 55 333 55 368 c 0xc0
EndSplineSet
EndChar

StartChar: less
Encoding: 60 60 28
Width: 494
Flags: W
LayerCount: 2
Fore
SplineSet
444 40 m 0
 444 33 434 -15 428 -15 c 0
 427 -15 424 -14 422 -13 c 2
 48 177 l 2
 33 185 30 200 30 217 c 0
 30 228 38 236 48 241 c 2
 418 428 l 2
 420 429 423 430 424 430 c 0
 427 430 433 415 440 378 c 0
 441 372 438 369 438 369 c 1
 116 209 l 1
 440 46 l 1
 440 46 444 45 444 40 c 0
EndSplineSet
EndChar

StartChar: equal
Encoding: 61 61 29
Width: 561
Flags: W
HStem: 127 57<79.8432 484.545> 271 57<79.8432 484.545>
LayerCount: 2
Fore
SplineSet
477.547 127 m 1
 316.547 127 243.547 127 71.5469 127 c 1
 59.5459 127 73.5469 179 87.5469 184 c 9
 490.547 184 l 17
 504.547 184 491.547 134 477.547 127 c 1
477.547 271 m 1
 316.547 271 243.547 271 71.5469 271 c 1
 59.5459 271 73.5469 323 87.5469 328 c 9
 490.547 328 l 17
 504.547 328 491.547 278 477.547 271 c 1
EndSplineSet
EndChar

StartChar: greater
Encoding: 62 62 30
Width: 494
Flags: W
LayerCount: 2
Fore
SplineSet
50 40 m 0
 50 44 53 46 53 46 c 1
 378 209 l 1
 56 369 l 1
 56 369 54 372 54 378 c 0
 58 406 66 430 70 430 c 0
 71 430 73 429 75 428 c 2
 446 241 l 2
 456 236 464 228 464 217 c 0
 464 200 461 185 446 177 c 2
 72 -13 l 2
 70 -14 67 -15 66 -15 c 0
 60 -15 50 32 50 40 c 0
EndSplineSet
EndChar

StartChar: question
Encoding: 63 63 31
Width: 377
Flags: W
HStem: -11 130<82.161 175.603> 574 70<118.5 221.419>
VStem: 64 128<7.13899 103.056> 104 34<178.233 248.38> 270 68<423.928 542.631>
LayerCount: 2
Fore
SplineSet
64 56 m 0xe8
 64 92 94 119 128 119 c 0
 164 119 192 92 192 56 c 0
 192 20 165 -11 130 -11 c 0
 96 -11 64 18 64 56 c 0xe8
108 533 m 0
 82 533 54 558 54 591 c 0
 54 607 60 626 66 632 c 1
 78 638 101 644 136 644 c 0
 192 644 338 592 338 464 c 0
 338 386 288 348 224 310 c 0
 197 294 156 267 144 249 c 0
 136 236 138 209 138 193 c 1
 135 186 129 178 122 178 c 1
 116 179 108 184 104 189 c 1xd8
 98 207 90 250 90 284 c 0
 90 350 137 380 173 404 c 0
 223 436 270 469 270 510 c 0
 270 546 243 574 206 574 c 0
 162 574 142 533 108 533 c 0
EndSplineSet
EndChar

StartChar: at
Encoding: 64 64 32
Width: 756
Flags: W
HStem: -124 19<262.32 287.971> -7 52<482.5 585.297> -5 78<253 338.562> 389 50<388.228 498.5> 538 40<326.127 537.539>
VStem: 47 44<56.5857 290.303> 185 98<82.4115 223.675> 417 94<48.0865 166.668> 679 42<165.26 387.975>
LayerCount: 2
Fore
SplineSet
431 578 m 0xdf80
 627 578 721 436 721 280 c 0
 721 127 624 -7 507 -7 c 0xdf80
 458 -7 417 18 417 79 c 0
 417 89 420 108 423 116 c 1
 404 79 341 -5 281 -5 c 3xbf80
 225 -5 185 38 185 125 c 3
 185 271 341 439 481 439 c 0
 516 439 554 433 573 426 c 9
 514 116 l 2
 513 112 511 97 511 92 c 0
 511 69 520 45 547 45 c 0
 603 45 679 150 679 275 c 0
 679 410 605 538 431 538 c 0
 227 538 91 344 91 170 c 0
 91 53 153 -36 225 -78 c 0
 261 -99 282 -102 301 -105 c 1
 301 -113 277 -124 263 -124 c 0
 249 -124 234 -121 221 -116 c 0
 129 -82 47 27 47 168 c 0
 47 364 199 578 431 578 c 0xdf80
439 389 m 3
 359 389 283 265 283 150 c 0
 283 100 300 73 329 73 c 3xbf80
 375 73 433 171 453 274 c 2
 473 376 l 17
 464 386 452 389 439 389 c 3
EndSplineSet
EndChar

StartChar: A
Encoding: 65 65 33
Width: 653
Flags: W
HStem: -4 34<-7.00008 45.5474 135.07 201.264 397.327 457.562 598.952 655.611> 238 45<207.139 379.138> 642 20G<330.139 338.139>
LayerCount: 2
Fore
SplineSet
95.1387 136 m 2
 95.1387 136 268.139 551 298.139 629 c 1
 304.139 643 325.139 662 335.139 662 c 0
 341.139 662 347.139 660 349.139 658 c 1
 553.139 137 l 1
 567.139 103 575.139 80 580.139 68 c 0
 594.139 36 645.139 30 653.139 30 c 1
 658.139 22 657.139 0 655.139 -4 c 1
 615.139 -2 577.139 3 533.139 3 c 0
 487.139 3 441.139 -2 400.139 -4 c 1
 395.139 1 395.139 28 400.139 30 c 1
 414.139 30 446.139 35 458.139 45 c 0
 462.139 49 464.139 54 464.139 60 c 0
 464.139 80 401.139 234 401.139 234 c 1
 401.139 234 398.139 238 395.139 238 c 0
 363.139 240 321.139 238 296.139 238 c 0
 255.139 238 232.139 238 192.139 236 c 0
 190.139 236 186.139 233 186.139 232 c 1
 186.139 232 159.139 168 145.139 130 c 0
 134.139 100 127.139 70 127.139 60 c 0
 127.139 35 191.139 30 199.139 30 c 1
 203.139 25 202.139 1 200.139 -4 c 1
 162.139 -1 142.139 3 98.1387 3 c 0
 52.1387 3 31.1387 -1 -8.86133 -4 c 1
 -12.8613 0 -12.8613 20 -9.86133 29 c 1
 2.13867 29 44.1387 40 54.1387 54 c 0
 72.1387 81 82.1387 104 95.1387 136 c 2
295.139 506 m 1
 207.139 290 l 1
 207.139 290 207.139 286 209.139 286 c 0
 232.139 284 271.139 283 294.139 283 c 0
 325.139 283 345.139 284 376.139 286 c 0
 378.139 286 379.139 291 379.139 291 c 1
 295.139 506 l 1
EndSplineSet
EndChar

StartChar: B
Encoding: 66 66 34
Width: 609
Flags: W
HStem: -3 38<41.9805 111.023 238.573 382.434> 333 38<230 361.569> 622 38<42.4639 111.246 231.918 351.666>
VStem: 116 114<50.4934 333 371 619.944> 403 120<436.153 575.039> 441 128<114.087 268.053>
LayerCount: 2
Fore
SplineSet
230 333 m 1xf4
 230 114 l 2
 230 104 230 60 238 50 c 0
 250 36 277 35 309 35 c 0
 369 35 441 64 441 176 c 0
 441 251 410 333 286 333 c 2
 230 333 l 1xf4
230 371 m 1
 306 371 l 2
 367 371 403 421 403 487 c 0xf8
 403 579 356 622 284 622 c 0
 266 622 238 621 234 611 c 0
 229 599 230 573 230 543 c 2
 230 371 l 1
321 660 m 0
 413 660 523 621 523 506 c 0xf8
 523 428 449 380 418 368 c 0
 413 366 413 363 415 362 c 1
 465 358 569 298 569 196 c 0xf4
 569 134 530 72 477 38 c 0
 422 2 350 -3 274 -3 c 0
 237 -3 82 -3 43 -3 c 1
 39 3 39 24 43 30 c 1
 55 30 105 34 109 46 c 0
 115 64 116 94 116 130 c 2
 116 528 l 2
 116 564 115 594 109 612 c 0
 105 624 55 628 43 628 c 1
 39 634 39 655 43 661 c 1
 86 659 133 657 173 657 c 0
 213 657 263 660 321 660 c 0
EndSplineSet
EndChar

StartChar: C
Encoding: 67 67 35
Width: 676
Flags: W
HStem: -6 40<323.219 504.957> 627 40<308.818 492.366>
VStem: 45 130<207.264 442.451> 606 34<151.241 192.092>
LayerCount: 2
Fore
SplineSet
387 667 m 0
 453 667 531 661 597 647 c 1
 598 641 626 509 626 498 c 1
 626 490 613 482 602 482 c 1
 596 482 591 483 588 487 c 1
 580 522 548 627 394 627 c 0
 250 627 175 488 175 348 c 0
 175 192 250 34 412 34 c 0
 473 34 512 53 540 78 c 0
 581 114 602 178 606 198 c 1
 620 198 636 192 640 188 c 1
 640 172 615 49 601 40 c 1
 542 13 476 -6 384 -6 c 0
 191 -6 45 139 45 322 c 0
 45 512 193 667 387 667 c 0
EndSplineSet
EndChar

StartChar: D
Encoding: 68 68 36
Width: 736
Flags: W
HStem: -3 38<41.9805 111.023 237.347 409.903> 622 37<42.4639 111.246 233.173 392.805>
VStem: 116 114<54.6384 618.356> 561 129<205.408 454.097>
LayerCount: 2
Fore
SplineSet
230 543 m 2
 230 130 l 1
 230 120 231 67 237 54 c 0
 244 42 277 35 309 35 c 0
 461 35 561 124 561 319 c 0
 561 530 440 622 294 622 c 0
 276 622 239 620 235 610 c 0
 230 596 230 572 230 543 c 2
322 659 m 0
 547 659 690 530 690 335 c 0
 690 133 561 -3 312 -3 c 0
 269 -3 82 -3 43 -3 c 1
 39 3 39 24 43 30 c 1
 55 30 105 34 109 46 c 0
 115 64 116 94 116 130 c 2
 116 528 l 2
 116 564 115 594 109 612 c 0
 105 624 55 628 43 628 c 1
 39 634 39 655 43 661 c 1
 86 659 133 657 173 657 c 0
 213 657 270 659 322 659 c 0
EndSplineSet
EndChar

StartChar: E
Encoding: 69 69 37
Width: 596
Flags: W
HStem: -3 33<40.75 108.999> -1 41<236.479 459.191> 311 42<230.031 391.416> 620 44<283.25 445.413> 620 36<232.227 375.5> 629 33<40.75 108.779>
VStem: 116 114<54.5929 308.954 353.879 617.12> 424 32<378.533 431.896> 490 36<517.121 564.804>
LayerCount: 2
Fore
SplineSet
173 656 m 0x2b80
 241 656 413 664 497 664 c 1
 504 614 517 567 526 522 c 1
 523 519 512 517 505 517 c 0
 498 517 492 519 490 524 c 0
 468 592 435 620 378 620 c 2
 294 620 l 0
 276 620 238 619 234 609 c 0
 229 595 230 571 230 543 c 2
 230 362 l 2
 230 356 250 353 272 353 c 2
 325 353 l 2
 403 353 408 362 424 424 c 0
 425 429 431 432 438 432 c 0
 445 432 453 429 456 426 c 1
 456 236 l 1
 454 234 446 232 439 232 c 0
 432 232 426 235 424 240 c 0
 410 292 401 299 392 304 c 0
 380 310 339 311 301 311 c 0
 273 311 230 310 230 300 c 2
 230 130 l 2
 230 120 229 66 236 54 c 0
 246 42 270 40 304 40 c 1
 366 40 l 2x7380
 404 40 445 47 471 68 c 0
 494 87 513 117 529 166 c 0
 530 170 536 172 543 172 c 0
 553 172 568 169 571 166 c 1
 552 112 524 41 517 -3 c 1xa380
 449 -3 308 -1 174 -1 c 0x6380
 115 -1 69 -3 43 -3 c 1
 39 3 39 24 43 30 c 1
 55 30 105 34 109 46 c 0
 115 64 116 94 116 130 c 2
 116 528 l 2
 116 564 115 594 109 612 c 0
 105 624 55 629 43 629 c 1
 39 635 39 656 43 662 c 1xa780
 83 659 133 656 173 656 c 0x2b80
EndSplineSet
EndChar

StartChar: F
Encoding: 70 70 38
Width: 543
Flags: W
HStem: -4 33<40.75 108.779 236.228 314.25> 309 42<230 391.416> 620 44<283.25 445.413> 620 36<232.227 375.5> 628 33<40.75 108.999>
VStem: 116 114<37.111 306.954 351.879 617.054> 424 32<376.533 429.896> 490 36<517.121 564.804>
LayerCount: 2
Fore
SplineSet
173 656 m 0xd7
 241 656 413 664 497 664 c 1
 504 614 517 567 526 522 c 1
 523 519 512 517 505 517 c 0
 498 517 492 519 490 524 c 0
 468 592 435 620 378 620 c 2
 294 620 l 0xe7
 276 620 238 619 234 609 c 0
 229 595 230 571 230 543 c 2
 230 360 l 2
 230 354 250 351 272 351 c 2
 325 351 l 2
 403 351 408 360 424 422 c 0
 425 427 431 430 438 430 c 0
 445 430 453 427 456 424 c 1
 456 234 l 1
 454 232 446 230 439 230 c 0
 432 230 426 233 424 238 c 0
 410 290 401 297 392 302 c 0
 380 308 339 309 301 309 c 0
 273 309 230 308 230 298 c 2
 230 130 l 2
 230 94 230 64 236 46 c 0
 240 34 300 29 312 29 c 1
 316 23 316 2 312 -4 c 1
 272 -1 212 2 172 2 c 0
 128 2 82 -2 43 -4 c 1
 39 2 39 23 43 29 c 1
 55 29 105 34 109 46 c 0
 115 64 116 94 116 130 c 2
 116 528 l 2
 116 564 115 594 109 612 c 0
 105 624 55 628 43 628 c 1
 39 634 39 655 43 661 c 1xcf
 86 659 133 656 173 656 c 0xd7
EndSplineSet
EndChar

StartChar: G
Encoding: 71 71 39
Width: 722
Flags: W
HStem: -6 40<321.97 504.366> 263 33<439.097 509.401 637.354 698.942> 627 40<307.456 493.466>
VStem: 44 130<209.419 440.559> 517 112<66.3779 247.521> 587 37<487.284 534.98>
LayerCount: 2
Fore
SplineSet
517 179 m 1xf8
 517 204 518 223 512 242 c 0
 507 260 454 263 442 263 c 1
 438 265 436 291 441 296 c 1
 487 294 534 290 579 290 c 0
 619 290 657 294 697 296 c 1
 701 287 701 265 697 263 c 1
 687 263 644 257 637 248 c 0
 631 238 629 214 629 190 c 1
 629 172 629 123 629 101 c 0xf8
 629 86 637 74 637 66 c 0
 637 58 624 51 609 44 c 0
 556 20 495 -6 383 -6 c 0
 189 -6 44 139 44 322 c 0
 44 509 192 667 386 667 c 0
 452 667 530 661 596 647 c 1
 597 641 624 509 624 498 c 1
 624 490 612 482 601 482 c 1
 595 482 590 483 587 487 c 1xf4
 579 522 548 627 394 627 c 0
 246 627 174 485 174 345 c 0
 174 189 251 34 409 34 c 0
 454 34 485 44 509 56 c 0
 514 58 517 62 517 70 c 0
 517 91 517 155 517 179 c 1xf8
EndSplineSet
EndChar

StartChar: H
Encoding: 72 72 40
Width: 736
Flags: W
HStem: -4 34<40.75 108.493 236.507 304.25 431.75 499.493 627.507 695.25> 321 41<230.193 507> 628 34<40.75 108.493 236.507 304.25 431.75 499.493 627.507 695.25>
VStem: 116 114<38.5078 315.952 365.001 619.492> 507 114<38.5078 317.999 365.001 619.492>
LayerCount: 2
Fore
SplineSet
173 656 m 0
 213 656 262 659 302 662 c 1
 306 656 306 634 302 628 c 1
 290 628 240 622 236 610 c 0
 230 592 230 562 230 526 c 2
 230 368 l 1
 230 366 231 365 231 365 c 1
 275 364 320 362 370 362 c 0
 412 362 465 364 505 365 c 1
 505 365 507 367 507 369 c 0
 507 526 l 2
 507 562 506 592 500 610 c 0
 496 622 446 628 434 628 c 1
 430 634 430 656 434 662 c 1
 474 659 524 656 564 656 c 0
 604 656 653 659 693 662 c 1
 697 656 697 634 693 628 c 1
 681 628 631 622 627 610 c 0
 621 592 621 562 621 526 c 2
 621 132 l 2
 621 96 621 66 627 48 c 0
 631 36 681 30 693 30 c 1
 697 24 697 2 693 -4 c 1
 653 -1 603 2 563 2 c 0
 523 2 474 -1 434 -4 c 1
 430 2 430 24 434 30 c 1
 446 30 496 36 500 48 c 0
 506 66 507 96 507 132 c 2
 507 314 l 1
 507 316 505 318 505 318 c 1
 463 319 416 321 370 321 c 0
 245 321 234 318 230 316 c 1
 229 315 230 313 230 313 c 1
 230 132 l 2
 230 96 230 66 236 48 c 0
 240 36 290 30 302 30 c 1
 306 24 306 2 302 -4 c 1
 262 -1 212 2 172 2 c 0
 132 2 83 -1 43 -4 c 1
 39 2 39 24 43 30 c 1
 55 30 105 36 109 48 c 0
 115 66 116 96 116 132 c 2
 116 526 l 2
 116 562 115 592 109 610 c 0
 105 622 55 628 43 628 c 1
 39 634 39 656 43 662 c 1
 83 659 133 656 173 656 c 0
EndSplineSet
EndChar

StartChar: I
Encoding: 73 73 41
Width: 345
Flags: W
HStem: -4 33<40.75 108.779 236.221 304.25> 629 33<40.75 108.779 236.221 304.25>
VStem: 116 114<36.7397 621.26>
LayerCount: 2
Fore
SplineSet
173 656 m 0
 213 656 262 659 302 662 c 1
 306 656 306 635 302 629 c 1
 290 629 240 624 236 612 c 0
 230 594 230 564 230 528 c 2
 230 130 l 2
 230 94 230 64 236 46 c 0
 240 34 290 29 302 29 c 1
 306 23 306 2 302 -4 c 1
 262 -1 212 2 172 2 c 0
 132 2 83 -1 43 -4 c 1
 39 2 39 23 43 29 c 1
 55 29 105 34 109 46 c 0
 115 64 116 94 116 130 c 2
 116 528 l 2
 116 564 115 594 109 612 c 0
 105 624 55 629 43 629 c 1
 39 635 39 656 43 662 c 1
 83 659 133 656 173 656 c 0
EndSplineSet
EndChar

StartChar: J
Encoding: 74 74 42
Width: 331
Flags: W
HStem: -222 54<-53 62.4298> 629 33<33.75 102.778 229.221 297.25>
VStem: 109 114<-25.0014 621.622>
LayerCount: 2
Fore
SplineSet
167 656 m 0
 207 656 255 659 295 662 c 1
 299 656 299 635 295 629 c 1
 283 629 233 624 229 612 c 0
 223 594 223 564 223 528 c 2
 223 130 l 2
 223 -88 121 -222 -43 -222 c 1
 -63 -222 -93 -212 -103 -204 c 1
 -109 -196 -115 -186 -115 -172 c 1
 -115 -140 -91 -110 -59 -110 c 1
 -39 -110 -22 -126 -7 -141 c 0
 7 -155 23 -168 37 -168 c 1
 85 -168 109 -78 109 126 c 2
 109 528 l 2
 109 564 109 594 103 612 c 0
 99 624 48 629 36 629 c 1
 32 635 32 656 36 662 c 1
 76 659 127 656 167 656 c 0
EndSplineSet
EndChar

StartChar: K
Encoding: 75 75 43
Width: 690
Flags: W
HStem: -4 34<40.75 108.493 236.507 304.25 629.724 697.37> 628 34<40.75 108.493 236.507 304.25 419.734 476.902 586.159 660.808>
VStem: 116 114<38.5078 305.999 340 619.492>
LayerCount: 2
Fore
SplineSet
173 656 m 0
 213 656 262 659 302 662 c 1
 306 656 306 634 302 628 c 1
 290 628 240 622 236 610 c 0
 230 592 230 562 230 526 c 2
 230 340 l 1
 262 364 306 403 338 435 c 0
 407 504 422 516 466 574 c 0
 474 584 478 598 478 606 c 0
 478 629 434 628 422 628 c 1
 418 635 418 653 421 662 c 1
 458 660 507 656 544 656 c 0
 588 656 622 659 660 662 c 1
 662 656 663 632 658 629 c 1
 649 628 587 624 552 588 c 1
 509 541 424 460 343 378 c 0
 337 372 339 367 343 362 c 0
 427 257 521 137 559 101 c 1
 609 43 664 32 696 30 c 1
 701 24 697 -2 696 -4 c 1
 648 -5 589 -4 559 0 c 0
 513 2 475 28 449 59 c 0
 425 87 326 209 248 303 c 0
 246 306 242 306 239 306 c 0
 235 306 232 304 230 302 c 1
 230 132 l 2
 230 96 230 66 236 48 c 0
 240 36 290 30 302 30 c 1
 306 24 306 2 302 -4 c 1
 262 -1 212 2 172 2 c 0
 132 2 83 -1 43 -4 c 1
 39 2 39 24 43 30 c 1
 55 30 105 36 109 48 c 0
 115 66 116 96 116 132 c 2
 116 526 l 2
 116 562 115 592 109 610 c 0
 105 622 55 628 43 628 c 1
 39 634 39 656 43 662 c 1
 83 659 133 656 173 656 c 0
EndSplineSet
EndChar

StartChar: L
Encoding: 76 76 44
Width: 572
Flags: W
HStem: -3 33<40.75 108.999> -1 41<236.479 459.191> 629 33<40.75 108.779 236.221 304.25>
VStem: 116 114<54.5929 621.26>
LayerCount: 2
Fore
SplineSet
230 130 m 2xb0
 230 120 229 66 236 54 c 0
 246 42 270 40 304 40 c 1
 366 40 l 2x70
 404 40 445 47 471 68 c 0
 494 87 513 117 529 166 c 0
 530 170 536 172 543 172 c 0
 553 172 568 169 571 166 c 1
 552 112 524 41 517 -3 c 1xb0
 449 -3 308 -1 174 -1 c 0x70
 115 -1 69 -3 43 -3 c 1
 39 3 39 24 43 30 c 1
 55 30 105 34 109 46 c 0
 115 64 116 94 116 130 c 2
 116 528 l 2
 116 564 115 594 109 612 c 0
 105 624 55 629 43 629 c 1
 39 635 39 656 43 662 c 1
 83 659 133 656 173 656 c 0
 213 656 262 659 302 662 c 1
 306 656 306 635 302 629 c 1
 290 629 240 624 236 612 c 0
 230 594 230 564 230 528 c 2
 230 130 l 2xb0
EndSplineSet
EndChar

StartChar: M
Encoding: 77 77 45
Width: 908
Flags: W
HStem: -4 34<22.1185 97.4706 181.593 259.92 609.362 677.145 808.641 877.711> 629 33<60.0144 124.827 794.039 853.332>
LayerCount: 2
Fore
SplineSet
167.639 656 m 0
 201.639 656 229.639 660 260.639 662 c 1
 284.639 598 387.639 366 460.639 192 c 1
 460.639 191 463.639 190 464.639 190 c 0
 465.639 190 469.639 193 469.639 195 c 1
 499.639 271 553.639 410 604.639 544 c 0
 621.639 588 643.639 660 643.639 660 c 1
 663.639 658 717.639 656 736.639 656 c 0
 770.639 656 819.639 660 851.639 662 c 1
 853.639 658 856.639 632 854.639 628 c 1
 843.639 628 801.639 622 793.639 614 c 0
 786.639 606 784.639 594 784.639 574 c 0
 786.639 504 792.639 275 796.639 146 c 0
 798.639 107 798.639 72 808.639 47 c 0
 814.639 33 867.639 30 875.639 30 c 1
 879.639 21 879.639 2 877.639 -4 c 1
 837.639 -2 793.639 3 749.639 3 c 0
 703.639 3 657.639 -2 611.639 -4 c 1
 608.639 -1 606.639 22 610.639 30 c 1
 622.639 30 667.639 34 677.639 44 c 0
 683.639 50 686.639 71 686.639 83 c 0
 686.639 95 684.639 126 684.639 142 c 1
 682.639 214 676.639 450 673.639 531 c 1
 673.639 534 672.639 554 665.639 554 c 0
 663.639 554 662.639 552 660.639 547 c 1
 619.639 444 504.639 140 466.639 44 c 1
 462.639 35 440.639 -1 426.639 -2 c 0
 423.639 -2 420.639 -1 417.639 0 c 1
 183.639 554 l 1
 177.639 341 173.639 188 170.639 104 c 0
 170.639 88 172.639 62 174.639 54 c 0
 180.639 36 249.639 30 257.639 30 c 1
 261.639 24 261.639 2 259.639 -4 c 1
 219.639 -2 188.639 3 144.639 3 c 0
 98.6387 3 69.6387 -2 23.6387 -4 c 1
 20.6387 0 19.6387 19 23.6387 28 c 1
 35.6387 28 96.6387 36 106.639 56 c 0
 112.639 68 117.639 107 118.639 125 c 0
 126.639 303 132.639 544 133.639 576 c 0
 133.639 586 134.639 599 129.639 608 c 0
 123.639 620 75.6387 629 61.6387 629 c 1
 57.6387 633 59.6387 660 61.6387 662 c 1
 107.639 660 121.639 656 167.639 656 c 0
EndSplineSet
EndChar

StartChar: N
Encoding: 78 78 46
Width: 769
Flags: W
HStem: -4 33<34.0576 107.211 200.616 272.873> 630 33<37.1719 107.906 506.381 582.213 667.367 745.618>
VStem: 126 55<44.3074 543.172> 598 54<207 617.106>
LayerCount: 2
Fore
SplineSet
148 658 m 0
 180 658 217 660 240 662 c 1
 284 583 480 361 597 207 c 1
 598 211 598 249 598 256 c 1
 598 510 l 1
 598 547 595 593 587 609 c 0
 580 623 523 630 509 630 c 1
 505 634 504 655 508 663 c 1
 551 661 581 656 626 656 c 0
 671 656 701 661 744 663 c 1
 746 657 749 640 743 630 c 1
 733 630 670 624 662 608 c 0
 655 594 652 549 652 512 c 2
 652 139 l 2
 652 81 654 51 656 -1 c 1
 653 -4 637 -5 634 -5 c 0
 625 -5 612 4 602 18 c 2
 181 544 l 1
 181 136 l 2
 181 100 183 68 191 53 c 0
 197 39 258 30 270 30 c 1
 276 22 274 2 272 -4 c 1
 232 -2 196 3 152 3 c 0
 106 3 82 -2 36 -4 c 1
 32 3 32 23 36 29 c 1
 48 29 107 37 115 52 c 0
 123 67 126 99 126 137 c 1
 126 203 126 465 126 531 c 1
 126 564 123 593 112 610 c 0
 104 622 52 630 40 630 c 1
 35 636 35 658 39 663 c 1
 77 661 108 658 148 658 c 0
EndSplineSet
EndChar

StartChar: O
Encoding: 79 79 47
Width: 752
Flags: W
HStem: -10 40<315.839 471.661> 627 40<280.447 436.232>
VStem: 44 130<210.9 445.454> 579 130<210.677 445.477>
LayerCount: 2
Fore
SplineSet
357 627 m 1
 223 627 174 484 174 356 c 1
 174 202 243 30 395 30 c 1
 529 30 579 172 579 300 c 1
 579 454 509 627 357 627 c 1
376 667 m 0
 552 667 709 521 709 328 c 0
 709 141 552 -10 376 -10 c 0
 200 -10 44 136 44 328 c 0
 44 515 200 667 376 667 c 0
EndSplineSet
EndChar

StartChar: P
Encoding: 80 80 48
Width: 567
Flags: W
HStem: -4 33<40.75 108.779 236.221 304.25> 280 44<275.157 371.654> 622 38<42.4639 111.246 231.918 353.36>
VStem: 116 114<36.7397 619.944> 422 120<388.567 556.17>
LayerCount: 2
Fore
SplineSet
542 484 m 0
 542 358 450 280 334 280 c 0
 304 280 285 290 277 296 c 0
 274 299 265 313 265 320 c 0
 265 324 267 328 269 328 c 1
 279 325 293 324 308 324 c 0
 372 324 422 377 422 465 c 0
 422 554 373 622 284 622 c 0
 266 622 238 621 234 611 c 0
 229 599 230 573 230 543 c 2
 230 130 l 2
 230 94 230 64 236 46 c 0
 240 34 290 29 302 29 c 1
 306 23 306 2 302 -4 c 1
 262 -1 212 2 172 2 c 0
 132 2 83 -1 43 -4 c 1
 39 2 39 23 43 29 c 1
 55 29 105 34 109 46 c 0
 115 64 116 94 116 130 c 2
 116 528 l 2
 116 564 115 594 109 612 c 0
 105 624 55 628 43 628 c 1
 39 634 39 655 43 661 c 1
 86 659 135 657 175 657 c 0
 215 657 264 660 323 660 c 0
 431 660 542 598 542 484 c 0
EndSplineSet
EndChar

StartChar: Q
Encoding: 81 81 49
Width: 753
Flags: W
HStem: -140 62<586.916 711.218> 627 40<280.447 436.232>
VStem: 44 130<209.496 445.454> 579 130<211.487 445.477>
LayerCount: 2
Fore
SplineSet
376 667 m 0
 552 667 709 521 709 328 c 0
 709 176 605 49 473 6 c 1
 567 -40 593 -78 695 -78 c 0
 735 -78 758 -71 765 -70 c 1
 771 -70 782 -74 786 -80 c 0
 787 -82 787 -83 787 -84 c 1
 732 -113 663 -140 602 -140 c 0
 494 -140 416 -33 297 0 c 0
 155 36 44 166 44 328 c 0
 44 515 200 667 376 667 c 0
357 627 m 0
 223 627 174 484 174 356 c 0
 174 202 243 30 395 30 c 0
 529 30 579 172 579 300 c 0
 579 454 509 627 357 627 c 0
EndSplineSet
EndChar

StartChar: R
Encoding: 82 82 50
Width: 659
Flags: W
HStem: -4 33<40.75 108.779 236.221 304.25 626.5 689.582> 300 35<230 288.564> 622 38<42.4639 111.246 231.918 353.113>
VStem: 116 114<36.7397 300 335 619.944> 412 120<411.507 563.514>
LayerCount: 2
Fore
SplineSet
323 660 m 0
 431 660 532 599 532 482 c 0
 532 405 453 338 395 320 c 1
 458 227 516 152 549 108 c 1
 601 42 657 31 689 29 c 1
 694 23 689 -2 688 -4 c 1
 640 -5 587 -4 557 0 c 0
 511 2 472 28 448 60 c 0
 440 70 319 238 287 287 c 0
 284 291 274 300 263 300 c 0
 260 300 234 300 230 300 c 1
 230 130 l 1
 230 94 230 64 236 46 c 0
 240 34 290 29 302 29 c 1
 306 23 306 2 302 -4 c 1
 262 -1 212 2 172 2 c 0
 132 2 83 -1 43 -4 c 1
 39 2 39 23 43 29 c 1
 55 29 105 34 109 46 c 0
 115 64 116 94 116 130 c 2
 116 528 l 2
 116 564 115 594 109 612 c 0
 105 624 55 628 43 628 c 1
 39 634 39 655 43 661 c 1
 86 659 135 657 175 657 c 0
 215 657 264 660 323 660 c 0
412 465 m 0
 412 549 380 622 284 622 c 0
 266 622 238 621 234 611 c 0
 229 599 230 573 230 543 c 2
 230 335 l 1
 230 335 269 335 279 335 c 0
 350 335 412 388 412 465 c 0
EndSplineSet
EndChar

StartChar: S
Encoding: 83 83 51
Width: 512
Flags: W
HStem: -10 40<177.1 316.448> 628 40<198.416 324.183>
VStem: 48 40<128.208 191.152> 60 106<470.21 570.138> 360 109<93.5797 200.626> 396 39<479.366 543.956>
LayerCount: 2
Fore
SplineSet
264 668 m 0xd8
 324 668 360 654 424 640 c 1
 430 588 433 530 435 486 c 1
 434 481 428 479 424 479 c 0
 420 479 398 479 396 488 c 0
 389 541 341 628 263 628 c 0
 199 628 166 589 166 531 c 0xd4
 166 460 244 416 308 374 c 0
 374 331 469 283 469 174 c 0
 469 64 364 -10 256 -10 c 0
 192 -10 124 6 70 18 c 1
 59 70 49 160 48 180 c 1
 51 185 70 193 76 193 c 0
 82 193 87 190 88 184 c 0xe8
 96 138 141 30 252 30 c 0
 308 30 360 64 360 138 c 0
 360 215 280 254 220 291 c 0
 145 338 60 388 60 490 c 0
 60 594 162 668 264 668 c 0xd8
EndSplineSet
EndChar

StartChar: T
Encoding: 84 84 52
Width: 629
Flags: W
HStem: -4 33<182.75 251.778 379.221 447.25> 618 40<98.0983 259 373 530.902>
VStem: 10 36<490.828 551.207> 259 114<36.7397 618> 583 36<490.646 551.207>
LayerCount: 2
Fore
SplineSet
495 658 m 0
 539 658 562 673 577 676 c 0
 586 678 588 678 593 676 c 1
 597 646 613 524 619 498 c 1
 616 495 604 490 595 490 c 0
 590 490 585 492 583 496 c 1
 571 564 532 618 482 618 c 2
 373 618 l 1
 373 130 l 2
 373 94 373 64 379 46 c 0
 383 34 433 29 445 29 c 1
 449 23 449 2 445 -4 c 1
 405 -1 355 2 315 2 c 0
 275 2 225 -1 185 -4 c 1
 181 2 181 23 185 29 c 1
 197 29 248 34 252 46 c 0
 258 64 259 94 259 130 c 2
 259 618 l 1
 147 618 l 2
 97 618 58 564 46 496 c 1
 44 492 40 490 35 490 c 0
 26 490 13 495 10 498 c 1
 16 524 33 646 37 676 c 1
 42 678 47 678 54 676 c 0
 69 673 90 658 134 658 c 0
 222 658 404 658 495 658 c 0
EndSplineSet
EndChar

StartChar: U
Encoding: 85 85 53
Width: 728
Flags: W
HStem: -6 65<303.357 478.71> 629 33<24.75 93.7784 220.222 289.25 485.538 556.428 644.294 720.199>
VStem: 100 114<165.871 621.622> 573 55<165.973 615.972>
LayerCount: 2
Fore
SplineSet
158 656 m 0
 198 656 247 659 287 662 c 1
 291 656 291 635 287 629 c 1
 275 629 224 624 220 612 c 0
 214 594 214 564 214 528 c 2
 214 313 l 2
 214 237 223 182 251 136 c 0
 286 72 346 59 395 59 c 0
 487 59 571 118 573 292 c 2
 573 512 l 2
 573 552 570 590 561 608 c 0
 554 622 502 630 488 630 c 1
 483 637 484 656 487 662 c 1
 531 659 560 656 605 656 c 0
 650 656 674 660 718 662 c 1
 722 656 723 639 718 630 c 1
 706 630 648 624 640 608 c 0
 632 590 628 553 628 513 c 2
 628 281 l 2
 628 79 510 -6 360 -6 c 0
 282 -6 211 19 165 70 c 0
 122 117 100 184 100 276 c 2
 100 528 l 2
 100 564 101 594 94 612 c 0
 90 624 39 629 27 629 c 1
 23 635 23 656 27 662 c 1
 67 659 118 656 158 656 c 0
EndSplineSet
EndChar

StartChar: V
Encoding: 86 86 54
Width: 663
Flags: W
HStem: -6 21G<316.25 325.25> 629 33<-4.50562 51.6964 203.608 260.698 456.859 523.614 614.738 677.869>
LayerCount: 2
Fore
SplineSet
126.25 656 m 0
 169.25 656 219.25 659 259.25 662 c 1
 262.25 656 262.25 633 258.25 629 c 1
 248.25 629 197.25 625 197.25 599 c 0
 197.25 586 206.25 559 218.25 528 c 0
 263.25 416 363.25 163 365.25 159 c 1
 368.25 166 477.25 431 512.25 522 c 0
 521.25 546 532.25 578 532.25 598 c 0
 532.25 623 471.25 629 459.25 629 c 1
 454.25 633 455.25 656 459.25 662 c 1
 501.25 659 529.25 656 571.25 656 c 0
 616.25 656 636.25 660 676.25 662 c 1
 680.25 656 679.25 633 675.25 629 c 1
 665.25 629 622.25 625 608.25 607 c 0
 594.25 590 577.25 551 563.25 515 c 0
 485.25 323 440.25 217 362.25 31 c 0
 352.25 9 331.25 -6 319.25 -6 c 0
 313.25 -6 311.25 2 307.25 8 c 1
 273.25 97 141.25 416 103.25 512 c 1
 89.25 546 76.25 578 63.25 601 c 0
 51.25 622 9.25 629 -2.75 629 c 1
 -5.75 633 -5.75 658 -2.75 662 c 1
 39.25 659 82.25 656 126.25 656 c 0
EndSplineSet
EndChar

StartChar: W
Encoding: 87 87 55
Width: 928
Flags: W
HStem: -6 21G<278.639 287.639 632.639 641.639> 629 33<-3.27239 51.1484 199.997 257.087 715.248 782.002 874.701 937.257>
LayerCount: 2
Fore
SplineSet
130.639 656 m 0
 173.639 656 215.639 659 255.639 662 c 1
 258.639 656 258.639 633 254.639 629 c 1
 244.639 629 193.639 625 193.639 599 c 1
 193.639 588 203.639 561 213.639 529 c 0
 246.639 426 297.639 273 318.639 202 c 1
 342.639 280 431.639 545 458.639 627 c 0
 464.639 646 480.639 662 491.639 662 c 0
 495.639 662 499.639 657 503.639 646 c 1
 539.639 551 638.639 282 672.639 182 c 1
 694.639 258 750.639 436 774.639 522 c 0
 781.639 547 790.639 578 790.639 598 c 0
 790.639 623 729.639 629 717.639 629 c 1
 712.639 633 713.639 656 717.639 662 c 1
 759.639 659 788.639 656 830.639 656 c 0
 875.639 656 895.639 660 935.639 662 c 1
 939.639 656 938.639 633 934.639 629 c 1
 924.639 629 883.639 623 867.639 607 c 0
 853.639 591 841.639 566 829.639 528 c 0
 771.639 339 732.639 218 674.639 36 c 0
 667.639 14 647.639 -6 635.639 -6 c 0
 629.639 -6 623.639 2 620.639 8 c 1
 588.639 102 488.639 362 454.639 460 c 1
 426.639 368 368.639 198 317.639 38 c 0
 313.639 24 293.639 -6 281.639 -6 c 0
 275.639 -6 269.639 2 266.639 8 c 1
 237.639 100 127.639 423 96.6387 521 c 1
 85.6387 556 75.6387 583 61.6387 602 c 0
 48.6387 622 11.6387 629 -1.36133 629 c 1
 -5.36133 633 -4.36133 658 -1.36133 662 c 1
 41.6387 659 86.6387 656 130.639 656 c 0
EndSplineSet
EndChar

StartChar: X
Encoding: 88 88 56
Width: 690
Flags: W
HStem: -4 33<-6.84502 66.2503 169 241.678 403.785 456.021 623.095 691.406> 629 33<24.5485 88.4772 249.959 305.238 435.198 501.836 609.735 673.094>
LayerCount: 2
Fore
SplineSet
168.24 656 m 0
 217.24 656 264.24 660 304.24 662 c 1
 306.24 656 307.24 629 302.24 629 c 1
 288.24 629 245.24 622 245.24 602 c 0
 245.24 595 249.24 585 255.24 576 c 2
 369.24 403 l 1
 421.24 471 490.24 557 505.24 588 c 0
 506.24 592 509.24 597 509.24 601 c 0
 509.24 613 483.24 628 438.24 628 c 1
 434.24 628 432.24 656 436.24 662 c 1
 474.24 658 519.24 656 556.24 656 c 0
 608.24 656 645.24 659 671.24 662 c 1
 674.24 656 676.24 631 670.24 628 c 1
 662.24 628 606.24 626 570.24 582 c 1
 532.24 534 429.24 413 393.24 365 c 1
 435.24 301 583.24 79 591.24 71 c 1
 615.24 39 665.24 29 689.24 29 c 1
 693.24 22 693.24 1 690.24 -4 c 1
 650.24 -2 599.24 2 558.24 2 c 0
 502.24 2 462.24 -2 406.24 -4 c 1
 401.24 1 402.24 29 407.24 29 c 0
 418.24 29 464.24 40 464.24 58 c 0
 464.24 61 462.24 66 460.24 69 c 2
 318.24 286 l 1
 280.24 236 189.24 112 167.24 74 c 0
 164.24 68 160.24 62 160.24 58 c 0
 160.24 43 196.24 29 239.24 29 c 1
 243.24 23 244.24 3 242.24 -4 c 1
 207.24 -2 156.24 2 119.24 2 c 0
 67.2402 2 34.2402 -2 -5.75977 -4 c 1
 -9.75977 2 -7.75977 24 -4.75977 29 c 1
 3.24023 29 70.2402 32 100.24 72 c 1
 138.24 120 254.24 279 290.24 327 c 1
 270.24 357 149.24 542 149.24 542 c 2
 129.24 574 110.24 601 89.2402 614 c 0
 73.2402 624 39.2402 629 27.2402 629 c 1
 22.2402 629 22.2402 657 27.2402 662 c 1
 76.2402 660 119.24 656 168.24 656 c 0
EndSplineSet
EndChar

StartChar: Y
Encoding: 89 89 57
Width: 611
Flags: W
HStem: -4 33<172.136 240.165 367.607 435.636> 629 33<-6.00489 47.7509 208.533 267.073 399.026 467.761 553.807 620.746>
VStem: 247.386 114<36.7397 326.469>
LayerCount: 2
Fore
SplineSet
247.386 130 m 2
 247.386 276 l 0
 247.386 283 244.386 291 240.386 300 c 0
 198.386 380 136.386 489 107.386 542 c 1
 89.3857 574 78.3857 586 58.3857 604 c 0
 42.3857 622 8.38574 629 -3.61426 629 c 1
 -8.61426 633 -7.61426 656 -3.61426 662 c 1
 40.3857 659 84.3857 656 130.386 656 c 0
 175.386 656 225.386 659 265.386 662 c 1
 268.386 656 269.386 633 264.386 629 c 1
 250.386 629 203.386 626 203.386 600 c 0
 203.386 594 207.386 586 213.386 576 c 2
 341.386 348 l 1
 368.386 390 442.386 529 470.386 585 c 0
 472.386 591 474.386 598 474.386 604 c 0
 474.386 616 435.386 628 401.386 628 c 1
 397.386 632 397.386 658 400.386 662 c 1
 442.386 659 466.386 656 508.386 656 c 0
 556.386 656 579.386 660 619.386 662 c 1
 622.386 656 622.386 632 618.386 628 c 1
 608.386 628 556.386 628 537.386 596 c 0
 508.386 548 402.386 370 366.386 300 c 0
 361.386 291 361.386 282 361.386 274 c 0
 361.386 130 l 2
 361.386 94 361.386 64 367.386 46 c 0
 371.386 34 421.386 29 433.386 29 c 1
 437.386 23 437.386 2 433.386 -4 c 1
 393.386 -1 343.386 2 303.386 2 c 0
 263.386 2 214.386 -1 174.386 -4 c 1
 170.386 2 170.386 23 174.386 29 c 1
 186.386 29 236.386 34 240.386 46 c 0
 246.386 64 247.386 94 247.386 130 c 2
EndSplineSet
EndChar

StartChar: Z
Encoding: 90 90 58
Width: 636
Flags: W
HStem: 0 42<181.438 494.653> 617 41<153.456 437.129> 646 20G<74.4375 87.4375 531.438 575.438>
VStem: 44.4375 40<478.456 533.224>
LayerCount: 2
Fore
SplineSet
224.438 617 m 2xd0
 137.438 617 107.438 555 84.4375 483 c 1
 82.4375 480 79.4375 478 71.4375 478 c 0
 61.4375 478 47.4375 481 44.4375 484 c 1
 58.4375 536 70.4375 600 78.4375 666 c 1xb0
 96.4375 662 165.438 658 185.438 658 c 1
 352.438 658 l 2
 436.438 658 489.438 662 573.438 668 c 1
 577.438 667 587.438 650 587.438 641 c 1
 585.438 633 181.438 42 181.438 42 c 17
 419.438 42 l 2
 459.438 42 492.438 56 514.438 78 c 0
 539.438 103 552.438 134 566.438 171 c 0
 567.438 174 574.438 176 580.438 176 c 0
 590.438 176 603.438 172 607.438 168 c 1
 587.438 102 566.438 47 556.438 0 c 1
 535.438 0 146.438 0 49.4375 0 c 1
 37.4375 0 24.4375 13 27.4375 18 c 2
 437.438 617 l 1
 224.438 617 l 2xd0
EndSplineSet
EndChar

StartChar: bracketleft
Encoding: 91 91 59
Width: 283
Flags: W
HStem: -141 30<215.19 278.222>
VStem: 77 78<-89.74 703.74>
LayerCount: 2
Fore
SplineSet
96 744 m 0
 188 744 257 751 275 755 c 1
 276 755 279 752 279 746 c 0
 279 736 273 727 269 725 c 0
 235 711 169 703 155 700 c 1
 155 -86 l 1
 169 -89 235 -97 269 -111 c 0
 273 -113 279 -122 279 -132 c 0
 279 -138 276 -141 275 -141 c 1
 257 -137 188 -130 96 -130 c 0
 80 -130 77 -113 77 -107 c 1
 77 721 l 1
 77 727 80 744 96 744 c 0
EndSplineSet
EndChar

StartChar: backslash
Encoding: 92 92 60
Width: 410
Flags: W
LayerCount: 2
Fore
SplineSet
29 752 m 1
 33 757 40 759 48 759 c 0
 66 759 78 751 81 743 c 2
 81 743 379 -16 379 -22 c 1
 378 -26 366 -32 353 -32 c 0
 345 -32 332 -26 328 -16 c 0
 214 276 119 524 29 752 c 1
EndSplineSet
EndChar

StartChar: bracketright
Encoding: 93 93 61
Width: 283
Flags: W
HStem: 725 30<4.77759 67.8101>
VStem: 128 78<-89.74 703.74>
LayerCount: 2
Fore
SplineSet
187 744 m 0
 203 744 206 727 206 721 c 1
 206 -107 l 1
 206 -113 203 -130 187 -130 c 0
 95 -130 26 -137 8 -141 c 1
 7 -141 4 -138 4 -132 c 0
 4 -122 10 -113 14 -111 c 0
 48 -97 114 -89 128 -86 c 1
 128 700 l 1
 114 703 48 711 14 725 c 0
 10 727 4 736 4 746 c 0
 4 752 7 755 8 755 c 1
 26 751 95 744 187 744 c 0
EndSplineSet
EndChar

StartChar: asciicircum
Encoding: 94 94 62
Width: 390
Flags: W
HStem: 421 236
VStem: 50 272
LayerCount: 2
Fore
SplineSet
186 657 m 0
 192 657 200 652 204 644 c 0
 250 560 274 518 322 438 c 1
 322 428 312 421 305 421 c 1
 253 472 186 554 186 554 c 25
 186 554 120 472 68 421 c 1
 61 421 50 428 50 438 c 1
 98 518 123 560 169 644 c 0
 173 652 180 657 186 657 c 0
EndSplineSet
EndChar

StartChar: underscore
Encoding: 95 95 63
Width: 500
Flags: W
HStem: -43 56<15.9907 474.32>
LayerCount: 2
Fore
SplineSet
12 -33 m 1
 12 -33 17 13 27 13 c 2
 476 13 l 2
 478 13 480 12 480 8 c 0
 480 -1 476 -15 470 -37 c 0
 468 -43 464 -43 464 -43 c 1
 19 -43 l 1
 19 -43 12 -43 12 -33 c 1
EndSplineSet
EndChar

StartChar: grave
Encoding: 96 96 64
Width: 295
Flags: W
HStem: 524 162
VStem: 76 170
LayerCount: 2
Fore
SplineSet
76 660 m 0
 76 666 84 686 119 686 c 0
 133 686 148 683 153 678 c 0
 190 635 246 545 246 540 c 0
 246 534 239 524 232 524 c 0
 222 524 76 621 76 660 c 0
EndSplineSet
EndChar

StartChar: a
Encoding: 97 97 65
Width: 452
Flags: W
HStem: -8 62<121.5 218.679 328.5 409> 404 38<161.586 279>
VStem: 33 109<70.8169 168.107> 47 94<294.202 362.528> 271 103<65.8703 223 257.281 374.655>
LayerCount: 2
Fore
SplineSet
207 54 m 0xe8
 237 54 271 77 271 85 c 2
 271 223 l 1
 247 214 210 202 191 192 c 0
 159 176 142 150 142 120 c 0
 142 80 175 54 207 54 c 0xe8
244 442 m 0
 314 442 374 382 374 298 c 2
 374 101 l 2
 374 74 383 57 401 57 c 0
 417 57 428 66 432 68 c 1
 436 67 437 60 437 56 c 1
 437 50 436 44 433 39 c 1
 420 27 376 -6 344 -6 c 0
 313 -6 283 24 275 52 c 1
 265 42 193 -8 157 -8 c 0
 86 -8 33 48 33 110 c 0xe8
 33 150 61 182 85 190 c 0
 132 206 225 241 265 257 c 1
 270 263 271 268 271 280 c 2
 271 306 l 2
 271 354 240 404 198 404 c 0
 162 404 149 374 141 332 c 0
 135 304 120 286 90 286 c 0
 66 286 47 306 47 330 c 0xd8
 47 338 51 353 57 363 c 1
 79 384 164 442 244 442 c 0
EndSplineSet
EndChar

StartChar: b
Encoding: 98 98 66
Width: 520
Flags: W
HStem: -8 39<195.598 302.102> 377 66<222.061 310.185> 626 29<0.404861 59.798> 674 20G<158.75 172.75>
VStem: 68.75 103<52.3774 351.859 392.777 617.957> 369.75 114<133.753 307.559>
LayerCount: 2
Fore
SplineSet
225.75 -8 m 0
 191.75 -8 148.75 9 125.75 12 c 0
 105.75 15 89.75 17 74.75 11 c 1
 70.75 11 56.75 28 56.75 34 c 1
 64.75 53 68.75 88 68.75 131 c 2
 68.75 558 l 2
 68.75 573 68.75 594 62.75 608 c 0
 56.75 621 21.75 626 1.75 626 c 1
 -0.25 626 -1.25 653 2.75 655 c 1
 83.75 663 147.75 684 169.75 694 c 1
 175.75 694 182.75 684 182.75 678 c 1
 182.75 678 171.75 640 171.75 584 c 2
 171.75 404 l 2
 171.75 399 171.75 388 177.75 393 c 0
 192.75 405 251.75 443 287.75 443 c 0
 405.75 443 483.75 341 483.75 234 c 0
 483.75 88 361.75 -8 225.75 -8 c 0
238.75 377 m 0
 211.75 377 184.75 362 175.75 352 c 0
 172.75 349 171.75 346 171.75 342 c 2
 171.75 98 l 2
 171.75 60 208.75 31 251.75 31 c 0
 319.75 31 369.75 117 369.75 195 c 0
 369.75 321 314.75 377 238.75 377 c 0
EndSplineSet
EndChar

StartChar: c
Encoding: 99 99 67
Width: 434
Flags: W
HStem: -8 75<208.433 327.102> 395 48<191.312 309.724>
VStem: 35 102<142.567 291.23>
LayerCount: 2
Fore
SplineSet
397 384 m 0
 397 352 375 329 349 329 c 1
 325 329 307 356 291 370 c 0
 272 386 254 395 228 395 c 0
 180 395 137 325 137 242 c 0
 137 114 213 67 290 67 c 0
 346 67 382 98 399 117 c 1
 403 116 409 108 409 101 c 1
 409 95 407 86 405 82 c 0
 387 54 327 -8 241 -8 c 0
 125 -8 35 79 35 197 c 0
 35 331 166 443 287 443 c 0
 332 443 365 434 383 422 c 1
 389 415 397 402 397 384 c 0
EndSplineSet
EndChar

StartChar: d
Encoding: 100 100 68
Width: 533
Flags: W
HStem: -8 63<209.43 293.851> 24 30<459.609 511.881> 396 46<198.629 327.191> 626 29<278.243 337.081> 674 20G<437 451>
VStem: 36 113<127.946 293.991> 346 104<70.7694 375.829 436.009 617.957>
LayerCount: 2
Fore
SplineSet
286 442 m 0xbe
 307 442 332 438 341 436 c 1
 345 436 346 448 346 458 c 1
 346 470 346 542 346 558 c 1
 346 574 346 594 340 608 c 0
 334 621 300 626 280 626 c 1
 278 626 276 653 280 655 c 1
 361 663 426 684 448 694 c 1
 454 694 460 684 460 678 c 1
 460 678 450 640 450 584 c 2
 450 136 l 2
 450 109 450 80 458 68 c 0
 466 54 504 54 510 54 c 1
 512 52 512 46 512 41 c 0
 512 37 510 27 506 24 c 1x7e
 450 20 361 -8 354 -8 c 0
 349 -8 346 3 346 14 c 2
 346 40 l 2
 346 44 345 47 343 45 c 0
 327 31 265 -8 215 -8 c 0
 121 -8 36 83 36 203 c 0
 36 353 196 442 286 442 c 0xbe
254 396 m 0
 184 396 149 318 149 236 c 0
 149 134 194 55 270 55 c 0xbe
 306 55 346 80 346 94 c 2
 346 348 l 2
 346 368 303 396 254 396 c 0
EndSplineSet
EndChar

StartChar: e
Encoding: 101 101 69
Width: 445
Flags: W
HStem: -8 74<210.36 327.777> 245 38<142.806 285.129> 254 33<181.759 303.785> 404 38<186.81 274.561>
VStem: 36 100<144.973 245 283 298.022> 304 104<287.219 371.989>
LayerCount: 2
Fore
SplineSet
140 283 m 1xdc
 149 283 269 285 286 287 c 0xbc
 298 287 304 295 304 307 c 1
 304 342 285 404 232 404 c 1
 160 404 139 300 140 283 c 1xdc
136 245 m 1xdc
 134 111 222 66 288 66 c 0
 344 66 383 98 400 117 c 1
 404 116 410 108 410 101 c 1
 410 95 407 86 405 82 c 0
 387 54 328 -8 242 -8 c 0
 127 -8 36 76 36 200 c 0
 36 330 144 442 246 442 c 0
 372 442 408 348 408 299 c 0
 408 273 400 255 383 254 c 0xbc
 333 250 179 246 136 245 c 1xdc
EndSplineSet
EndChar

StartChar: f
Encoding: 102 102 70
Width: 332
Flags: W
HStem: -4 33<25.75 91.7806 208.221 276.25> 386 44<37.2377 98 202 320.628> 632 66<228.368 303.876>
VStem: 98 104<36.3778 386 430 545.536>
LayerCount: 2
Fore
SplineSet
288 698 m 0
 319 698 330 693 344 686 c 1
 354 680 368 667 368 650 c 1
 368 616 346 595 323 595 c 1
 303 595 290 610 275 620 c 0
 264 628 255 632 241 632 c 0
 217 632 198 598 198 544 c 1
 198 521 199 446 200 430 c 1
 204 430 302 430 318 430 c 1
 322 430 323 424 323 418 c 0
 323 409 315 394 305 386 c 1
 290 386 218 386 202 386 c 1
 202 130 l 2
 202 94 202 64 208 46 c 0
 212 34 262 29 274 29 c 1
 278 23 278 2 274 -4 c 1
 234 -1 190 2 150 2 c 0
 110 2 68 -1 28 -4 c 1
 24 2 24 23 28 29 c 1
 40 29 88 34 92 46 c 0
 98 64 98 94 98 130 c 2
 98 130 98 342 98 386 c 1
 84 386 47 386 34 386 c 1
 30 387 29 393 29 397 c 1
 34 406 52 424 58 430 c 1
 73 430 88 430 98 430 c 1
 98 440 l 2
 98 581 220 698 288 698 c 0
EndSplineSet
EndChar

StartChar: g
Encoding: 103 103 71
Width: 471
Flags: W
HStem: -222 48<162.232 306.789> -9 91<156.643 347.537> 142 34<183.897 268.124> 370 56<389.608 450.75> 408 34<173.817 257.061>
VStem: 23 94<-131.275 -56.982> 45 99<219.378 365.102> 295 99<220.582 367.461> 379 78<-99.2095 -3.5>
LayerCount: 2
Fore
SplineSet
215 408 m 1xeb
 161 408 144 351 144 300 c 1
 144 242 171 176 227 176 c 1
 281 176 295 233 295 283 c 1
 295 341 272 408 215 408 c 1xeb
257 -9 m 0
 229 -9 169 -10 156 -12 c 1
 141 -22 117 -43 117 -67 c 0
 117 -133 167 -174 245 -174 c 0
 327 -174 379 -124 379 -80 c 0xe480
 379 -44 337 -9 257 -9 c 0
313 81 m 0
 399 79 457 19 457 -26 c 0
 457 -128 331 -222 193 -222 c 0
 103 -222 23 -179 23 -104 c 0xf480
 23 -62 83 -22 119 -4 c 1
 85 6 48 46 48 92 c 1
 56 111 105 146 133 162 c 1
 80 187 45 238 45 291 c 0
 45 372 120 442 219 442 c 0xea
 263 442 296 431 319 418 c 0
 330 413 327 413 333 412 c 1
 449 426 l 1
 454 424 459 421 459 416 c 0
 459 408 445 376 435 370 c 1
 411 372 388 373 375 375 c 1
 373 375 369 374 369 372 c 1
 379 358 394 329 394 292 c 0xf3
 394 216 319 142 219 142 c 0
 201 142 178 146 165 150 c 1
 151 140 135 125 135 112 c 0
 135 100 157 82 189 82 c 0
 241 82 273 82 313 81 c 0
EndSplineSet
EndChar

StartChar: h
Encoding: 104 104 72
Width: 553
Flags: W
HStem: -4 33<17.75 82.7813 200.217 262.25 300.75 360.785 477.219 543.25> 372 70<269.186 394.475> 626 29<21.6549 81.048> 674 20G<180 194>
VStem: 90 104<36.3778 342.871 364.001 618.938> 367 104<36.0252 341.83>
LayerCount: 2
Fore
SplineSet
338 442 m 0
 449 442 471 370 471 218 c 2
 471 130 l 2
 471 94 471 64 477 46 c 0
 481 34 529 29 541 29 c 1
 545 23 545 2 541 -4 c 1
 501 -1 459 2 419 2 c 0
 379 2 343 -1 303 -4 c 1
 299 2 299 23 303 29 c 1
 315 29 357 34 361 46 c 0
 367 64 367 94 367 130 c 2
 367 220 l 2
 367 318 351 372 285 372 c 0
 247 372 194 331 194 317 c 2
 194 130 l 2
 194 96 194 64 200 46 c 0
 204 34 248 29 260 29 c 1
 264 23 264 2 260 -4 c 1
 220 -1 181 2 141 2 c 0
 100 2 60 -1 20 -4 c 1
 16 2 16 23 20 29 c 1
 32 29 79 34 83 46 c 0
 89 64 90 94 90 130 c 2
 90 558 l 2
 90 573 90 594 84 608 c 0
 78 621 43 626 23 626 c 1
 21 626 20 653 24 655 c 1
 105 663 169 684 191 694 c 1
 197 694 204 684 204 678 c 1
 204 678 194 632 194 584 c 1
 194 584 194 372 194 368 c 0
 194 366 193 364 195 364 c 1
 197 364 198 366 200 368 c 0
 224 395 291 442 338 442 c 0
EndSplineSet
EndChar

StartChar: i
Encoding: 105 105 73
Width: 294
Flags: W
HStem: -4 33<30.0596 95.0909 212.527 274.56> 368 28<29.6177 90.5498> 424 20G<180.81 203.31> 544 122<99.0801 192.11>
VStem: 84.3096 123<558.34 650.8> 102.31 104<36.3778 359.638>
LayerCount: 2
Fore
SplineSet
206.31 317 m 1xf4
 206.31 130 l 2
 206.31 96 206.31 64 212.31 46 c 0
 216.31 34 260.31 29 272.31 29 c 1
 276.31 23 276.31 2 272.31 -4 c 1
 232.31 -1 193.31 2 153.31 2 c 0
 112.31 2 72.3096 -1 32.3096 -4 c 1
 28.3096 2 28.3096 23 32.3096 29 c 1
 44.3096 29 91.3096 34 95.3096 46 c 0
 102.31 64 102 94 102.31 130 c 2
 102.309570312 282 l 2
 102.309570312 294 102.309570312 335 95.3095703125 349 c 0
 87.3095703125 365 38.3095703125 368 31.3095703125 368 c 1
 29.3095703125 370 27.3095703125 394 31.3095703125 396 c 1
 95.3095703125 402 161.309570312 424 200.309570312 444 c 1
 206.309570312 443 214.309570312 431 214.309570312 427 c 1
 212.309570312 419 206.31 377 206.31 365 c 1
 206.31 354 206.31 320 206.31 317 c 1xf4
84.3096 604 m 0xf8
 84.3096 638 111.31 666 145.31 666 c 0
 179.31 666 207.31 638 207.31 604 c 0
 207.31 570 179.31 544 145.31 544 c 0
 111.31 544 84.3096 570 84.3096 604 c 0xf8
EndSplineSet
EndChar

StartChar: j
Encoding: 106 106 74
Width: 263
Flags: HW
HStem: 365 28<17.5928 76.77> 421 20G<169.5 192> 542 124<84.2003 177.8>
VStem: 69 124<557.2 650.8> 90 104<-43.2009 356.638>
LayerCount: 2
Fore
SplineSet
-14 -202 m 1xe8
 16 -180 90 -132 90 54 c 2
 90 282 l 2
 90 294 89 335 83 349 c 0
 75 365 26 368 19 368 c 1
 17 370 16 394 20 396 c 1
 84 402 150 424 189 444 c 1
 195 443 203 431 203 427 c 1
 201 419 194 379 194 365 c 1
 194 354 194 319 194 316 c 1
 194 94 l 1
 194 -44 139 -128 85 -172 c 0
 53 -198 7 -217 -8 -217 c 1
 -12 -214 -14 -206 -14 -202 c 1xe8
69 604 m 0xf0
 69 638 97 666 131 666 c 0
 165 666 193 638 193 604 c 0
 193 570 165 542 131 542 c 0
 97 542 69 570 69 604 c 0xf0
EndSplineSet
EndChar

StartChar: k
Encoding: 107 107 75
Width: 554
Flags: W
HStem: -4 33<18.1719 82.7813 200.219 264.828 484.71 550.418> 4 27<488.154 552.204> 400 32<303.515 360.264 451.781 521.903> 626 29<21.6549 81.048> 674 20G<180 194>
VStem: 90 104<36.3778 202 236 618.938>
LayerCount: 2
Fore
SplineSet
194 130 m 2x7c
 194 94 194 64 200 46 c 0
 204 34 251 29 263 29 c 1
 267 23 267 2 263 -4 c 1
 223 -1 181 2 141 2 c 0
 100 2 60 -1 20 -4 c 1
 16 2 16 23 20 29 c 1xbc
 32 29 79 34 83 46 c 0
 89 64 90 94 90 130 c 2
 90 558 l 2
 90 574 90 594 84 608 c 0
 78 621 43 626 23 626 c 1
 21 626 20 653 24 655 c 1
 105 663 169 684 191 694 c 1
 197 694 204 684 204 678 c 1
 204 678 194 632 194 584 c 1
 193 236 l 1
 210 242 237 262 271 292 c 0
 332 344 361 369 361 381 c 0
 361 395 319 399 305 400 c 1
 301 408 302 430 307 432 c 1
 321 430 384 428 421 428 c 0
 456 428 486 430 520 432 c 1
 525 424 523 404 519 400 c 1
 497 398 455 390 431 374 c 0
 415 362 344 304 284 252 c 1
 357 170 405 118 445 76 c 0
 485 35 521 31 550 31 c 1
 554 24 553 8 551 4 c 1
 539 0 500 -5 468 -5 c 0
 410 -5 360 20 338 46 c 2
 338 46 260 130 207 192 c 0
 203 198 194 202 194 202 c 1
 194 130 l 2x7c
EndSplineSet
EndChar

StartChar: l
Encoding: 108 108 76
Width: 283
Flags: W
HStem: -4 33<17.75 82.7813 200.219 265.25> 626 29<21.6549 81.048> 674 20G<180 194>
VStem: 90 104<36.3778 618.938>
LayerCount: 2
Fore
SplineSet
90 558 m 2
 90 574 90 594 84 608 c 0
 78 621 43 626 23 626 c 1
 21 626 20 653 24 655 c 1
 105 663 169 684 191 694 c 1
 197 694 204 684 204 678 c 1
 204 678 194 632 194 584 c 1
 194 130 l 2
 194 94 194 64 200 46 c 0
 204 34 251 29 263 29 c 1
 267 23 267 2 263 -4 c 1
 223 -1 181 2 141 2 c 0
 100 2 60 -1 20 -4 c 1
 16 2 16 23 20 29 c 1
 32 29 79 34 83 46 c 0
 89 64 90 94 90 130 c 2
 90 558 l 2
EndSplineSet
EndChar

StartChar: m
Encoding: 109 109 77
Width: 838
Flags: W
HStem: -4 33<30.0596 95.0909 212.527 274.56 309.06 370.094 486.529 551.56 586.06 645.096 762.529 827.56> 368 28<29.6177 90.5498> 372 70<279.83 380.089 552.2 679.565>
VStem: 102.31 104<36.3778 344.875> 376.31 104<36.0252 341.913> 652.31 104<36.0252 341.749>
LayerCount: 2
Fore
SplineSet
349.31 442 m 0xbc
 411.31 442 447.31 420 467.31 358 c 1
 511.31 400 576.31 442 623.31 442 c 0
 734.31 442 756.31 370 756.31 218 c 2
 756.31 130 l 2
 756.31 94 756.31 64 762.31 46 c 0
 766.31 34 813.31 29 825.31 29 c 1
 829.31 23 829.31 2 825.31 -4 c 1
 785.31 -1 743.31 2 703.31 2 c 0
 663.31 2 628.31 -1 588.31 -4 c 1
 584.31 2 584.31 23 588.31 29 c 1
 600.31 29 641.31 34 645.31 46 c 0
 651.31 64 652.31 94 652.31 130 c 2
 652.31 224 l 2
 652.31 310 638.31 372 571.31 372 c 0
 527.31 372 475.31 330 475.31 316 c 0
 475.31 314 476.31 309 476.31 307 c 0
 478.31 283 480.31 250 480.31 224 c 2
 480.31 130 l 2
 480.31 94 480.31 64 486.31 46 c 0
 490.31 34 537.31 29 549.31 29 c 1
 553.31 23 553.31 2 549.31 -4 c 1
 509.31 -1 468.31 2 428.31 2 c 0
 388.31 2 351.31 -1 311.31 -4 c 1
 307.31 2 307.31 23 311.31 29 c 1
 323.31 29 366.31 34 370.31 46 c 0
 376.31 64 376.31 94 376.31 130 c 2
 376.31 221 l 2
 376.31 318 358.31 372 296.31 372 c 0xbc
 254.31 372 206.31 333 206.31 317 c 2
 206.31 130 l 2
 206.31 96 206.31 64 212.31 46 c 0
 216.31 34 260.31 29 272.31 29 c 1
 276.31 23 276.31 2 272.31 -4 c 1
 232.31 -1 193.31 2 153.31 2 c 0
 112.31 2 72.3096 -1 32.3096 -4 c 1
 28.3096 2 28.3096 23 32.3096 29 c 1
 44.3096 29 91.3096 34 95.3096 46 c 0
 102.31 64 102.31 94 102.31 130 c 2
 102.31 279 l 2
 102.31 291 102.309570312 335 95.3095703125 349 c 0
 87.3095703125 365 38.3095703125 368 31.3095703125 368 c 1
 29.3095703125 370 27.3095703125 394 31.3095703125 396 c 1xdc
 95.3095703125 402 161.309570312 424 200.309570312 444 c 1
 206.309570312 443 214.309570312 431 214.309570312 427 c 1
 212.309570312 419 206.31 376 206.31 372 c 0
 206.31 370 206.31 367 208.31 367 c 1
 210.31 367 211.31 368 213.31 370 c 0
 239.31 396 299.31 442 349.31 442 c 0xbc
EndSplineSet
EndChar

StartChar: n
Encoding: 110 110 78
Width: 565
Flags: W
HStem: -4 33<30.0596 95.0909 212.527 274.56 313.06 373.095 489.529 555.56> 368 28<29.6177 90.5498> 372 70<282.655 406.785>
VStem: 102.31 104<36.3778 342.871> 379.31 104<36.0252 341.83>
LayerCount: 2
Fore
SplineSet
350.31 442 m 0xb8
 461.31 442 483.31 370 483.31 218 c 2
 483.31 130 l 2
 483.31 94 483.31 64 489.31 46 c 0
 493.31 34 541.31 29 553.31 29 c 1
 557.31 23 557.31 2 553.31 -4 c 1
 513.31 -1 471.31 2 431.31 2 c 0
 391.31 2 355.31 -1 315.31 -4 c 1
 311.31 2 311.31 23 315.31 29 c 1
 327.31 29 369.31 34 373.31 46 c 0
 379.31 64 379.31 94 379.31 130 c 2
 379.31 220 l 2
 379.31 318 363.31 372 297.31 372 c 0xb8
 259.31 372 206.31 331 206.31 317 c 2
 206.31 130 l 2
 206.31 96 206.31 64 212.31 46 c 0
 216.31 34 260.31 29 272.31 29 c 1
 276.31 23 276.31 2 272.31 -4 c 1
 232.31 -1 193.31 2 153.31 2 c 0
 112.31 2 72.3096 -1 32.3096 -4 c 1
 28.3096 2 28.3096 23 32.3096 29 c 1
 44.3096 29 91.3096 34 95.3096 46 c 0
 102.31 64 102 94 102.31 130 c 2
 102.309570312 282 l 2
 102.309570312 294 102.309570312 335 95.3095703125 349 c 0
 87.3095703125 365 38.3095703125 368 31.3095703125 368 c 1
 29.3095703125 370 27.3095703125 394 31.3095703125 396 c 1
 95.3095703125 402 161.309570312 424 200.309570312 444 c 1
 206.309570312 444 214.309570312 432 214.309570312 427 c 1
 212.309570312 419 206.31 374 206.31 370 c 0
 206.31 368 206.31 364 208.31 364 c 1
 210.31 364 211.31 366 213.31 368 c 0xd8
 237.31 395 303.31 442 350.31 442 c 0xb8
EndSplineSet
EndChar

StartChar: o
Encoding: 111 111 79
Width: 520
Flags: W
HStem: -7 38<216.903 321.624> 406 37<196.502 296.477>
VStem: 36 114<115.547 316.005> 369 114<122.777 319.367>
LayerCount: 2
Fore
SplineSet
248 406 m 1
 169 406 150 315 150 235 c 1
 150 143 188 31 270 31 c 1
 349 31 369 122 369 200 c 1
 369 293 329 406 248 406 c 1
258 443 m 0
 393 443 483 349 483 223 c 0
 483 95 386 -7 260 -7 c 0
 124 -7 36 89 36 215 c 0
 36 343 132 443 258 443 c 0
EndSplineSet
EndChar

StartChar: p
Encoding: 112 112 80
Width: 532
Flags: HW
HStem: -222 33<13.2334 78.8272 196.265 261.296> -8 40<212.09 321.022> 365 28<12.7095 74.2861> 377 66<245.011 324.788>
VStem: 86.0459 104<-181.622 1.99707 52.0522 356.638> 382.046 114<136.687 310.686>
LayerCount: 2
Fore
SplineSet
308.046 443 m 0xdc
 430.046 443 496.046 331 496.046 233 c 0
 496.046 92 368.046 -8 257.046 -8 c 0
 230.046 -8 203.046 0 193.046 2 c 1
 191.046 2 190.046 -2 190.046 -12 c 2
 190.046 -88 l 2
 190.046 -124 190.046 -154 196.046 -172 c 0
 200.046 -184 247.046 -189 259.046 -189 c 1
 263.046 -195 263.046 -216 259.046 -222 c 1
 219.046 -219 177.046 -216 137.046 -216 c 0
 96.0459 -216 56.0459 -219 16.0459 -222 c 1
 11.0459 -216 11.0459 -195 16.0459 -189 c 1
 28.0459 -189 75.0459 -184 79.0459 -172 c 0
 85.0459 -154 86 -124 86.0459 -88 c 2
 86.0458984375 282 l 2
 86.0458984375 294 85.0458984375 335 79.0458984375 349 c 0
 71.0458984375 365 22.0458984375 368 15.0458984375 368 c 1
 12.0458984375 370 10.0458984375 394 15.0458984375 396 c 1xec
 78.0458984375 402 145.046 421 184.046 441 c 1
 190.046 440 198.045898438 431 198.045898438 427 c 1
 196.045898438 421 190.046 401 190.046 389 c 0
 190.046 385 191.046 383 193.046 384 c 0
 209.046 400 272.046 443 308.046 443 c 0xdc
259.046 377 m 0xdc
 220.046 377 190.046 354 190.046 344 c 2
 190.046 98 l 2
 190.046 52 235.046 32 270.046 32 c 0
 328.046 32 382.046 99 382.046 197 c 0
 382.046 308 337.046 377 259.046 377 c 0xdc
EndSplineSet
EndChar

StartChar: q
Encoding: 113 113 81
Width: 517
Flags: W
HStem: -222 33<270.75 335.781 453.219 518.25> -8 62<211.614 293.737> 398 44<201.341 319.886>
VStem: 35 113<130.489 291.24> 343 104<-181.622 40.1773 65.621 375.51>
LayerCount: 2
Fore
SplineSet
259 398 m 0
 177 398 148 305 148 239 c 0
 148 139 193 54 273 54 c 0
 311 54 343 76 343 86 c 2
 343 338 l 2
 343 364 307 398 259 398 c 0
293 442 m 0
 327 442 379 418 411 418 c 0
 425 418 433 421 439 423 c 1
 445 422 458 406 458 400 c 1
 451 384 447 350 447 306 c 2
 447 -88 l 2
 447 -124 447 -154 453 -172 c 0
 457 -184 504 -189 516 -189 c 1
 520 -195 520 -216 516 -222 c 1
 476 -219 434 -216 394 -216 c 0
 354 -216 313 -219 273 -222 c 1
 269 -216 269 -195 273 -189 c 1
 285 -189 332 -184 336 -172 c 0
 342 -154 343 -124 343 -88 c 2
 343 28 l 2
 343 34 342 44 336 40 c 0
 321 28 262 -8 217 -8 c 0
 109 -8 35 98 35 196 c 0
 35 343 176 442 293 442 c 0
EndSplineSet
EndChar

StartChar: r
Encoding: 114 114 82
Width: 415
Flags: HW
HStem: -4 33<30.0596 95.0909 212.541 294.56> 354 88<275.75 345.31> 365 28<29.6177 90.5498>
VStem: 102.31 104<37.111 320.999 337.908 356.477>
LayerCount: 2
Fore
SplineSet
332.31 442 m 1xd0
 358.31 442 383.31 433 394.31 419 c 1
 397.31 413 402.31 397 402.31 381 c 0
 402.31 345 377.31 316 355.31 316 c 1
 339.31 316 327.31 330 315.31 338 c 0
 305.31 346 297.31 354 279.31 354 c 1xd0
 237.31 354 206.31 290 206.31 268 c 2
 206.31 130 l 2
 206.31 96 206.31 64 212.31 46 c 0
 216.31 34 280.31 29 292.31 29 c 1
 296.31 23 296.31 2 292.31 -4 c 1
 252.31 -1 196.31 2 156.31 2 c 0
 115.31 2 72.3096 -1 32.3096 -4 c 1
 28.3096 2 28.3096 23 32.3096 29 c 1
 44.3096 29 91.3096 34 95.3096 46 c 0
 102.31 64 102 94 102.31 130 c 2
 102.309570312 282 l 2
 102.309570312 294 102.309570312 335 95.3095703125 349 c 0
 87.3095703125 365 38.3095703125 368 31.3095703125 368 c 1
 29.3095703125 370 27.3095703125 394 31.3095703125 396 c 1xb0
 95.3095703125 402 161.309570312 424 200.309570312 444 c 1
 206.309570312 443 214.309570312 431 214.309570312 427 c 1
 212.309570312 419 206.31 353 206.31 341 c 0
 206.31 337 210.31 336 211.31 338 c 0
 233.31 381 278.31 442 332.31 442 c 1xd0
EndSplineSet
EndChar

StartChar: s
Encoding: 115 115 83
Width: 387
Flags: W
HStem: -10 36<130.952 228.255> 407 36<158.1 255.355>
VStem: 44 98<300.466 378.487> 44 32<86.3546 133.999> 248 100<56.096 138.543>
LayerCount: 2
Fore
SplineSet
210 443 m 0xe8
 253 443 279 432 317 426 c 1
 325 394 334 336 334 310 c 0
 334 306 326 304 320 304 c 0
 314 304 308 306 302 310 c 1
 292 351 262 407 206 407 c 0
 166 407 142 384 142 348 c 0xe8
 142 296 193 281 237 257 c 0
 285 231 348 202 348 128 c 0
 348 38 265 -10 173 -10 c 0
 128 -10 90 3 56 10 c 1
 50 32 44 110 44 128 c 1
 46 132 55 134 60 134 c 0
 65 134 73 132 76 128 c 1xd8
 89 64 138 26 184 26 c 0
 222 26 248 53 248 90 c 0
 248 146 188 162 136 192 c 0
 87 220 44 252 44 312 c 0
 44 399 134 443 210 443 c 0xe8
EndSplineSet
EndChar

StartChar: t
Encoding: 116 116 84
Width: 328
Flags: W
HStem: -7 59<171 264.351> 386 44<21.2377 83 187 310.628>
VStem: 83 104<64.7735 386 430 510.438>
LayerCount: 2
Fore
SplineSet
187 430 m 1
 191 430 291 430 307 430 c 1
 311 430 313 424 313 418 c 0
 313 409 305 394 295 386 c 1
 280 386 203 386 187 386 c 1
 187 131 l 2
 187 78 206 52 246 52 c 0
 273 52 300 72 305 76 c 1
 307 74 310 69 310 65 c 0
 310 59 306 50 304 48 c 0
 292 35 249 -7 199 -7 c 0
 143 -7 83 21 83 120 c 2
 83 386 l 1
 69 386 31 386 18 386 c 1
 14 387 13 393 13 397 c 1
 18 406 36 424 42 430 c 1
 56 430 73 430 83 430 c 1
 83 436 83 474 83 488 c 1
 111 515 149 557 165 574 c 1
 173 580 187 580 187 575 c 1
 187 548 187 456 187 430 c 1
EndSplineSet
EndChar

StartChar: u
Encoding: 117 117 85
Width: 539
Flags: HW
HStem: -8 21G<358.639 364.139> 24 30<465.404 518.284> 48 4<273.639 349.639> 376 28<11.5037 67.1723 282.03 335.307> 421 20G<161.139 182.639 432.139 453.639>
VStem: 81.6387 104<87.9368 366.211> 351.639 104<70.0939 366.211>
LayerCount: 2
Fore
SplineSet
351.638671875 291 m 2xbe
 351.638671875 303 351.638671875 344 343.638671875 359 c 0
 334.638671875 375 293.638671875 379 283.638671875 379 c 1
 280.638671875 381 280.638671875 405 284.638671875 407 c 1
 348.638671875 411 413.638671875 429 450.638671875 444 c 1
 456.638671875 443 464.638671875 429 464.638671875 425 c 1
 460.638671875 417 455.639 384 455.639 362 c 1
 455.639 351 455.639 310 455.639 307 c 1
 455.639 124 l 2
 455.639 111 455.639 87 463.639 68 c 0
 470.639 54 509.639 54 515.639 54 c 1
 517.639 52 518.639 47 518.639 42 c 0
 518.639 38 515.639 27 511.639 24 c 1xde
 455.639 20 367.639 -8 360.639 -8 c 0
 356.639 -8 351.639 1 351.639 12 c 2
 351.639 44 l 2
 351.639 48 351.639 49 349.639 48 c 1
 327.639 28 267.639 -6 207.639 -6 c 1
 105.639 -6 82 94 81.6387 183 c 2
 81.638671875 291 l 2
 81.638671875 303 80.638671875 344 72.638671875 359 c 0
 63.638671875 375 23.638671875 379 13.638671875 379 c 1
 10.638671875 381 9.638671875 405 13.638671875 407 c 1
 77.638671875 411 142.638671875 429 179.638671875 444 c 1
 185.638671875 443 193.638671875 429 193.638671875 425 c 1
 189.638671875 417 185.639 384 185.639 362 c 1
 185.639 351 185.639 311 185.639 308 c 1
 185.639 212 l 2
 185.639 106 207.639 52 273.639 52 c 0
 309.639 52 352 78 351.639 98 c 2
 351.638671875 291 l 2xbe
EndSplineSet
EndChar

StartChar: v
Encoding: 118 118 86
Width: 502
Flags: W
HStem: -11 21G<240 246.5> 404 33<-1.15332 49.0804 177.91 233.247 308.86 368.953 445.574 503.811>
LayerCount: 2
Fore
SplineSet
119 430 m 0
 159 430 200 435 232 437 c 1
 236 431 235 407 230 404 c 1
 220 404 176 398 176 382 c 0
 176 380 175 376 177 372 c 0
 195 337 284 138 284 138 c 1
 284 138 332 256 368 340 c 0
 373 351 376 365 376 374 c 0
 376 396 333 404 312 404 c 1
 307 406 307 431 311 437 c 1
 341 434 364 430 404 430 c 0
 444 430 475 435 503 437 c 1
 507 431 505 408 501 404 c 1
 491 404 442 398 429 370 c 1
 399 300 306 97 277 26 c 1
 265 2 251 -11 242 -11 c 0
 238 -11 233 -7 231 -5 c 1
 169 132 121 248 60 374 c 1
 48 400 11 404 1 404 c 1
 -3 410 -3 429 1 437 c 1
 35 435 79 430 119 430 c 0
EndSplineSet
EndChar

StartChar: w
Encoding: 119 119 87
Width: 755
Flags: W
HStem: -11 21G<238 245 502 508> 404 33<-1.15332 49.0804 180.793 232.619 279.75 324.534 461.16 512.25 563.381 625.622 699.281 756.125>
VStem: 353 102<314.225 381.691>
LayerCount: 2
Fore
SplineSet
115 430 m 0
 155 430 199 435 231 437 c 1
 235 431 234 408 230 404 c 1
 220 404 176 397 176 378 c 0
 176 376 176 371 179 364 c 0
 203 313 251 210 279 144 c 1
 305 208 353 319 353 331 c 0
 353 340 344 363 336 375 c 0
 323 397 293 404 283 404 c 1
 277 410 278 431 282 437 c 1
 322 433 355 430 395 430 c 1
 435 430 478 435 510 437 c 1
 514 431 514 409 510 404 c 1
 488 404 455 394 455 374 c 0
 455 371 455 366 457 361 c 0
 477 312 517 221 545 150 c 1
 565 199 600 285 623 343 c 0
 627 354 631 366 631 374 c 0
 631 401 582 403 566 404 c 1
 562 408 561 431 565 437 c 1
 601 434 621 430 661 430 c 0
 701 430 727 435 755 437 c 1
 757 433 759 410 753 404 c 1
 743 404 697 400 685 370 c 0
 629 236 597 159 539 25 c 0
 529 1 512 -11 504 -11 c 0
 500 -11 494 -7 492 -5 c 1
 492 -5 397 240 381 279 c 1
 365 240 277 26 277 26 c 2
 268 5 250 -11 240 -11 c 0
 236 -11 231 -7 229 -5 c 1
 163 147 127 231 60 374 c 1
 48 400 11 404 1 404 c 1
 -3 411 -3 431 1 437 c 1
 35 435 75 430 115 430 c 0
EndSplineSet
EndChar

StartChar: x
Encoding: 120 120 88
Width: 519
Flags: W
HStem: -4 33<8.87306 72.441 160.284 222.292 271.52 317.739 456.669 511.389> 404 33<18.8887 75.962 208.666 254.827 288.52 351.109 427.565 495.343>
LayerCount: 2
Fore
SplineSet
139.139 430 m 1
 181.139 430 229.139 435 253.139 437 c 1
 256.139 433 257.139 410 252.139 404 c 1
 238.139 404 208.139 400 208.139 384 c 0
 208.139 381 211.139 376 215.139 371 c 2
 280.139 278 l 1
 308.139 314 354.139 366 354.139 380 c 0
 354.139 402 298.139 404 291.139 404 c 1
 287.139 407 286.139 431 290.139 437 c 1
 326.139 434 353.139 430 393.139 430 c 0
 432.139 430 479.139 435 494.139 437 c 1
 496.139 432 497.139 408 493.139 404 c 1
 474.139 404 433.139 399 413.139 376 c 0
 377.139 332 335.139 277 306.139 243 c 1
 338.139 201 410.139 98 437.139 64 c 1
 457.139 36 491.139 29 509.139 29 c 1
 513.139 25 513.139 1 509.139 -4 c 1
 471.139 0 430.139 2 392.139 2 c 1
 350.139 2 307.139 -2 273.139 -4 c 1
 269.139 2 270.139 26 274.139 29 c 1
 287.139 29 319.139 36 319.139 50 c 0
 319.139 52 315.139 56 313.139 60 c 2
 313.139 60 252.139 146 238.139 166 c 1
 217.139 140 186.139 104 164.139 71 c 0
 159.139 64 157.139 58 157.139 54 c 0
 157.139 32 204.139 30 220.139 29 c 1
 224.139 27 224.139 2 220.139 -4 c 1
 186.139 -1 159.139 2 120.139 2 c 0
 80.1387 2 37.1387 -2 10.1387 -4 c 1
 7.13867 2 7.13867 23 11.1387 29 c 1
 36.1387 31 76.1387 39 100.139 66 c 1
 125.139 90 185.139 173 212.139 202 c 1
 182.139 242 116.139 342 89.1387 376 c 1
 73.1387 397 35.1387 404 21.1387 404 c 1
 17.1387 408 17.1387 431 21.1387 437 c 1
 57.1387 433 100.139 430 139.139 430 c 1
EndSplineSet
EndChar

StartChar: y
Encoding: 121 121 89
Width: 501
Flags: W
HStem: -223 86<31.2948 135.488> 404 33<-0.27239 49.7191 177.549 232.886 307.36 367.436 444.213 502.258>
LayerCount: 2
Fore
SplineSet
118.639 430 m 0
 158.639 430 210.639 435 231.639 437 c 1
 235.639 431 234.639 407 229.639 404 c 1
 219.639 404 175.639 398 175.639 382 c 0
 175.639 380 175.639 376 177.639 372 c 0
 195.639 337 281.639 138 281.639 138 c 1
 281.639 138 329.639 256 365.639 340 c 0
 370.639 351 374.639 365 374.639 374 c 0
 374.639 396 330.639 404 309.639 404 c 1
 304.639 406 305.639 431 309.639 437 c 1
 331.639 434 366.639 430 406.639 430 c 0
 446.639 430 482.639 435 500.639 437 c 1
 504.639 431 503.639 408 499.639 404 c 1
 489.639 404 440.639 398 427.639 370 c 1
 397.639 300 330.639 153 270.639 16 c 0
 242.639 -47 220.639 -101 184.639 -152 c 0
 150.639 -197 110.639 -223 80.6387 -223 c 0
 49.6387 -223 23.6387 -207 23.6387 -175 c 1
 23.6387 -157 32.6387 -145 41.6387 -137 c 1
 104.639 -137 144.639 -122 180.639 -70 c 0
 198.639 -45 213.639 -4 221.639 16 c 1
 173.639 129 90.6387 310 60.6387 374 c 1
 48.6387 400 11.6387 404 1.63867 404 c 1
 -2.36133 408 -1.36133 433 1.63867 437 c 1
 24.6387 435 78.6387 430 118.639 430 c 0
EndSplineSet
EndChar

StartChar: z
Encoding: 122 122 90
Width: 453
Flags: W
HStem: 0 40<157 341.342> 390 40<107.872 275> 418 19G<55.5 149 386.5 409.5>
VStem: 391 36<96.0098 140.88>
LayerCount: 2
Fore
SplineSet
149 430 m 2xd0
 282 430 l 2
 336 430 366 433 407 438 c 1
 412 430 411 419 411 414 c 1
 411 414 157 42 157 40 c 1
 283 40 l 2
 344 40 381 96 391 136 c 0
 392 141 397 142 401 142 c 0
 411 142 424 136 427 132 c 1
 421 112 392 23 384 0 c 1
 355 0 110 0 44 0 c 1
 40 1 31 10 31 18 c 0
 31 21 32 28 34 30 c 2
 275 388 l 1
 275 388 169 390 153 390 c 1xd0
 99 390 84 334 74 308 c 0
 72 304 61 300 51 300 c 0
 45 300 40 301 40 303 c 1
 44 319 54 384 57 437 c 1xb0
 57 437 113 430 149 430 c 2xd0
EndSplineSet
EndChar

StartChar: braceleft
Encoding: 123 123 91
Width: 259
Flags: W
HStem: -144 22<209.9 222.609> 718 22<209.9 222.609>
VStem: 68 79<-39.4355 85.9241 510.394 635.435> 105 80<110.474 236.393 359.607 487.068>
LayerCount: 2
Fore
SplineSet
105 404 m 0xd0
 105 432 94 455 85 481 c 0
 76 503 68 526 68 554 c 0
 68 654 168 730 214 740 c 1
 220 740 229 726 226 718 c 1
 198 704 147 657 147 599 c 0xe0
 147 560 157 540 167 516 c 0
 176 495 185 471 185 432 c 0
 185 356 118 303 87 298 c 1
 118 293 185 240 185 164 c 0xd0
 185 125 176 101 167 80 c 0
 157 56 147 36 147 -3 c 0
 147 -61 198 -108 226 -122 c 1
 229 -130 220 -144 214 -144 c 1
 168 -134 68 -58 68 42 c 0xe0
 68 73 78 98 87 122 c 0
 96 145 105 166 105 192 c 0
 105 245 63 275 23 287 c 1
 21 289 20 294 20 298 c 0
 20 302 21 307 23 309 c 1
 63 321 105 351 105 404 c 0xd0
EndSplineSet
EndChar

StartChar: bar
Encoding: 124 124 92
Width: 204
Flags: W
VStem: 76.2646 52.0004<-117.716 764.903>
LayerCount: 2
Fore
SplineSet
128.265 -107 m 2
 128.265 -115 83.2646 -123 81.2646 -123 c 0
 74.2646 -123 76.2646 -119 76.2646 -115 c 2
 76.2646 757 l 1
 76.2646 757 75.2646 763 81.2646 765 c 0
 98.2646 770 116.265 771 119.265 771 c 0
 128.265 771 127.265 765 127.265 765 c 1
 128.265 -107 l 2
EndSplineSet
EndChar

StartChar: braceright
Encoding: 125 125 93
Width: 259
Flags: W
HStem: -144 22<37.4727 50.1174> 718 22<37.4727 50.1174>
VStem: 74.6514 80.9996<109.518 236.393 359.607 486.436> 112.651 79<-39.4355 86.6099 512.409 635.435>
LayerCount: 2
Fore
SplineSet
45.6514 740 m 1xd0
 91.6514 730 191.651 654 191.651 554 c 0xd0
 191.651 525 183.651 501 174.651 478 c 0
 165.651 454 155.651 431 155.651 404 c 0
 155.651 351 197.651 321 237.651 309 c 1
 239.651 307 239.651 302 239.651 298 c 0
 239.651 294 239.651 289 237.651 287 c 1
 197.651 275 155.651 245 155.651 192 c 0xe0
 155.651 166 164.651 144 173.651 121 c 0
 182.651 97 191.651 72 191.651 42 c 0
 191.651 -58 91.6514 -134 45.6514 -144 c 1
 39.6514 -144 31.6514 -130 34.6514 -122 c 1
 61.6514 -108 112.651 -61 112.651 -3 c 0xd0
 112.651 35 103.651 56 93.6514 79 c 0
 84.6514 100 74.6514 124 74.6514 164 c 0
 74.6514 240 142.651 293 173.651 298 c 1
 142.651 303 74.6514 356 74.6514 432 c 0xe0
 74.6514 476 84.6514 499 94.6514 522 c 0
 103.651 544 112.651 564 112.651 599 c 0
 112.651 657 61.6514 704 34.6514 718 c 1
 31.6514 726 39.6514 740 45.6514 740 c 1xd0
EndSplineSet
EndChar

StartChar: asciitilde
Encoding: 126 126 94
Width: 558
Flags: W
HStem: 244 56<318.397 459.277> 304 56<105.107 248.054>
LayerCount: 2
Fore
SplineSet
265 275 m 0
 230 289 192 304 147 304 c 0
 108 304 77 278 59 259 c 1
 55 261 51 266 51 272 c 1
 51 310 121 360 177 360 c 0
 224 360 263 344 299 330 c 0
 333 316 371 300 417 300 c 0
 456 300 485 326 505 346 c 1
 509 344 513 339 513 333 c 1
 513 297 448 244 388 244 c 0
 340 244 301 261 265 275 c 0
EndSplineSet
EndChar

StartChar: exclamdown
Encoding: 161 161 96
Width: 231
Flags: W
HStem: 306 130<67.3971 163.697>
VStem: 51 130<322.747 418.697> 59 111<-202.702 74.584>
LayerCount: 2
Fore
SplineSet
51 372 m 0xc0
 51 407 79 436 115 436 c 1
 151 436 181 406 181 370 c 0
 181 335 151 306 115 306 c 1
 79 306 51 337 51 372 c 0xc0
111 -216 m 0
 80 -216 59 -188 59 -154 c 0
 59 -126 80 60 97 229 c 1
 101 239 105 246 115 248 c 1
 120 247 129 242 133 234 c 1
 145 120 170 -103 170 -154 c 0xa0
 170 -189 145 -216 111 -216 c 0
EndSplineSet
EndChar

StartChar: cent
Encoding: 162 162 97
Width: 464
Flags: W
HStem: -8 75<241.897 335.943> 395 48<200.312 318.5>
VStem: 44 102<142.567 291.23> 277 32<432.48 474.748>
LayerCount: 2
Fore
SplineSet
277 476 m 17
 285 476 309 477 309 470 c 1
 225 -42 l 1
 216 -42 195 -40 193 -34 c 9
 277 476 l 17
407 385 m 0
 407 351 385 329 359 329 c 1
 335 329 315 356 299 370 c 0
 280 386 263 395 237 395 c 0
 189 395 146 325 146 242 c 0
 146 114 222 67 299 67 c 0
 355 67 391 98 408 117 c 1
 412 116 418 108 418 101 c 1
 418 95 415 86 413 82 c 0
 395 54 336 -8 250 -8 c 0
 133 -8 44 79 44 197 c 0
 44 331 175 443 296 443 c 0
 341 443 373 434 391 422 c 1
 397 415 407 401 407 385 c 0
EndSplineSet
EndChar

StartChar: sterling
Encoding: 163 163 98
Width: 475
Flags: W
HStem: -8 84<264.956 364.427> 50 71<112.489 226> 306 39<62.2561 378.322> 585 51<237.409 331.5>
VStem: 111 91<346.107 496.25> 138 94<191.571 304.652>
LayerCount: 2
Fore
SplineSet
314 636 m 0x78
 349 636 364 627 386 613 c 1
 390 609 395 593 395 583 c 0
 395 547 374 530 352 530 c 1
 327 530 313 547 300 561 c 0
 286 575 277 585 261 585 c 0
 215 585 202 528 202 459 c 0x78
 202 385 232 334 232 278 c 0
 232 203 178 133 153 110 c 1
 169 118 186 121 203 121 c 0x74
 249 121 273 76 343 76 c 0
 389 76 416 124 424 140 c 1
 426 141 436 134 438 128 c 0
 440 123 440 118 439 112 c 1
 428 80 377 -8 299 -8 c 0xb4
 222 -8 190 50 127 50 c 0
 99 50 77 10 60 -6 c 1
 52 -6 44 7 44 16 c 0
 44 45 80 78 94 94 c 0
 120 122 138 183 138 232 c 0x74
 138 268 111 362 111 392 c 0
 109 528 220 636 314 636 c 0x78
72 345 m 1
 88 345 370 345 381 345 c 1
 395 334 378 310 372 306 c 1
 50 306 l 17
 44 312 63 345 72 345 c 1
EndSplineSet
EndChar

StartChar: currency
Encoding: 164 164 99
Width: 569
Flags: W
HStem: 120 36<243.099 338.501> 460 36<229.62 322.349>
VStem: 100 83<220.761 397.067> 383 82<217.214 393.742>
LayerCount: 2
Fore
SplineSet
292 156 m 0
 348 156 383 219 383 294 c 0
 383 386 334 460 276 460 c 0
 220 460 183 394 183 319 c 0
 183 227 234 156 292 156 c 0
396 455 m 1
 456 510 l 2
 464 518 489 490 496 466 c 1
 436 410 l 1
 454 380 465 344 465 307 c 0
 465 267 453 230 432 199 c 1
 486 141 l 2
 494 133 466 107 442 100 c 1
 390 155 l 1
 360 133 324 120 284 120 c 0
 241 120 201 135 170 160 c 1
 118 110 l 2
 110 102 83 130 76 154 c 1
 130 205 l 1
 111 235 100 270 100 307 c 0
 100 351 114 391 138 423 c 1
 86 479 l 2
 78 487 106 513 130 520 c 1
 182 465 l 1
 211 485 246 496 284 496 c 0
 327 496 365 481 396 455 c 1
EndSplineSet
EndChar

StartChar: yen
Encoding: 165 165 100
Width: 681
Flags: W
HStem: -4 33<205.136 274.164 400.608 469.636> 144 40<193.583 487.883> 224 40<193.583 487.883> 608 33<27.9951 83.7199 242.426 300.198 432.026 503.125 585.42 653.834>
VStem: 280.386 114<36.3778 306.217>
LayerCount: 2
Fore
SplineSet
202.386 184 m 1
 218.386 184 480.386 184 491.386 184 c 1
 505.386 173 487.386 148 481.386 144 c 1
 182.386 144 l 17
 176.386 150 193.386 184 202.386 184 c 1
202.386 264 m 1
 218.386 264 480.386 264 491.386 264 c 1
 505.386 253 487.386 228 481.386 224 c 1
 182.386 224 l 17
 176.386 230 193.386 264 202.386 264 c 1
280.386 130 m 2
 280.386 254 l 1
 280.386 258 279.386 268 275.386 276 c 0
 236.386 352 170.386 469 140.386 522 c 1
 122.386 554 112.386 566 92.3857 584 c 0
 76.3857 602 42.3857 608 30.3857 608 c 1
 25.3857 612 26.3857 635 30.3857 641 c 1
 74.3857 638 119.386 636 164.386 636 c 0
 210.386 636 258.386 638 298.386 641 c 1
 301.386 635 302.386 612 297.386 608 c 1
 283.386 608 237.386 605 237.386 579 c 0
 237.386 573 240.386 566 246.386 556 c 2
 375.386 328 l 1
 402.386 370 476.386 508 504.386 564 c 0
 506.386 570 508.386 578 508.386 584 c 0
 508.386 596 468.386 608 434.386 608 c 1
 430.386 612 430.386 637 433.386 641 c 1
 475.386 638 499.386 635 541.386 635 c 0
 589.386 635 612.386 639 652.386 641 c 1
 655.386 635 655.386 612 651.386 608 c 1
 641.386 608 589.386 608 570.386 576 c 0
 541.386 528 435.386 347 400.386 278 c 0
 395.386 269 395.386 259 395.386 254 c 1
 395.386 224 394.386 130 394.386 130 c 2
 394.386 94 394.386 64 400.386 46 c 0
 404.386 34 455.386 29 467.386 29 c 1
 471.386 23 471.386 2 467.386 -4 c 1
 427.386 -1 377.386 2 337.386 2 c 0
 297.386 2 247.386 -1 207.386 -4 c 1
 203.386 2 203.386 23 207.386 29 c 1
 219.386 29 270.386 34 274.386 46 c 0
 280.386 64 280.386 94 280.386 130 c 2
EndSplineSet
EndChar

StartChar: brokenbar
Encoding: 166 166 101
Width: 211
Flags: W
VStem: 80.2646 52.0004<-118.239 256.903 389.761 764.903>
LayerCount: 2
Fore
SplineSet
132.265 400 m 2
 132.265 392 87.2646 385 85.2646 385 c 0
 78.2646 385 80.2646 389 80.2646 393 c 2
 80.2646 757 l 1
 80.2646 757 79.2646 763 85.2646 765 c 0
 102.265 770 121.265 770 124.265 770 c 0
 133.265 770 132.265 764 132.265 764 c 1
 132.265 400 l 2
80.2646 -115 m 2
 80.2646 249 l 1
 80.2646 249 79.2646 255 85.2646 257 c 0
 102.265 262 121.265 262 124.265 262 c 0
 133.265 262 132.265 256 132.265 256 c 1
 132.265 -108 l 2
 132.265 -116 87.2646 -123 85.2646 -123 c 0
 78.2646 -123 80.2646 -119 80.2646 -115 c 2
EndSplineSet
EndChar

StartChar: section
Encoding: 167 167 102
Width: 454
Flags: W
HStem: -85 50<135 239.205> 603 50<214.334 319>
VStem: 37 62<350.428 460.192> 122 52<461 568> 280 52<0 107> 355 62<107.754 217.572>
LayerCount: 2
Fore
SplineSet
312 653 m 0
 326 653 344 648 358 642 c 1
 363 632 364 620 364 614 c 0
 364 596 349 576 327 576 c 0
 309 576 298 586 288 592 c 0
 280 598 268 603 253 603 c 0
 222 603 174 587 174 549 c 0
 174 503 253 427 300 384 c 0
 358 330 417 271 417 182 c 0
 417 106 318 -8 280 -34 c 9
 282 -22 278 -14 284 -3 c 24
 292 15 316 35 316 35 c 0
 339 69 355 88 355 132 c 0
 355 215 296 278 242 328 c 0
 194 372 122 426 122 496 c 0
 122 576 200 653 312 653 c 0
142 -85 m 0
 128 -85 109 -80 96 -74 c 1
 92 -66 90 -54 90 -48 c 0
 90 -30 106 -8 128 -8 c 0
 146 -8 158 -19 168 -26 c 0
 176 -32 187 -35 202 -35 c 0
 233 -35 280 -19 280 19 c 0
 280 65 202 141 155 184 c 0
 97 238 37 297 37 386 c 0
 37 462 136 576 174 602 c 9
 172 590 176 582 170 571 c 24
 162 553 139 532 139 532 c 0
 115 498 99 480 99 436 c 0
 99 353 158 290 212 240 c 0
 260 196 332 142 332 72 c 0
 332 -8 254 -85 142 -85 c 0
EndSplineSet
EndChar

StartChar: dieresis
Encoding: 168 168 103
Width: 372
Flags: W
HStem: 457 116<42.6616 134.236 239.255 330.338>
VStem: 29 118<470.662 559.745> 226 118<470.662 559.745>
LayerCount: 2
Fore
SplineSet
285 573 m 1
 317 573 344 547 344 515 c 1
 344 483 316 457 284 457 c 1
 252 457 226 484 226 516 c 1
 226 548 253 573 285 573 c 1
88 573 m 1
 120 573 147 547 147 515 c 1
 147 483 120 457 88 457 c 1
 56 457 29 484 29 516 c 1
 29 548 56 573 88 573 c 1
EndSplineSet
EndChar

StartChar: copyright
Encoding: 169 169 104
Width: 656
Flags: W
HStem: 54 38<238.027 420.321> 179 28<301.149 400.127> 439 30<293.634 393.413> 561 38<238.027 417.158>
VStem: 55 39<233.38 418.76> 185 64<249.48 398.253> 423 22<232.518 266.303 382.695 405.75> 563 38<236.527 415.605>
LayerCount: 2
Fore
SplineSet
449 264 m 1
 449 260 436 204 430 202 c 0
 401 191 369 179 329 179 c 0
 246 179 185 236 185 320 c 0
 185 404 251 469 331 469 c 0
 359 469 401 461 430 452 c 1
 430 450 445 394 445 390 c 0
 445 386 435 382 429 382 c 1
 427 382 425 382 423 384 c 1
 419 398 402 439 338 439 c 0
 282 439 249 384 249 328 c 0
 249 256 293 207 345 207 c 0
 373 207 395 215 407 226 c 0
 421 240 427 266 429 268 c 1
 433 268 447 266 449 264 c 1
94 326 m 0
 94 196 198 92 328 92 c 0
 458 92 563 196 563 326 c 0
 563 456 458 561 328 561 c 0
 198 561 94 456 94 326 c 0
55 326 m 0
 55 477 176 599 327 599 c 0
 478 599 601 477 601 326 c 0
 601 175 478 54 327 54 c 0
 176 54 55 175 55 326 c 0
EndSplineSet
EndChar

StartChar: ordfeminine
Encoding: 170 170 105
Width: 366
Flags: W
HStem: 248 42<130.422 185.919 254 313.536> 526 30<132.876 220.016>
VStem: 45 78<297.135 375.549> 54 68<451.292 501.716> 213 74<296.645 402 432.185 515.321>
LayerCount: 2
Fore
SplineSet
168 290 m 0xe8
 188 290 213 310 213 316 c 2
 213 402 l 1
 197 396 170 389 156 382 c 0
 134 371 123 356 123 336 c 0
 123 308 146 290 168 290 c 0xe8
194 556 m 0
 244 556 287 514 287 457 c 2
 287 323 l 2
 287 305 294 294 306 294 c 0
 317 294 327 302 329 303 c 1
 331 303 334 297 334 294 c 1
 334 290 332 284 330 281 c 1
 321 273 288 250 265 250 c 0
 243 250 222 270 216 288 c 1
 208 282 158 248 133 248 c 0
 83 248 45 288 45 330 c 0xe8
 45 357 65 379 81 385 c 0
 114 397 181 421 209 432 c 1
 213 436 213 437 213 445 c 2
 213 464 l 2
 213 496 194 526 162 526 c 0
 136 526 128 508 122 480 c 0
 118 460 106 449 85 449 c 0
 67 449 54 464 54 480 c 0xd8
 54 486 57 496 61 502 c 1
 76 516 136 556 194 556 c 0
EndSplineSet
EndChar

StartChar: guillemotleft
Encoding: 171 171 106
Width: 490
Flags: W
LayerCount: 2
Fore
SplineSet
207 247 m 0
 207 255 209 258 213 264 c 1
 344 343 420 421 423 423 c 1
 434 420 444 414 447 408 c 1
 442 394 348 286 306 248 c 1
 348 210 442 102 447 88 c 1
 444 82 434 75 423 72 c 1
 420 74 344 153 213 232 c 1
 210 236 207 241 207 247 c 0
23 247 m 0
 23 255 25 258 29 264 c 1
 160 343 236 421 239 423 c 1
 250 420 260 414 263 408 c 1
 258 394 165 286 123 248 c 1
 165 210 258 102 263 88 c 1
 260 82 250 75 239 72 c 1
 236 74 160 153 29 232 c 1
 26 236 23 241 23 247 c 0
EndSplineSet
EndChar

StartChar: logicalnot
Encoding: 172 172 107
Width: 588
Flags: W
HStem: 363 57<49.5596 452>
VStem: 452 66<161.822 363>
LayerCount: 2
Fore
SplineSet
518 420 m 17
 518 169 l 1
 517 168 486 157 465 157 c 0
 460 157 454 161 452 164 c 1
 452 175 452 305 452 363 c 1
 52 363 l 1
 52 363 46 363 46 373 c 1
 46 373 50 420 60 420 c 2
 518 420 l 17
EndSplineSet
EndChar

StartChar: registered
Encoding: 174 174 108
Width: 654
Flags: W
HStem: 111 38<237.027 416.158> 253 15<201.553 230.597 289.397 317.447 452.63 475> 379 19<286 308.311> 509 18<201.748 230.892 288.101 337.48> 618 39<237.027 419.321>
VStem: 54 39<291.24 476.682> 233 53<276.332 379 398 504.668> 359 55<408.309 501.686> 562 38<294.395 473.526>
LayerCount: 2
Fore
SplineSet
323 527 m 0
 367 527 414 501 414 453 c 0
 414 421 380 394 356 386 c 1
 382 348 409 316 423 299 c 0
 444 275 462 270 475 269 c 1
 477 266 475 254 475 253 c 1
 455 253 431 254 419 255 c 0
 401 256 386 264 372 282 c 0
 369 286 320 352 307 373 c 0
 306 375 301 379 297 379 c 0
 295 379 288 379 286 379 c 1
 286 310 l 1
 286 295 286 283 289 276 c 0
 291 271 311 268 316 268 c 1
 318 265 318 255 316 253 c 1
 299 254 278 256 261 256 c 0
 244 256 220 254 203 253 c 1
 201 255 201 265 203 268 c 1
 208 268 229 271 231 276 c 0
 234 283 233 295 233 310 c 2
 233 471 l 2
 233 486 234 498 231 505 c 0
 229 510 208 512 203 512 c 1
 201 515 201 525 203 527 c 1
 221 526 245 526 262 526 c 0
 279 526 299 527 323 527 c 0
359 447 m 0
 359 482 346 509 309 509 c 0
 302 509 290 509 288 505 c 0
 286 500 286 489 286 476 c 2
 286 398 l 1
 286 398 300 398 304 398 c 0
 335 398 359 415 359 447 c 0
93 384 m 0
 93 254 197 149 327 149 c 0
 457 149 562 254 562 384 c 0
 562 514 457 618 327 618 c 0
 197 618 93 514 93 384 c 0
54 384 m 0
 54 535 175 657 326 657 c 0
 477 657 600 535 600 384 c 0
 600 233 477 111 326 111 c 0
 175 111 54 233 54 384 c 0
EndSplineSet
EndChar

StartChar: macron
Encoding: 175 175 109
Width: 476
Flags: W
HStem: 548 48<560.328 781.903>
VStem: 559 228<548.001 596>
LayerCount: 2
Fore
SplineSet
559 558 m 0
 559 560 560 596 571 596 c 2
 782 596 l 2
 784 596 787 596 787 590 c 0
 787 585 787 574 782 556 c 0
 780 550 774 548 774 548 c 1
 565 548 l 1
 565 548 559 548 559 558 c 0
EndSplineSet
EndChar

StartChar: degree
Encoding: 176 176 110
Width: 284
Flags: W
HStem: 431 42<96.5141 188.746> 600 41<97.0395 188.244>
VStem: 37 42<490.398 581.864> 205 42<489.884 583.529>
LayerCount: 2
Fore
SplineSet
79 536 m 0
 79 501 108 473 143 473 c 0
 178 473 205 501 205 536 c 0
 205 571 178 600 143 600 c 0
 108 600 79 571 79 536 c 0
37 536 m 0
 37 594 85 641 143 641 c 0
 201 641 247 594 247 536 c 0
 247 478 201 431 143 431 c 0
 85 431 37 478 37 536 c 0
EndSplineSet
EndChar

StartChar: plusminus
Encoding: 177 177 111
Width: 585
Flags: W
HStem: 8 57<54.7524 528.329> 306 57<54.7524 262 319 528.329>
VStem: 262 57<97.3338 306 363 570.111>
LayerCount: 2
Fore
SplineSet
64 65 m 1
 104 65 498 65 522 65 c 1
 527 65 532 59 532 52 c 0
 532 33 524 17 516 8 c 1
 57 8 l 1
 55 8 51 10 51 20 c 0
 51 24 55 55 64 65 c 1
64 363 m 1
 262 363 l 1
 262 363 262 552 262 562 c 1
 276 570 298 573 304 573 c 0
 314 573 319 570 319 566 c 1
 319 363 l 1
 359 363 482 363 522 363 c 1
 527 363 532 357 532 350 c 0
 532 331 524 315 516 306 c 1
 319 306 l 1
 319 306 319 144 319 106 c 1
 307 98 284 94 274 94 c 0
 268 94 262 99 262 103 c 2
 262 306 l 1
 57 306 l 1
 55 306 51 308 51 318 c 0
 51 322 55 353 64 363 c 1
EndSplineSet
EndChar

StartChar: uni00B2
Encoding: 178 178 112
Width: 354
Flags: W
HStem: 254 63<122 276> 596 49<111.587 199.985>
VStem: 215 80<472.021 580.76> 293 22<349.427 375.683>
LayerCount: 2
Fore
SplineSet
315 371 m 1xd0
 306 342 286 276 277 254 c 1
 48 254 l 1
 44 256 38 263 38 267 c 1
 82 315 123 356 168 414 c 0
 199 455 215 491 215 528 c 0
 215 569 188 596 150 596 c 0
 106 596 83 560 71 546 c 1
 67 544 55 554 55 562 c 1
 72 594 120 645 178 645 c 0
 248 645 295 605 295 539 c 0xe0
 295 495 266 457 232 421 c 0
 204 391 164 355 122 317 c 1
 238 317 l 2
 274 317 285 356 293 372 c 0
 294 374 297 376 301 376 c 0
 305 376 312 374 315 371 c 1xd0
EndSplineSet
EndChar

StartChar: uni00B3
Encoding: 179 179 113
Width: 328
Flags: W
HStem: 247 28<112.173 188.846> 443 24<102.053 141.831> 602 42<103.461 182.112>
VStem: 194 68<508.986 590.914> 215 77<314.074 422.4>
LayerCount: 2
Fore
SplineSet
171 644 m 0xf0
 210 644 262 620 262 564 c 0xf0
 262 512 219 489 197 482 c 1
 220 482 292 452 292 382 c 0
 292 294 205 247 123 247 c 0
 92 247 59 255 48 265 c 1
 46 268 37 279 37 290 c 0
 37 308 51 324 69 324 c 0
 86 324 95 308 107 294 c 0
 117 281 133 275 149 275 c 0
 189 275 215 303 215 361 c 0xe8
 215 409 182 448 143 448 c 0
 132 448 115 445 107 443 c 1
 105 446 102 451 102 456 c 0
 102 459 102 465 103 467 c 1
 143 474 194 497 194 547 c 0
 194 577 171 602 139 602 c 0
 104 602 76 572 71 566 c 1
 67 568 58 577 60 583 c 1
 78 609 121 644 171 644 c 0xf0
EndSplineSet
EndChar

StartChar: acute
Encoding: 180 180 114
Width: 362
Flags: W
HStem: 524 162
VStem: 274 170
LayerCount: 2
Fore
SplineSet
402 686 m 0
 437 686 444 666 444 660 c 0
 444 621 299 524 289 524 c 0
 282 524 274 534 274 540 c 0
 274 546 332 636 368 678 c 0
 373 683 388 686 402 686 c 0
EndSplineSet
EndChar

StartChar: uni00B5
Encoding: 181 181 115
Width: 528
Flags: W
HStem: -8 98<174.252 261.521 396.522 466.24> 422 20G<95 106 346 357>
VStem: 75 92<255.457 423.335> 85 52<122.136 330.675> 326 94<279.137 422.665>
LayerCount: 2
Fore
SplineSet
137 222 m 1xd8
 140 162 157 90 201 90 c 0
 264 90 317 160 329 222 c 1
 327 246 326 291 326 314 c 0
 326 327 326 382 325 420 c 1
 330 428 340 442 352 442 c 0
 362 442 420 416 420 403 c 0
 420 378 407 330 395 264 c 0
 390 244 382 212 378 195 c 1
 378 119 407 85 439 85 c 0
 471 85 491 113 499 126 c 1
 503 126 511 114 513 108 c 0
 515 104 513 95 513 92 c 0
 499 49 466 -4 426 -4 c 0
 378 -3 357 86 351 132 c 1
 326 62 278 -8 215 -8 c 0
 169 -8 135 73 129 119 c 1
 131 94 131 -87 153 -205 c 1
 148 -213 134 -227 119 -227 c 0
 105 -227 63 -195 63 -182 c 0
 63 -164 73 106 85 210 c 1xd8
 85 234 75 316 75 339 c 0
 75 352 77 397 77 420 c 1
 81 430 89 442 101 442 c 0
 111 442 167 416 167 403 c 0xe8
 167 375 161 335 149 277 c 0
 145 255 140 236 137 222 c 1xd8
EndSplineSet
EndChar

StartChar: paragraph
Encoding: 182 182 116
Width: 505
Flags: W
HStem: -4 32<162.958 225.351 393.448 458.204> 2 39<285.058 332.944> 288 42<280 337> 299 42<383 412.484> 607 41<280.286 337.805> 620 33<388.552 440.812>
VStem: 33 247<384.692 558.334> 236 44<47.7083 287> 338 45<46.7573 292 341 606.784>
LayerCount: 2
Fore
SplineSet
338 336 m 1x2980
 338 372 338 589 338 602 c 1
 334 606 319 607 309 607 c 0
 299 607 286 607 280 601 c 1
 280 601 280 432 280 330 c 1
 286 330 334 333 338 336 c 1x2980
337 292 m 1
 323 291 296 289 280 288 c 1
 280 226 280 179 280 117 c 0
 280 84 281 62 285 47 c 0
 286 42 302 41 309 41 c 0x6180
 318 41 332 42 333 46 c 0
 338 62 338 88 338 114 c 2
 338 114 337 258 337 292 c 1
382 299 m 1x1680
 382 228 382 182 382 116 c 0
 382 83 382 66 387 51 c 0
 392 36 446 28 456 28 c 1
 460 23 459 0 457 -4 c 1x9680
 407 -2 374 2 312 2 c 0x4280
 258 2 204 -2 164 -4 c 1
 160 4 162 26 166 28 c 1
 176 28 225 36 231 50 c 0
 237 66 236 90 236 116 c 2
 236 116 236 253 236 287 c 1x8180
 108 287 33 374 33 469 c 0
 33 593 134 652 216 652 c 0
 275 652 259 648 318 648 c 0x8a80
 385 648 438 653 438 653 c 1
 443 648 443 623 438 620 c 1
 423 620 391 612 386 600 c 0
 384 593 383 587 383 536 c 0
 383 475 383 360 383 341 c 1
 388 340 432 354 432 354 c 1
 437 354 439 350 439 346 c 0
 438 336 420 312 413 309 c 0
 402 304 390 300 382 299 c 1x1680
EndSplineSet
EndChar

StartChar: periodcentered
Encoding: 183 183 117
Width: 234
Flags: W
HStem: 197 133<68.4065 165.697>
VStem: 51 132<214.757 312.697>
LayerCount: 2
Fore
SplineSet
51 264 m 0
 51 300 81 330 117 330 c 1
 153 330 183 300 183 264 c 0
 183 228 154 197 118 197 c 1
 81 197 51 228 51 264 c 0
EndSplineSet
EndChar

StartChar: cedilla
Encoding: 184 184 118
Width: 473
Flags: W
HStem: -154 26<404.598 483.534> -63 38<466 488.308>
VStem: 491 46<-124.748 -64.1176>
LayerCount: 2
Fore
SplineSet
466 -26 m 1
 470 -26 486 -25 490 -25 c 1
 516 -25 537 -48 537 -74 c 0
 537 -121 499 -154 447 -154 c 0
 427 -154 408 -145 402 -139 c 1
 400 -135 396 -125 396 -120 c 0
 396 -116 396 -114 398 -114 c 1
 404 -117 427 -128 448 -128 c 0
 479 -128 491 -112 491 -96 c 0
 491 -77 479 -63 462 -63 c 0
 454 -63 446 -66 436 -70 c 1
 434 -70 424 -61 425 -56 c 1
 434 -41 448 -17 455 -3 c 1
 482 -3 l 1
 482 -3 468 -22 466 -26 c 1
EndSplineSet
EndChar

StartChar: uni00B9
Encoding: 185 185 119
Width: 291
Flags: W
HStem: 252 26<54.4951 108.092 207.048 257.289> 626 20G<191 196.5>
VStem: 117 80<292.568 563.628>
LayerCount: 2
Fore
SplineSet
117 514 m 2
 117 550 110 564 98 564 c 0
 88 564 64 554 48 548 c 1
 42 550 38 559 38 566 c 0
 38 568 38 573 40 574 c 1
 128 611 190 646 192 646 c 2
 194 646 l 2
 199 646 207 628 208 625 c 1
 206 619 197 581 197 542 c 2
 197 343 l 2
 197 324 199 304 206 292 c 0
 212 284 250 278 256 278 c 1
 258 278 258 254 256 252 c 1
 224 253 190 256 158 256 c 0
 126 256 89 253 57 252 c 1
 53 255 53 278 57 278 c 1
 67 278 104 284 109 292 c 0
 114 302 117 332 117 342 c 2
 117 514 l 2
EndSplineSet
EndChar

StartChar: ordmasculine
Encoding: 186 186 120
Width: 398
Flags: W
HStem: 249 28<167.994 243.77> 526 27<153.618 228.806>
VStem: 37 86<324.14 476.84> 275 86<327.426 480.088>
LayerCount: 2
Fore
SplineSet
191 526 m 1
 135 526 123 464 123 412 c 1
 123 350 147 277 207 277 c 1
 261 277 275 339 275 390 c 1
 275 452 250 526 191 526 c 1
199 553 m 0
 292 553 361 488 361 404 c 0
 361 320 290 249 199 249 c 0
 106 249 37 316 37 400 c 0
 37 484 107 553 199 553 c 0
EndSplineSet
EndChar

StartChar: guillemotright
Encoding: 187 187 121
Width: 490
Flags: W
LayerCount: 2
Fore
SplineSet
283 247 m 0
 283 241 280 236 277 232 c 1
 146 153 70 74 67 72 c 1
 56 75 46 82 43 88 c 1
 48 102 142 210 184 248 c 1
 142 286 48 394 43 408 c 1
 46 414 56 420 67 423 c 1
 70 421 146 343 277 264 c 1
 281 258 283 255 283 247 c 0
467 247 m 0
 467 241 464 236 461 232 c 1
 330 153 254 74 251 72 c 1
 240 75 230 82 227 88 c 1
 232 102 325 210 367 248 c 1
 325 286 232 394 227 408 c 1
 230 414 240 420 251 423 c 1
 254 421 330 343 461 264 c 1
 465 258 467 255 467 247 c 0
EndSplineSet
EndChar

StartChar: onequarter
Encoding: 188 188 122
Width: 718
Flags: W
HStem: -3 21G<596 615.5> 99 46<461 569 643 674.789> 252 24<50.3545 100.848 195.908 244.375> 620 20G<159 183> 644 20G<562.5 574.5>
VStem: 111 74<290.483 555.988> 569 73<-2.39932 99 145 284>
LayerCount: 2
Fore
SplineSet
627 396 m 0
 632 396 642 389 642 381 c 9
 642 333 642 188 642 142 c 1
 646 142 666 142 671 142 c 1
 682 132 686 115 679 99 c 1
 667 99 646 99 643 99 c 9
 643 1 l 1
 642 0 626 -3 605 -3 c 0
 587 -3 571 0 569 4 c 1
 569 99 l 1
 409 99 l 1
 404 101 399 106 399 116 c 1
 437 161 579 346 611 386 c 1
 615 391 621 396 627 396 c 0
569 145 m 1
 569 167 569 280 569 284 c 1
 537 244 489 181 461 145 c 1
 462 145 549 145 569 145 c 1
185 535 m 2
 185 341 l 2
 185 322 189 300 195 289 c 0
 200 281 237 276 243 276 c 1
 247 274 244 254 243 252 c 1
 211 253 183 255 151 255 c 0
 119 255 85 253 53 252 c 1
 49 255 49 274 53 276 c 1
 63 276 98 282 103 290 c 0
 108 300 111 330 111 340 c 2
 111 516 l 2
 111 539 104 556 93 556 c 0
 83 556 63 547 47 541 c 1
 41 543 35 560 35 564 c 1
 80 585 137 615 181 640 c 1
 185 639 196 627 196 622 c 1
 194 616 185 574 185 535 c 2
205 -23 m 0
 192 -23 190 -14 190 -14 c 1
 538 650 l 1
 542 656 554 664 571 664 c 0
 578 664 583 660 584 656 c 1
 239 -4 l 2
 236 -10 222 -23 205 -23 c 0
EndSplineSet
EndChar

StartChar: onehalf
Encoding: 189 189 123
Width: 749
Flags: W
HStem: -2 63<522 676> 252 24<51.3545 99.8975 194.914 245.101> 340 49<511.723 600.286> 620 20G<160 185> 644 20G<550.5 562.5>
VStem: 112 74<290.483 555.988> 616 80<217.776 323.945>
LayerCount: 2
Fore
SplineSet
578 389 m 0
 648 389 696 350 696 284 c 0
 696 240 666 202 632 166 c 0
 604 136 564 99 522 61 c 1
 638 61 l 2
 674 61 685 100 693 116 c 0
 694 118 697 120 701 120 c 0
 705 120 712 119 715 116 c 1
 706 87 687 20 678 -2 c 1
 448 -2 l 1
 444 0 438 8 438 12 c 1
 481 59 520 96 564 152 c 0
 598 195 616 233 616 272 c 0
 616 313 588 340 550 340 c 0
 506 340 484 305 472 291 c 1
 468 289 455 298 455 306 c 1
 472 338 520 389 578 389 c 0
186 535 m 2
 186 341 l 2
 186 322 188 300 194 289 c 0
 199 281 237 276 243 276 c 1
 247 274 245 254 244 252 c 1
 212 253 182 255 150 255 c 0
 118 255 86 253 54 252 c 1
 50 255 50 274 54 276 c 1
 64 276 97 282 102 290 c 0
 107 300 112 330 112 340 c 2
 112 516 l 2
 112 539 105 556 94 556 c 0
 84 556 63 547 47 541 c 1
 41 543 36 558 36 564 c 1
 81 585 138 615 182 640 c 1
 188 636 196 627 196 622 c 1
 194 616 186 574 186 535 c 2
572 656 m 1
 227 -4 l 2
 224 -10 210 -23 193 -23 c 0
 180 -23 178 -14 178 -14 c 1
 526 650 l 1
 530 656 542 664 559 664 c 0
 566 664 571 660 572 656 c 1
EndSplineSet
EndChar

StartChar: threequarters
Encoding: 190 190 124
Width: 719
Flags: W
HStem: -3 21G<595 614.5> 99 46<460 568 642 673.789> 247 28<108.173 185.113> 443 24<98.0704 137.831> 602 42<99.0273 177.421> 644 20G<569.5 581.5>
VStem: 190 68<508.986 590.521> 212 77<314.074 422.4> 568 73<-2.39932 99 145 284>
LayerCount: 2
Fore
SplineSet
626 396 m 0xf080
 631 396 641 389 641 381 c 9
 641 333 641 188 641 142 c 1
 645 142 665 142 670 142 c 1
 681 132 685 115 678 99 c 1
 666 99 645 99 642 99 c 9
 642 1 l 1
 641 0 625 -3 604 -3 c 0
 586 -3 570 0 568 4 c 1
 568 99 l 1
 408 99 l 1
 403 101 398 106 398 116 c 1
 436 161 578 346 610 386 c 1
 614 391 620 396 626 396 c 0xf080
568 145 m 1
 568 167 568 280 568 284 c 1
 536 244 488 181 460 145 c 1
 461 145 548 145 568 145 c 1
166 644 m 0xfa80
 205 644 258 620 258 564 c 0xfa80
 258 512 214 489 192 482 c 1
 215 482 289 452 289 382 c 0
 289 294 201 247 119 247 c 0
 88 247 55 255 44 265 c 1
 42 268 34 279 34 290 c 0
 34 308 47 324 65 324 c 0
 82 324 91 308 103 294 c 0
 113 281 129 275 145 275 c 0
 185 275 212 303 212 361 c 0xf980
 212 409 179 448 140 448 c 0
 129 448 112 445 104 443 c 1
 102 446 98 451 98 456 c 0
 98 459 98 465 99 467 c 1
 139 474 190 497 190 547 c 0
 190 577 166 602 134 602 c 0
 99 602 73 572 68 566 c 1
 64 568 54 577 56 583 c 1
 74 609 116 644 166 644 c 0xfa80
591 656 m 1
 246 -4 l 2
 243 -10 228 -23 211 -23 c 0
 198 -23 197 -14 197 -14 c 1
 544 650 l 1
 548 656 561 664 578 664 c 0xf480
 585 664 590 660 591 656 c 1
EndSplineSet
EndChar

StartChar: questiondown
Encoding: 191 191 125
Width: 367
Flags: W
HStem: -218 70<151.761 254.5> 307 130<196.85 290.316>
VStem: 36 68<-116.631 2.07237> 180 128<321.956 419.944> 235 34<177.62 247.767>
LayerCount: 2
Fore
SplineSet
308 370 m 0xf0
 308 334 279 307 245 307 c 0
 209 307 180 334 180 370 c 0
 180 406 208 437 243 437 c 0
 277 437 308 408 308 370 c 0xf0
269 237 m 1xe8
 275 219 283 176 283 142 c 0
 283 76 236 46 200 22 c 0
 150 -10 104 -43 104 -84 c 0
 104 -120 130 -148 167 -148 c 0
 211 -148 231 -107 265 -107 c 0
 291 -107 319 -132 319 -165 c 0
 319 -181 313 -200 307 -206 c 1
 295 -212 272 -218 237 -218 c 0
 181 -218 36 -166 36 -38 c 0
 36 40 85 78 149 116 c 0
 176 132 217 159 229 177 c 0
 237 190 235 217 235 233 c 1
 238 240 244 248 251 248 c 1
 257 247 265 242 269 237 c 1xe8
EndSplineSet
EndChar

StartChar: AE
Encoding: 198 198 132
Width: 887
Flags: W
HStem: 0 40<529.479 749.52> 240 46<251.999 382.289> 311 42<521 684.416> 620 44<575.934 738.413> 620 36<525.12 667.816>
VStem: 408 113<56.2292 180 284.65 308.794 354.063 541> 717 32<378.533 431.825> 783 36<517.121 564.804>
LayerCount: 2
Fore
SplineSet
408 286 m 1xe7
 408 541 l 1
 398 525 252 290 252 290 c 1
 252 290 251 286 253 286 c 0
 276 284 307 284 330 284 c 0
 360 284 385 284 408 286 c 1xe7
466 656 m 0xef
 534 656 705 664 789 664 c 1
 796 614 810 567 819 522 c 1
 816 519 805 517 798 517 c 0
 791 517 785 519 783 524 c 0
 761 592 728 620 671 620 c 2
 586 620 l 1xf7
 568 620 531 619 527 609 c 0
 522 595 521 571 521 543 c 2
 521 362 l 2
 521 356 543 353 565 353 c 2
 618 353 l 2
 696 353 701 362 717 424 c 0
 718 429 723 432 730 432 c 0
 737 432 746 429 749 426 c 1
 749 236 l 1
 747 234 738 232 731 232 c 0
 724 232 718 235 716 240 c 0
 702 292 694 299 685 304 c 0
 673 310 632 311 594 311 c 0
 566 311 521 310 521 300 c 2
 521 128 l 2
 521 118 522 66 529 54 c 0
 539 42 563 40 597 40 c 2
 654 40 l 2
 692 40 737 49 763 68 c 0
 783 84 806 117 822 166 c 0
 823 170 829 172 836 172 c 0
 846 172 860 169 863 166 c 1
 844 112 816 41 809 -3 c 1
 733 -3 460 0 395 0 c 1
 359 3 334 12 336 16 c 1
 340 19 364 32 368 38 c 1
 378 48 403 69 405 97 c 1
 408 109 409 172 409 180 c 1
 393 180 379 240 369 240 c 1
 339 240 306 240 276 240 c 0
 254 240 246 237 222 235 c 1
 221 235 200 204 192 190 c 1
 184 178 153 126 137 98 c 0
 125 70 145 48 149 42 c 1
 151 26 180 13 182 11 c 1
 166 11 150 3 127 0 c 1
 84 1 64 1 24 -1 c 1
 -1 1 -7 10 -27 14 c 1
 -23 16 4 33 12 45 c 1
 29 59 49 72 65 90 c 1
 77 98 239 354 249 370 c 1
 387 596 l 1
 385 606 365 610 359 614 c 1
 357 626 340 641 336 644 c 1
 356 646 412 656 466 656 c 0xef
EndSplineSet
EndChar

StartChar: Eth
Encoding: 208 208 142
Width: 739
Flags: W
HStem: -3 38<45.2305 114.273 240.597 413.153> 310 38<40.5869 377.078> 622 37<45.7139 114.496 236.423 396.055>
VStem: 119.25 114<54.6384 618.356> 564.25 129<205.408 454.097>
LayerCount: 2
Fore
SplineSet
375.25 310 m 1
 346.25 310 56.25 310 42.25 310 c 1
 38.25 310 37.25 339 43.25 348 c 1
 72.25 348 361.25 348 375.25 348 c 1
 379.25 348 379.25 319 375.25 310 c 1
EndSplineSet
Refer: 36 68 N 1 0 0 1 3.25 0 2
EndChar

StartChar: multiply
Encoding: 215 215 149
Width: 465
Flags: W
LayerCount: 2
Fore
SplineSet
198 248 m 1
 196 250 55 390 55 390 c 1
 55 404 72 430 81 430 c 0
 84 430 86 430 88 428 c 2
 88 428 234 287 236 285 c 9
 380 428 l 2
 381 429 383 430 386 430 c 0
 395 430 410 398 410 388 c 1
 410 388 274 253 271 250 c 1
 272 249 410 106 410 106 c 1
 410 91 397 64 386 64 c 0
 384 64 381 64 379 66 c 2
 379 66 234 211 233 212 c 1
 231 210 85 65 85 65 c 2
 83 63 81 63 79 63 c 0
 70 63 55 96 55 106 c 1
 55 106 194 244 198 248 c 1
EndSplineSet
EndChar

StartChar: Oslash
Encoding: 216 216 150
Width: 752
Flags: W
HStem: -10 40<315.839 471.661> 627 40<280.447 436.232>
VStem: 44 130<210.9 445.454> 579 130<210.677 445.477>
LayerCount: 2
Fore
SplineSet
554 672 m 17
 562 670 590 656 587 650 c 9
 190 -16 l 17
 182 -13 153 1 156 7 c 9
 554 672 l 17
EndSplineSet
Refer: 47 79 N 1 0 0 1 0 0 2
EndChar

StartChar: Thorn
Encoding: 222 222 156
Width: 558
Flags: W
HStem: -4 33<40.75 108.779 236.221 304.25> 2 180<152 282.149> 135 44<269.415 365.429> 477 38<233.754 345.722> 629 33<40.75 108.779 236.221 304.25>
VStem: 116 114<36.7397 474.25 509 621.26> 415 117<242.092 407.887>
LayerCount: 2
Fore
SplineSet
173 656 m 0x9e
 213 656 262 659 302 662 c 1
 306 656 306 635 302 629 c 1
 290 629 240 624 236 612 c 0
 230 596 229 571 229 541 c 1
 229 538 230 513 230 509 c 1
 253 514 287 515 311 515 c 0
 429 515 532 442 532 334 c 0
 532 222 444 135 328 135 c 0xbe
 298 135 279 146 271 152 c 0
 268 155 259 168 259 175 c 0
 259 179 261 182 263 182 c 1x5e
 273 179 287 179 302 179 c 0
 366 179 415 233 415 316 c 0
 415 402 368 477 281 477 c 0
 263 477 238 474 234 464 c 0
 229 452 230 411 230 396 c 1
 230 130 l 2
 230 94 230 64 236 46 c 0
 240 34 290 29 302 29 c 1
 306 23 306 2 302 -4 c 1xbe
 262 -1 212 2 172 2 c 0x5e
 132 2 83 -1 43 -4 c 1
 39 2 39 23 43 29 c 1
 55 29 105 34 109 46 c 0
 115 64 116 94 116 130 c 2
 116 528 l 2
 116 564 115 594 109 612 c 0
 105 624 55 629 43 629 c 1
 39 635 39 656 43 662 c 1
 83 659 133 656 173 656 c 0x9e
EndSplineSet
EndChar

StartChar: germandbls
Encoding: 223 223 157
Width: 567
Flags: W
HStem: -10 38<25.4639 88.9219 206.211 261.536 377.561 446.227> 386 44<41.2377 96> 656 40<242.406 340.864>
VStem: 96 104<36.2985 386 430 540.461> 270 80<303 384.861> 377 97<493.032 619.508> 458 80<65.5097 147.821>
LayerCount: 2
Fore
SplineSet
299 696 m 0xfc
 389 696 474 649 474 562 c 0xfc
 474 513 446 482 419 458 c 0
 389 431 350 406 350 380 c 0
 350 341 410 303 448 276 c 0
 490 246 538 210 538 145 c 0
 538 55 463 -10 387 -10 c 0
 339 -10 295 8 282 25 c 1
 280 32 278 41 278 50 c 0
 279 79 292 106 319 106 c 0
 346 106 357 79 368 60 c 0
 378 43 390 28 411 28 c 0
 441 28 458 52 458 92 c 0xfa
 458 139 416 170 374 202 c 0
 327 237 270 270 270 336 c 0
 270 372 304 396 332 428 c 0
 358 457 377 486 377 537 c 0
 377 598 349 656 288 656 c 0
 224 656 200 571 200 480 c 0
 200 130 l 2
 200 94 200 64 206 46 c 0
 210 34 249 30 261 30 c 1
 265 24 265 2 261 -4 c 1
 221 -1 188 2 148 2 c 0
 108 2 66 -1 26 -4 c 1
 22 2 22 24 26 30 c 1
 38 30 86 34 90 46 c 0
 96 64 96 94 96 130 c 2
 96 130 96 342 96 386 c 1
 82 386 51 386 38 386 c 1
 34 387 33 393 33 397 c 1
 38 406 56 424 62 430 c 1
 76 430 86 430 96 430 c 1
 96 430 96 438 96 440 c 1
 96 570 207 696 299 696 c 0xfc
EndSplineSet
EndChar

StartChar: ae
Encoding: 230 230 164
Width: 674
Flags: W
HStem: -8 74<439.712 555.1> -8 62<121.5 222.383> 245 38<371.806 514.128> 254 33<410.62 532.785> 404 38<160.757 265.548 413.701 503.561>
VStem: 33 109<70.8169 168.805> 47 94<293.594 362.574> 270 95<144.106 196.006 214.105 222 283.029 347.233> 533 104<287.219 371.989>
LayerCount: 2
Fore
SplineSet
191 192 m 0x4d80
 159 176 142 150 142 120 c 0
 142 80 175 54 207 54 c 0
 237 54 287 79 287 103 c 1
 279 123 272 162 270 194 c 0
 269 205 270 211 270 222 c 1
 248 214 209 202 191 192 c 0x4d80
461 404 m 1
 389 404 368 300 369 283 c 1x2980
 378 283 498 285 515 287 c 0x1980
 527 287 533 295 533 307 c 1
 533 342 514 404 461 404 c 1
475 442 m 0
 601 442 637 348 637 299 c 0
 637 273 628 255 611 254 c 0x5b80
 561 250 408 246 365 245 c 1
 363 111 451 66 517 66 c 0
 573 66 611 98 628 117 c 1
 632 116 638 108 638 101 c 1
 638 95 635 86 633 82 c 0
 615 54 556 -8 470 -8 c 0xab80
 406 -8 341 18 307 70 c 1
 269 37 191 -8 157 -8 c 0
 86 -8 33 48 33 110 c 0x4d80
 33 150 59 180 83 190 c 0
 126 208 227 244 267 260 c 1
 274 264 276 270 277 278 c 0
 278 289 278 298 277 310 c 0
 272 361 240 404 198 404 c 0
 162 404 149 373 141 331 c 0
 135 303 120 286 90 286 c 0
 66 286 47 306 47 330 c 0x4b80
 47 340 51 354 57 363 c 1
 75 381 163 442 243 442 c 0
 288 442 326 418 348 384 c 1
 378 413 423 442 475 442 c 0
EndSplineSet
EndChar

StartChar: eth
Encoding: 240 240 174
Width: 530
Flags: W
HStem: -6 38<214.39 311.791> 406 38<198.932 308.023> 664 26<92.2658 113.996>
VStem: 37 112<112.026 317.582> 363 113<134.321 343.942>
LayerCount: 2
Fore
SplineSet
357 704 m 17
 363 698 382 677 376 671 c 9
 131 506 l 17
 125 512 107 533 113 539 c 9
 357 704 l 17
249 406 m 0
 173 406 149 312 149 220 c 0
 149 113 202 32 262 32 c 0
 335 32 363 120 363 214 c 0
 363 267 354 320 338 352 c 1
 318 387 290 406 249 406 c 0
247 444 m 0
 274 444 301 440 321 432 c 1
 297 500 245 598 89 664 c 1
 88 673 91 687 99 690 c 1
 177 675 288 617 366 528 c 0
 429 456 476 364 476 253 c 3
 476 96 377 -6 259 -6 c 0
 138 -6 37 74 37 214 c 0
 37 346 129 444 247 444 c 0
EndSplineSet
EndChar

StartChar: ntilde
Encoding: 241 241 175
Width: 565
Flags: HW
HStem: -4 33<30.0594 95.0907 212.526 274.56 313.06 373.094 489.529 555.56> 365 28<29.6175 90.5496> 372 70<282.655 406.784> 504 54<313.473 403.395> 560 54<186.829 275.474>
VStem: 102.31 104<36.3778 342.871> 155.309 282 379.31 104<36.0252 341.83>
LayerCount: 2
Fore
SplineSet
366.31 703 m 24,124,-1
EndSplineSet
Refer: 229 771 N 1 0 0 1 99.3092 -8 2
Refer: 78 110 N 1 0 0 1 -0.000169754 0 3
EndChar

StartChar: divide
Encoding: 247 247 181
Width: 608
Flags: W
HStem: 4 112<259.104 348.896> 221 57<67.7222 540.713> 379 112<259.104 348.896>
VStem: 248 112<15.104 104.896 390.104 479.896>
LayerCount: 2
Fore
SplineSet
248 435 m 0
 248 466 273 491 304 491 c 0
 335 491 360 466 360 435 c 0
 360 404 335 379 304 379 c 0
 273 379 248 404 248 435 c 0
248 60 m 0
 248 91 273 116 304 116 c 0
 335 116 360 91 360 60 c 0
 360 29 335 4 304 4 c 0
 273 4 248 29 248 60 c 0
70 221 m 1
 68 221 64 224 64 234 c 0
 64 238 68 268 78 278 c 1
 166 278 447 278 535 278 c 1
 540 278 544 272 544 265 c 0
 544 247 537 230 529 221 c 1
 70 221 l 1
EndSplineSet
EndChar

StartChar: oslash
Encoding: 248 248 182
Width: 520
Flags: W
HStem: -7 38<216.903 321.624> 406 37<196.502 296.477>
VStem: 36 114<115.547 316.005> 369 114<122.777 319.367>
LayerCount: 2
Fore
SplineSet
403 434 m 17
 409 432 433 421 431 417 c 9
 132 -18 l 17
 126 -16 102 -4 104 0 c 9
 403 434 l 17
EndSplineSet
Refer: 79 111 N 1 0 0 1 0 0 2
EndChar

StartChar: thorn
Encoding: 254 254 188
Width: 515
Flags: W
HStem: -222 33<-3.0625 63.5306 179.969 246> -8 40<195.794 305.074> 377 66<228.253 308.622> 626 29<1.99322 60.8313> 674 20G<160.75 174.75>
VStem: 69.75 104<-181.975 1.99706 52.0522 365.547 384.048 618.938> 366.75 114<136.687 308.416>
LayerCount: 2
Fore
SplineSet
291.75 443 m 0
 413.75 443 480.75 331 480.75 233 c 0
 480.75 92 352.75 -8 240.75 -8 c 0
 213.75 -8 186.75 0 176.75 2 c 1
 174.75 2 173.75 -2 173.75 -12 c 2
 173.75 -88 l 2
 173.75 -124 173.75 -154 179.75 -172 c 0
 183.75 -184 231.75 -189 243.75 -189 c 1
 247.75 -195 247.75 -216 243.75 -222 c 1
 203.75 -219 161.75 -216 121.75 -216 c 0
 80.75 -216 39.75 -219 -0.25 -222 c 1
 -5.25 -216 -5.25 -195 -0.25 -189 c 1
 11.75 -189 59.75 -184 63.75 -172 c 0
 70.75 -154 69.75 -124 69.75 -88 c 2
 69.75 558 l 2
 69.75 574 69.75 594 63.75 608 c 0
 57.75 621 23.75 626 3.75 626 c 1
 1.75 626 -0.25 653 3.75 655 c 1
 84.75 663 149.75 684 171.75 694 c 1
 177.75 694 184.75 684 184.75 678 c 1
 184.75 678 173.75 632 173.75 584 c 1
 173.75 500 173.75 401 173.75 389 c 0
 173.75 388 173.75 385 174.75 384 c 0
 175.75 383 176.75 383 177.75 384 c 0
 205.75 410 255.75 443 291.75 443 c 0
242.75 377 m 0
 203.75 377 173.75 354 173.75 344 c 2
 173.75 98 l 2
 173.75 52 218.75 32 253.75 32 c 0
 311.75 32 366.75 99 366.75 197 c 0
 366.75 308 320.75 377 242.75 377 c 0
EndSplineSet
EndChar

StartChar: gravecomb
Encoding: 768 768 190
Width: 251
Flags: W
HStem: 523 162
VStem: 46 170
LayerCount: 2
Fore
SplineSet
46 659 m 0
 46 665 55 685 90 685 c 0
 104 685 119 681 124 676 c 0
 161 633 216 543 216 538 c 0
 216 532 209 523 202 523 c 0
 192 523 46 620 46 659 c 0
EndSplineSet
EndChar

StartChar: acutecomb
Encoding: 769 769 191
Width: 237
Flags: W
HStem: 523 162
VStem: 38 170
LayerCount: 2
Fore
SplineSet
164 685 m 0
 199 685 208 665 208 659 c 0
 208 620 62 523 52 523 c 0
 45 523 38 532 38 538 c 0
 38 544 94 634 130 676 c 0
 135 681 150 685 164 685 c 0
EndSplineSet
EndChar

StartChar: uni2010
Encoding: 8208 8208 192
AltUni2: 0000ad.ffffffff.0
Width: 317
Flags: W
HStem: 196 68<33.2148 187.957> 207 69<141.043 288.448>
VStem: 31 261
LayerCount: 2
Fore
SplineSet
31 207 m 0x60
 31 255 40 264 43 264 c 2
 44 264 l 1xa0
 285 276 l 1
 286 276 l 2
 288 276 292 275 292 267 c 0
 292 218 279 207 279 207 c 1x60
 38 196 l 1xa0
 38 196 31 195 31 207 c 0x60
EndSplineSet
EndChar

StartChar: uni2011
Encoding: 8209 8209 193
Width: 317
Flags: W
HStem: 196 68<33.2148 187.957> 207 69<141.043 288.448>
VStem: 31 261
LayerCount: 2
Fore
SplineSet
31 207 m 0x60
 31 255 40 264 43 264 c 2
 44 264 l 1xa0
 285 276 l 1
 286 276 l 2
 288 276 292 275 292 267 c 0
 292 218 279 207 279 207 c 1x60
 38 196 l 1xa0
 38 196 31 195 31 207 c 0x60
EndSplineSet
EndChar

StartChar: figuredash
Encoding: 8210 8210 194
Width: 490
Flags: W
HStem: 197 68<32.9742 449.903>
LayerCount: 2
Fore
SplineSet
29 206 m 0
 29 208 32 265 43 265 c 2
 452 265 l 2
 454 265 458 264 458 257 c 0
 458 245 453 215 450 204 c 0
 448 198 442 197 442 197 c 1
 35 197 l 1
 35 197 29 196 29 206 c 0
EndSplineSet
EndChar

StartChar: endash
Encoding: 8211 8211 195
Width: 559
Flags: W
HStem: 197 68<59.9742 491.904>
LayerCount: 2
Fore
SplineSet
56 206 m 0
 56 208 59 265 70 265 c 2
 495 265 l 2
 497 265 501 264 501 256 c 0
 501 238 493 208 492 204 c 0
 490 198 485 197 485 197 c 1
 62 197 l 1
 62 197 56 196 56 206 c 0
EndSplineSet
EndChar

StartChar: emdash
Encoding: 8212 8212 196
Width: 896
Flags: W
HStem: 202 68<58.9742 829.903>
LayerCount: 2
Fore
SplineSet
55 211 m 0
 55 213 58 270 69 270 c 2
 832 270 l 2
 834 270 838 269 838 261 c 0
 838 243 831 213 830 209 c 0
 828 203 822 202 822 202 c 1
 61 202 l 1
 61 202 55 201 55 211 c 0
EndSplineSet
EndChar

StartChar: afii00208
Encoding: 8213 8213 197
Width: 1076
Flags: W
HStem: 202 68<29.9742 1041.9>
LayerCount: 2
Fore
SplineSet
26 211 m 0
 26 213 29 270 40 270 c 2
 1044 270 l 1
 1045 270 1050 269 1050 261 c 0
 1050 243 1043 213 1042 209 c 0
 1040 203 1034 202 1034 202 c 1
 32 202 l 1
 32 202 26 201 26 211 c 0
EndSplineSet
EndChar

StartChar: quoteleft
Encoding: 8216 8216 198
Width: 181
Flags: W
HStem: 478 228<82 149>
VStem: 39 65<541 628.65>
LayerCount: 2
Fore
SplineSet
39 555 m 0
 39 649 140 706 149 706 c 0
 157 706 165 699 169 688 c 1
 109 652 104 615 104 606 c 0
 104 586 116 570 126 558 c 0
 136 546 146 537 146 524 c 0
 146 500 114 478 82 478 c 0
 75 478 62 481 54 485 c 1
 45 498 39 527 39 555 c 0
EndSplineSet
EndChar

StartChar: quoteright
Encoding: 8217 8217 199
Width: 189
Flags: W
HStem: 479 228<54 120>
VStem: 98 64<556.02 644>
LayerCount: 2
Fore
SplineSet
162 630 m 0
 162 536 63 479 54 479 c 0
 46 479 37 486 33 497 c 1
 93 533 98 571 98 580 c 0
 98 600 86 614 76 626 c 0
 66 638 57 647 57 660 c 0
 57 684 88 707 120 707 c 0
 127 707 140 704 148 700 c 1
 157 687 162 658 162 630 c 0
EndSplineSet
EndChar

StartChar: quotesinglbase
Encoding: 8218 8218 200
Width: 195
Flags: W
HStem: -102 228<37 104>
VStem: 82 64<-25.6819 62>
LayerCount: 2
Fore
SplineSet
146 48 m 0
 146 -46 46 -102 37 -102 c 0
 29 -102 20 -95 16 -84 c 1
 76 -48 82 -11 82 -2 c 0
 82 18 70 32 60 44 c 0
 50 56 40 66 40 79 c 0
 40 103 72 126 104 126 c 0
 111 126 124 122 132 118 c 1
 141 105 146 76 146 48 c 0
EndSplineSet
EndChar

StartChar: quotedblleft
Encoding: 8220 8220 201
Width: 327
Flags: W
HStem: 478 228<82 149 228 294>
VStem: 39 65<541 628.65> 185 64<541 629.288>
LayerCount: 2
Fore
SplineSet
185 555 m 0
 185 649 285 706 294 706 c 0
 302 706 311 699 315 688 c 1
 255 652 249 615 249 606 c 0
 249 587 258 573 268 562 c 0
 279 550 291 538 291 524 c 0
 291 500 260 478 228 478 c 0
 221 478 208 481 200 485 c 1
 191 498 185 527 185 555 c 0
39 555 m 0
 39 649 140 706 149 706 c 0
 157 706 165 699 169 688 c 1
 109 652 104 615 104 606 c 0
 104 586 115 572 125 560 c 0
 135 548 146 538 146 524 c 0
 146 500 114 478 82 478 c 0
 75 478 62 481 54 485 c 1
 45 498 39 527 39 555 c 0
EndSplineSet
EndChar

StartChar: quotedblright
Encoding: 8221 8221 202
Width: 327
Flags: W
HStem: 478 228<40 106 185 252>
VStem: 85 64<554.712 643> 230 65<555.35 643>
LayerCount: 2
Fore
SplineSet
149 629 m 0
 149 535 49 478 40 478 c 0
 32 478 23 485 19 496 c 1
 79 532 85 569 85 578 c 0
 85 597 76 611 66 622 c 0
 55 634 43 646 43 660 c 0
 43 684 74 706 106 706 c 0
 113 706 126 703 134 699 c 1
 143 686 149 657 149 629 c 0
295 629 m 0
 295 535 194 478 185 478 c 0
 177 478 169 485 165 496 c 1
 225 532 230 569 230 578 c 0
 230 598 219 612 209 624 c 0
 199 636 188 646 188 660 c 0
 188 684 220 706 252 706 c 0
 259 706 272 703 280 699 c 1
 289 686 295 657 295 629 c 0
EndSplineSet
EndChar

StartChar: quotedblbase
Encoding: 8222 8222 203
Width: 327
Flags: W
HStem: -104 228<47 113 192 259>
VStem: 92 64<-27.2879 61> 237 65<-26.6501 61>
LayerCount: 2
Fore
SplineSet
156 47 m 0
 156 -47 56 -104 47 -104 c 0
 39 -104 30 -97 26 -86 c 1
 86 -50 92 -13 92 -4 c 0
 92 15 83 29 73 40 c 0
 62 52 50 64 50 78 c 0
 50 102 81 124 113 124 c 0
 120 124 133 121 141 117 c 1
 150 104 156 75 156 47 c 0
302 47 m 0
 302 -47 201 -104 192 -104 c 0
 184 -104 176 -97 172 -86 c 1
 232 -50 237 -13 237 -4 c 0
 237 16 226 30 216 42 c 0
 206 54 195 64 195 78 c 0
 195 102 227 124 259 124 c 0
 266 124 279 121 287 117 c 1
 296 104 302 75 302 47 c 0
EndSplineSet
EndChar

StartChar: dagger
Encoding: 8224 8224 204
Width: 398
Flags: W
HStem: 434.5 86<39.4833 102.761 293.239 356.517> 464 23<102.93 173.684 221.746 293.07> 642 20G<187 209>
VStem: 154 87<565.826 656.775> 180.5 34<399.267 460.648 489.077 609.698> 190 15.5<-15.8875 79.752>
LayerCount: 2
Fore
SplineSet
152.5 487 m 8x68
 166 487 172.5 492 182.5 505 c 1
 182.5 538 173 606 154 625 c 1
 154 646 175.5 662 198.5 662 c 0
 219.5 662 241 646 241 625 c 1
 222 606 212.5 538 212.5 505 c 1
 222.5 492 230.5 487 243.5 487 c 0x70
 276.5 487 305.5 501.5 324.5 520.5 c 1
 345.5 520.5 362.5 497 362.5 476 c 0
 362.5 455 345.5 434.5 324.5 434.5 c 1xb0
 305.5 453.5 277 463.5 243.5 464 c 24
 228 464 214.5 448 214.5 436 c 1x68
 221.5 419 234 394 246 365 c 1
 224 227 222 178 205.5 -3 c 1
 203 -9.5 202 -15 198 -16 c 1
 194 -15 192.5 -7.5 190 -3 c 1x64
 173.5 178 171 227 149 365 c 1
 160 390 173.5 419 180.5 436 c 1
 180.5 448 168 464 152.5 464 c 24x68
 119 463.5 90.5 453.5 71.5 434.5 c 1
 50.5 434.5 33.5 455 33.5 476 c 0
 33.5 497 50.5 520.5 71.5 520.5 c 1xa8
 90.5 501.5 119.5 487 152.5 487 c 8x68
EndSplineSet
EndChar

StartChar: daggerdbl
Encoding: 8225 8225 205
Width: 417
Flags: W
HStem: 125.5 86<48.4833 111.761 302.239 365.517> 159 23<111.93 182.684 230.746 302.07> 434.5 86<48.4833 111.761 302.239 365.517> 464 23<111.93 182.684 230.746 302.07> 642 20G<196 218>
VStem: 163 87<-10.7749 80.1742 565.826 656.775> 191.5 30<46.7904 155.14 188.132 238.768 407.232 457.868 490.86 599.21>
LayerCount: 2
Fore
SplineSet
255 281 m 1x1a
 243 252 230.5 227 223.5 210 c 1
 223.5 198 237 182 252.5 182 c 24x5a
 286 182.5 314.5 192.5 333.5 211.5 c 1
 354.5 211.5 371.5 191 371.5 170 c 0
 371.5 149 354.5 125.5 333.5 125.5 c 1x8a
 314.5 144.5 285.5 159 252.5 159 c 0
 239.5 159 231.5 154 221.5 141 c 1x4a
 221.5 108 231 40 250 21 c 1
 250 0 228.5 -16 207.5 -16 c 0
 184.5 -16 163 0 163 21 c 1x4c
 182 40 191.5 108 191.5 141 c 1
 181.5 154 175 159 161.5 159 c 16x4a
 128.5 159 99.5 144.5 80.5 125.5 c 1
 59.5 125.5 42.5 149 42.5 170 c 0
 42.5 191 59.5 211.5 80.5 211.5 c 1x8a
 99.5 192.5 128 182.5 161.5 182 c 24
 177 182 189.5 198 189.5 210 c 1
 182.5 227 169 256 158 281 c 1
 171.5 295.5 180.5 311.5 187 323.5 c 1
 180.5 335.5 170.5 349.5 158 365 c 1
 169 390 182.5 419 189.5 436 c 1
 189.5 448 177 464 161.5 464 c 24x5a
 128 463.5 99.5 453.5 80.5 434.5 c 1
 59.5 434.5 42.5 455 42.5 476 c 0
 42.5 497 59.5 520.5 80.5 520.5 c 1x2a
 99.5 501.5 128.5 487 161.5 487 c 8
 175 487 181.5 492 191.5 505 c 1x1a
 191.5 538 182 606 163 625 c 1
 163 646 184.5 662 207.5 662 c 0
 228.5 662 250 646 250 625 c 1x1c
 231 606 221.5 538 221.5 505 c 1
 231.5 492 239.5 487 252.5 487 c 0x1a
 285.5 487 314.5 501.5 333.5 520.5 c 1
 354.5 520.5 371.5 497 371.5 476 c 0
 371.5 455 354.5 434.5 333.5 434.5 c 1x2a
 314.5 453.5 286 463.5 252.5 464 c 24
 237 464 223.5 448 223.5 436 c 1
 230.5 419 243 394 255 365 c 1
 243 350.5 232 335 226 323.5 c 1
 231 313 240 297 255 281 c 1x1a
EndSplineSet
EndChar

StartChar: bullet
Encoding: 8226 8226 206
Width: 324
Flags: W
HStem: 139 248<92.8828 230.801>
VStem: 38 247<193.883 332.117>
LayerCount: 2
Fore
SplineSet
38 263 m 0
 38 331 94 387 162 387 c 0
 230 387 285 331 285 263 c 0
 285 195 230 139 162 139 c 0
 94 139 38 195 38 263 c 0
EndSplineSet
EndChar

StartChar: onedotenleader
Encoding: 8228 8228 207
Width: 854
Flags: W
HStem: -11 130<371.303 467.603>
VStem: 354 130<6.75665 102.706>
LayerCount: 2
Fore
SplineSet
354 56 m 0
 354 91 384 119 420 119 c 1
 456 119 484 89 484 54 c 0
 484 19 456 -11 420 -11 c 1
 384 -11 354 20 354 56 c 0
EndSplineSet
EndChar

StartChar: ellipsis
Encoding: 8230 8230 208
Width: 854
Flags: W
HStem: -11 130<63.3035 159.603 357.303 453.603 651.303 747.603>
VStem: 46 130<6.75665 102.706> 340 130<6.75665 102.706> 634 130<6.75665 102.706>
CounterMasks: 1 70
LayerCount: 2
Fore
SplineSet
46 56 m 0
 46 91 76 119 112 119 c 1
 148 119 176 89 176 54 c 0
 176 19 148 -11 112 -11 c 1
 76 -11 46 20 46 56 c 0
634 56 m 0
 634 91 664 119 700 119 c 1
 736 119 764 89 764 54 c 0
 764 19 736 -11 700 -11 c 1
 664 -11 634 20 634 56 c 0
340 56 m 0
 340 91 370 119 406 119 c 1
 442 119 470 89 470 54 c 0
 470 19 442 -11 406 -11 c 1
 370 -11 340 20 340 56 c 0
EndSplineSet
EndChar

StartChar: perthousand
Encoding: 8240 8240 209
Width: 1037
Flags: W
HStem: -4 28<457.649 524.409 798.649 865.409> 282 27<442.859 509.034 783.859 850.034> 331 28<162.706 231.539> 616 27<149.859 216.125>
VStem: 37 80<404.976 567.758> 262 80<406.139 570.672> 330 80<70.2255 232.248> 554 80<71.7888 237.932> 671 80<70.2255 232.248> 895 80<71.7888 237.932>
LayerCount: 2
Fore
SplineSet
818 282 m 1xf9c0
 764 282 751 218 751 164 c 0
 751 100 781 24 831 24 c 1
 885 24 895 90 895 142 c 0
 895 205 869 282 818 282 c 1xf9c0
824 309 m 0
 914 309 975 240 975 154 c 0
 975 72 914 -4 824 -4 c 0
 736 -4 671 65 671 151 c 0
 671 237 736 309 824 309 c 0
184 616 m 1
 130 616 117 552 117 498 c 0
 117 434 147 359 197 359 c 1
 251 359 262 424 262 476 c 0xfdc0
 262 539 235 616 184 616 c 1
190 643 m 0
 280 643 342 574 342 488 c 0
 342 406 280 331 190 331 c 0
 102 331 37 400 37 486 c 0
 37 572 102 643 190 643 c 0
477 282 m 1
 423 282 410 218 410 164 c 0xfbc0
 410 100 440 24 490 24 c 1
 544 24 554 90 554 142 c 0
 554 205 528 282 477 282 c 1
483 309 m 0
 573 309 634 240 634 154 c 0
 634 72 573 -4 483 -4 c 0
 395 -4 330 65 330 151 c 0
 330 237 395 309 483 309 c 0
608 630 m 1
 108 -2 l 2
 104 -8 86 -16 72 -16 c 0
 58 -16 55 -5 55 -4 c 1
 554 628 l 1
 560 634 572 640 584 640 c 0
 603 640 604 637 608 630 c 1
EndSplineSet
EndChar

StartChar: minute
Encoding: 8242 8242 210
Width: 156
Flags: W
HStem: 489 210<54.0928 65.8095>
VStem: 34 96
LayerCount: 2
Fore
SplineSet
95 699 m 0
 110 699 130 691 130 671 c 0
 130 624 87 544 59 498 c 0
 55 492 50 489 46 489 c 0
 40 489 34 494 34 501 c 0
 34 504 40 612 48 666 c 0
 50 678 76 699 95 699 c 0
EndSplineSet
EndChar

StartChar: second
Encoding: 8243 8243 211
Width: 285
Flags: W
HStem: 489 210<54.0928 65.8095 178.093 189.775>
VStem: 34 218
LayerCount: 2
Fore
SplineSet
219 699 m 0
 234 699 252 691 252 671 c 0
 252 624 211 544 183 498 c 0
 179 492 174 489 170 489 c 0
 164 489 158 494 158 501 c 0
 158 504 164 612 172 666 c 0
 174 678 200 699 219 699 c 0
95 699 m 0
 110 699 130 691 130 671 c 0
 130 624 87 544 59 498 c 0
 55 492 50 489 46 489 c 0
 40 489 34 494 34 501 c 0
 34 504 40 612 48 666 c 0
 50 678 76 699 95 699 c 0
EndSplineSet
EndChar

StartChar: uni2038
Encoding: 8248 8248 212
Width: 365
Flags: W
HStem: -57 158
VStem: 56 218
LayerCount: 2
Fore
SplineSet
266 -57 m 0
 255 -57 193 -11 165 13 c 1
 137 -12 77 -57 66 -57 c 0
 60 -57 56 -41 56 -33 c 1
 63 -25 83 -5 116 37 c 0
 134 59 144 76 154 92 c 0
 158 99 160 101 165 101 c 1
 170 101 172 98 176 92 c 0
 187 76 196 59 212 39 c 0
 246 -5 270 -28 274 -33 c 1
 274 -43 272 -57 266 -57 c 0
EndSplineSet
EndChar

StartChar: guilsinglleft
Encoding: 8249 8249 213
Width: 492
Flags: W
HStem: 170 166
VStem: 34 233
LayerCount: 2
Fore
SplineSet
210 247 m 0
 210 255 212 258 216 264 c 1
 347 343 423 421 426 423 c 1
 437 420 447 414 450 408 c 1
 445 394 351 286 309 248 c 1
 351 210 445 102 450 88 c 1
 447 82 437 75 426 72 c 1
 423 74 347 153 216 232 c 1
 213 236 210 241 210 247 c 0
EndSplineSet
EndChar

StartChar: guilsinglright
Encoding: 8250 8250 214
Width: 492
Flags: W
LayerCount: 2
Fore
SplineSet
450 247 m 0
 450 255 448 258 444 264 c 1
 313 343 237 421 234 423 c 1
 223 420 213 414 210 408 c 1
 215 394 309 286 351 248 c 1
 309 210 215 102 210 88 c 1
 213 82 223 75 234 72 c 1
 237 74 313 153 444 232 c 1
 447 236 450 241 450 247 c 0
EndSplineSet
EndChar

StartChar: uni203E
Encoding: 8254 8254 215
Width: 561
Flags: W
HStem: 736 68<-12.0258 577.903>
LayerCount: 2
Fore
SplineSet
-16 746 m 0
 -16 748 -13 804 -2 804 c 2
 580 804 l 2
 582 804 586 803 586 795 c 0
 586 777 579 748 578 744 c 0
 576 738 570 736 570 736 c 1
 -10 736 l 1
 -10 736 -16 736 -16 746 c 0
EndSplineSet
EndChar

StartChar: Euro
Encoding: 8364 8364 216
Width: 671
Flags: W
HStem: -6 38.5<321.498 496.422> 244 43<19.7158 382.062> 342 43<19.7158 382.062> 603.263 38.5<307.638 484.302>
VStem: 53.7129 125.125<245.696 338.111> 593.675 32.7256<145.345 184.864>
LayerCount: 2
Fore
SplineSet
28 287 m 1
 44 287 375 287 386 287 c 1
 400 276 382 248 376 244 c 1
 8 244 l 17
 2 250 19 287 28 287 c 1
28 385 m 1
 44 385 375 385 386 385 c 1
 400 374 382 346 376 342 c 1
 8 342 l 17
 2 348 19 385 28 385 c 1
382.888 641.763 m 0
 446.412 641.763 521.487 635.987 585.013 622.513 c 1
 585.975 616.737 612.925 489.688 612.925 479.1 c 1
 612.925 471.4 600.412 463.7 589.825 463.7 c 1
 584.05 463.7 579.237 464.662 576.35 468.513 c 1
 568.65 502.2 537.85 603.263 389.625 603.263 c 0
 251.025 603.263 178.838 469.475 178.838 334.725 c 0
 178.838 184.575 251.025 32.5 406.95 32.5 c 0
 465.662 32.5 503.2 50.7871 530.15 74.8496 c 0
 569.612 109.5 589.825 171.1 593.675 190.35 c 1
 607.15 190.35 622.55 184.575 626.4 180.725 c 1
 626.4 165.325 602.338 46.9375 588.862 38.2754 c 1
 532.075 12.2871 468.55 -6 380 -6 c 0
 194.237 -6 53.7129 133.562 53.7129 309.7 c 0
 53.7129 492.575 196.162 641.763 382.888 641.763 c 0
EndSplineSet
EndChar

StartChar: partialdiff
Encoding: 8706 8706 217
Width: 489
Flags: W
HStem: 0 44<187.925 288.443> 324 45<176.302 290.582> 588 50<124.348 253.679>
VStem: 44 100<95.5192 271.199> 328 106<150.952 450.257>
LayerCount: 2
Fore
SplineSet
328 218 m 1
 328 290 278 324 222 324 c 0
 170 324 144 264 144 204 c 0
 144 106 180 44 244 44 c 0
 301 44 328 124 328 218 c 1
210 0 m 0
 112 0 44 72 44 184 c 0
 44 285 125 369 238 369 c 0
 271 369 306 356 324 350 c 0
 329 348 333 356 333 362 c 1
 335 406 318 516 268 556 c 0
 238 581 210 588 182 588 c 1
 142 588 103 565 74 543 c 1
 70 547 62 562 68 572 c 0
 83 595 139 638 224 638 c 1
 379 638 434 438 434 288 c 1
 434 115 350 0 210 0 c 0
EndSplineSet
EndChar

StartChar: uni2206
Encoding: 8710 8710 218
Width: 676
Flags: W
HStem: 0 68<111.911 511>
LayerCount: 2
Fore
SplineSet
514 76 m 2
 320 464 l 1
 316 467 312 468 308 462 c 2
 112 80 l 1
 110 73 115 68 120 68 c 2
 511 68 l 2
 515 68 516 72 514 76 c 2
350 613 m 1
 652 14 l 1
 652 14 646 8 644 0 c 1
 33 0 l 1
 29 6 28 9 24 16 c 1
 333 613 l 1
 350 613 l 1
EndSplineSet
EndChar

StartChar: gradient
Encoding: 8711 8711 219
Width: 676
Flags: W
HStem: 573 69<164 562.089>
LayerCount: 2
Fore
SplineSet
161 566 m 2
 355 178 l 1
 359 175 363 174 367 180 c 2
 562 562 l 1
 564 569 560 573 555 573 c 2
 164 573 l 2
 160 573 159 570 161 566 c 2
326 28 m 1
 24 628 l 1
 24 628 30 634 32 642 c 1
 642 642 l 1
 646 636 648 633 652 626 c 1
 342 28 l 1
 326 28 l 1
EndSplineSet
EndChar

StartChar: element
Encoding: 8712 8712 220
Width: 455
Flags: W
HStem: 10 54<155.854 423.376> 190 54<96.0044 378> 372 54<154.089 423.616>
VStem: 29 67<173.538 310.126>
LayerCount: 2
Fore
SplineSet
386 218 m 0
 386 191 378 190 377 190 c 1
 101 190 l 2
 100 190 95 189 96 186 c 0
 108 123 155 64 222 64 c 2
 410 64 l 1
 410 64 425 59 425 24 c 0
 425 15 418 10 418 10 c 1
 224 10 l 2
 112 10 29 106 29 218 c 0
 29 327 105 426 214 426 c 2
 418 426 l 1
 418 426 425 421 425 409 c 0
 425 378 410 372 410 372 c 1
 214 372 l 2
 151 372 107 311 96 249 c 0
 96 246 98 244 101 244 c 2
 378 244 l 1
 378 243 386 235 386 218 c 0
EndSplineSet
EndChar

StartChar: radical
Encoding: 8730 8730 221
Width: 515
Flags: W
LayerCount: 2
Fore
SplineSet
8 159 m 1
 -6 165 -15 178 -15 186 c 0
 -15 196 -2 203 8 209 c 0
 42 231 133 296 147 308 c 0
 155 315 171 315 174 307 c 1
 183 275 192 254 198 238 c 2
 301 8 l 1
 309 51 446 791 446 791 c 1
 494 788 l 1
 494 788 343 -25 318 -153 c 1
 303 -171 283 -176 277 -176 c 0
 273 -176 269 -176 267 -172 c 2
 95 208 l 1
 8 159 l 1
EndSplineSet
EndChar

StartChar: proportional
Encoding: 8733 8733 222
Width: 670
Flags: W
HStem: 94 36<441.499 471.5>
LayerCount: 2
Fore
SplineSet
366 170 m 1
 370 135 396 100 431 94 c 1
 464 84 483 110 500 130 c 1
 435 130 400 191 394 191 c 1
 378 211 344 262 309 262 c 1
 249 230 287 200 203 200 c 0
 121 200 155 244 120 292 c 0
 86 346 200 394 220 394 c 0
 234 394 338 356 324 332 c 0
 290 331 361 330 327 331 c 0
 314 357 416 394 420 394 c 0
 390 394 463 380 428 368 c 0
 394 364 463 357 425 357 c 0
 389 357 454 357 416 357 c 0
 348 357 380 301 346 301 c 0
 323 286 328 204 366 170 c 1
366 136 m 1
 300 101 293 145 314 145 c 1
 347 145 372 183 384 199 c 1
 358 169 292 196 204 196 c 0
 130 196 370 172 366 136 c 1
EndSplineSet
EndChar

StartChar: infinity
Encoding: 8734 8734 223
Width: 889
Flags: W
HStem: 41 66<174.282 306.106 596.214 713.612> 357 67<177.191 290.312 581.983 710.37>
VStem: 50 79<153.984 305.871> 756 80<154.613 307.016>
LayerCount: 2
Fore
SplineSet
641 362 m 0
 580 362 519 277 493 246 c 0
 492 245 491 245 492 244 c 0
 526 200 587 107 656 107 c 0
 715 107 756 166 756 233 c 0
 756 304 705 362 641 362 c 0
129 229 m 0
 129 159 179 104 241 104 c 0
 307 104 359 180 393 218 c 0
 394 219 394 219 393 220 c 0
 369 252 304 357 234 357 c 0
 173 357 129 297 129 229 c 0
246 424 m 0
 343 424 414 342 455 294 c 0
 456 292 460 290 461 292 c 0
 503 345 571 424 668 424 c 0
 763 424 836 337 836 242 c 0
 836 132 746 41 636 41 c 0
 505 41 437 171 426 171 c 2
 425 171 l 1
 372 108 311 39 213 39 c 0
 118 39 50 128 50 223 c 0
 50 332 137 424 246 424 c 0
EndSplineSet
EndChar

StartChar: notequal
Encoding: 8800 8800 224
Width: 572
Flags: W
HStem: 113 64<60.0952 198 290 507.905> 255 64<60.0945 276 370 507.905>
LayerCount: 2
Fore
SplineSet
370 319 m 1
 512 319 l 2
 515 319 518 320 518 314 c 0
 518 305 514 283 508 261 c 0
 506 255 502 255 502 255 c 1
 334 255 l 1
 290 177 l 1
 510 177 l 2
 514 177 518 179 518 172 c 0
 518 163 514 141 508 119 c 0
 506 113 502 113 502 113 c 1
 254 113 l 1
 200 14 l 1
 198 13 197 12 193 12 c 0
 190 12 173 16 160 32 c 0
 156 36 156 40 156 40 c 1
 198 113 l 1
 58 113 l 1
 58 113 50 113 50 123 c 0
 50 127 53 148 60 172 c 0
 62 178 66 177 66 177 c 1
 233 177 l 1
 276 255 l 1
 58 255 l 1
 58 255 50 255 50 265 c 1
 50 267 53 294 60 314 c 0
 62 318 65 319 66 319 c 1
 312 319 l 1
 364 413 l 1
 364 413 367 416 371 416 c 0
 380 416 392 410 402 398 c 0
 407 393 408 388 408 388 c 1
 370 319 l 1
EndSplineSet
EndChar

StartChar: lessequal
Encoding: 8804 8804 225
Width: 516
Flags: W
HStem: 6 56<38.7337 434.089>
LayerCount: 2
Fore
SplineSet
432 62 m 1
 432 62 440 63 438 51 c 0
 431 3 427 9 424 6 c 1
 42 6 l 1
 42 6 32 5 34 19 c 0
 36 33 38 37 44 57 c 0
 46 63 50 62 50 62 c 1
 432 62 l 1
446 136 m 0
 446 129 436 86 430 86 c 0
 429 86 428 87 426 88 c 2
 50 279 l 2
 35 287 32 301 32 318 c 0
 32 329 40 337 50 342 c 2
 420 529 l 2
 422 530 423 531 424 531 c 0
 427 531 435 521 442 484 c 0
 443 478 438 475 438 475 c 1
 112 310 l 1
 444 142 l 1
 444 142 446 141 446 136 c 0
EndSplineSet
EndChar

StartChar: greaterequal
Encoding: 8805 8805 226
Width: 515
Flags: W
HStem: 6 56<73.0783 465.903>
LayerCount: 2
Fore
SplineSet
72 483 m 0
 72 501 84 531 88 531 c 0
 89 531 90 530 92 529 c 2
 462 342 l 2
 472 337 480 329 480 318 c 0
 480 301 477 287 462 279 c 2
 88 88 l 2
 83 86 81 82 76 95 c 0
 70 110 66 132 66 136 c 0
 66 140 68 142 68 142 c 1
 400 310 l 1
 74 475 l 1
 74 475 72 476 72 483 c 0
70 15 m 0
 70 16 73 62 84 62 c 2
 468 62 l 2
 470 62 474 61 474 54 c 0
 474 46 471 29 466 13 c 0
 464 7 458 6 458 6 c 1
 76 6 l 1
 76 6 70 5 70 15 c 0
EndSplineSet
EndChar

StartChar: dotlessi
Encoding: 305 305 227
Width: 294
Flags: HW
HStem: -4 33<30.0596 95.0909 212.527 274.56> 365 28<29.6177 90.5498> 421 20G<180.81 203.31>
VStem: 102.31 104<36.3778 356.638>
LayerCount: 2
Fore
SplineSet
206.31 317 m 1
 206.31 130 l 2
 206.31 96 206.31 64 212.31 46 c 0
 216.31 34 260.31 29 272.31 29 c 1
 276.31 23 276.31 2 272.31 -4 c 1
 232.31 -1 193.31 2 153.31 2 c 0
 113.31 2 72.3096 -1 32.3096 -4 c 1
 28.3096 2 28.3096 23 32.3096 29 c 1
 44.3096 29 91.3096 34 95.3096 46 c 0
 101.31 64 102 94 102.31 130 c 2
 102.309570312 282 l 2
 102.309570312 294 101.309570312 335 95.3095703125 349 c 0
 87.3095703125 365 38.3095703125 368 31.3095703125 368 c 1
 29.3095703125 370 27.3095703125 394 31.3095703125 396 c 1
 95.3095703125 402 161.309570312 424 200.309570312 444 c 1
 206.309570312 443 214.309570312 431 214.309570312 427 c 1
 212.309570312 419 206.31 377 206.31 365 c 1
 206.31 354 206.31 320 206.31 317 c 1
EndSplineSet
EndChar

StartChar: uni0302
Encoding: 770 770 228
Width: 365
Flags: W
HStem: 492 158
VStem: 56 218
LayerCount: 2
Fore
SplineSet
266 492 m 0
 255 492 193 538 165 562 c 1
 137 537 77 492 66 492 c 0
 60 492 56 508 56 516 c 1
 63 524 83 544 116 586 c 0
 134 608 144 625 154 641 c 0
 158 648 160 650 165 650 c 1
 170 650 172 647 176 641 c 0
 187 625 196 608 212 588 c 0
 246 544 270 521 274 516 c 1
 274 506 272 492 266 492 c 0
EndSplineSet
EndChar

StartChar: tildecomb
Encoding: 771 771 229
Width: 693
Flags: W
HStem: 512 54<214.164 304.086> 568 54<87.5203 176.165>
VStem: 56 282
LayerCount: 2
Fore
SplineSet
138 622 m 0
 166 622 185 607 205 594 c 0
 226 580 254 566 270 566 c 0
 310 566 323 608 331 612 c 1
 337 612 338 605 338 601 c 0
 338 585 328 567 322 556 c 0
 304 528 280 512 254 512 c 0
 226 512 208 525 188 538 c 0
 167 552 142 568 122 568 c 0
 82 568 73 525 65 521 c 1
 59 521 56 530 56 534 c 0
 56 550 64 567 70 578 c 0
 88 606 112 622 138 622 c 0
EndSplineSet
EndChar

StartChar: uni0304
Encoding: 772 772 230
Width: 415
Flags: W
HStem: 558 44<70.2435 319.866>
VStem: 69 253<558.423 602>
LayerCount: 2
Fore
SplineSet
69 567 m 0
 69 581 74 602 81 602 c 2
 316 602 l 2
 318 602 322 601 322 594 c 0
 322 578 314 567 312 558 c 1
 73 558 l 1
 73 558 69 561 69 567 c 0
EndSplineSet
EndChar

StartChar: gravecomb.cap
Encoding: 65536 -1 231
Width: 245
Flags: W
HStem: 726 137
VStem: 27 192
LayerCount: 2
Fore
SplineSet
219 743 m 0
 219 735 212 726 206 726 c 0
 190 726 27 794 27 830 c 0
 27 850 53 863 81 863 c 0
 89 863 95 862 99 860 c 0
 139 830 219 751 219 743 c 0
EndSplineSet
EndChar

StartChar: acutecomb.cap
Encoding: 65537 -1 232
Width: 245
Flags: W
HStem: 726 137
VStem: 27 192
LayerCount: 2
Fore
SplineSet
27 743 m 0
 27 751 106 830 146 860 c 0
 150 862 156 863 164 863 c 0
 192 863 219 850 219 830 c 0
 219 794 55 726 39 726 c 0
 33 726 27 735 27 743 c 0
EndSplineSet
EndChar

StartChar: uni0302.cap
Encoding: 65538 -1 233
Width: 305
Flags: W
HStem: 715 136
VStem: 34 244
LayerCount: 2
Fore
SplineSet
268 715 m 0
 256 715 187 755 156 775 c 1
 125 753 56 715 44 715 c 0
 37 715 34 728 34 734 c 1
 42 742 65 759 101 795 c 0
 121 814 134 828 144 842 c 0
 149 848 151 851 155 851 c 0
 159 851 164 847 168 842 c 0
 180 828 190 814 208 796 c 0
 246 758 274 738 278 734 c 1
 278 726 274 715 268 715 c 0
EndSplineSet
EndChar

StartChar: uni030A.cap
Encoding: 65539 -1 234
Width: 381
Flags: W
HStem: 581 40<139.377 220.526> 730 39<139.377 220.526>
VStem: 86 40<634.349 717.162> 234 39<634.778 716.744>
LayerCount: 2
Fore
SplineSet
126 676 m 0
 126 646 150 621 180 621 c 0
 210 621 234 646 234 676 c 0
 234 706 210 730 180 730 c 0
 150 730 126 706 126 676 c 0
86 676 m 0
 86 728 129 769 180 769 c 0
 231 769 273 728 273 676 c 0
 273 624 231 581 180 581 c 0
 129 581 86 624 86 676 c 0
EndSplineSet
EndChar

StartChar: uni030A
Encoding: 778 778 235
Width: 362
Flags: W
HStem: 506 40<133.96 215.551> 655 39<134.377 215.145>
VStem: 81 40<558.742 641.555> 228 39<558.742 641.555>
LayerCount: 2
Fore
SplineSet
121 600 m 0
 121 570 145 546 175 546 c 0
 205 546 228 570 228 600 c 0
 228 630 205 655 175 655 c 0
 145 655 121 630 121 600 c 0
81 600 m 0
 81 652 124 694 175 694 c 0
 226 694 267 652 267 600 c 0
 267 548 226 506 175 506 c 0
 124 506 81 548 81 600 c 0
EndSplineSet
EndChar

StartChar: tildecomb.cap
Encoding: 65540 -1 236
Width: 675
Flags: W
HStem: 731 52<304.549 411.983> 785 51<154.017 261.206>
VStem: 118 331
LayerCount: 2
Fore
SplineSet
215 836 m 0
 247 836 270 824 294 811 c 0
 319 797 348 783 366 783 c 0
 413 783 432 823 441 827 c 1
 445 827 449 819 449 815 c 0
 449 800 440 783 432 773 c 0
 410 746 382 731 351 731 c 0
 319 731 297 743 273 756 c 0
 248 770 224 785 200 785 c 0
 153 785 134 743 125 739 c 1
 121 739 118 748 118 752 c 0
 118 767 126 784 134 794 c 0
 156 821 184 836 215 836 c 0
EndSplineSet
EndChar

StartChar: uni0304.cap
Encoding: 65541 -1 237
Width: 412
Flags: W
HStem: 652 43<63.0021 347.333>
VStem: 62 286<652.24 695>
LayerCount: 2
Fore
SplineSet
62 666 m 0
 62 673 67 695 74 695 c 2
 342 695 l 2
 344 695 348 693 348 686 c 0
 348 670 345 657 341 652 c 1
 333 652 109 652 67 652 c 1
 63 654 62 660 62 666 c 0
EndSplineSet
EndChar

StartChar: uni0306.cap
Encoding: 65542 -1 238
Width: 253
Flags: W
HStem: 615 50<62.7721 188.706>
VStem: 16 22<701.106 710.247> 212 22<700.332 710.247>
LayerCount: 2
Fore
SplineSet
212 718 m 1
 220 717 234 707 234 700 c 0
 234 698 235 696 234 694 c 0
 213 644 170 615 126 615 c 0
 82 615 39 644 18 694 c 0
 17 696 16 698 16 700 c 0
 16 707 30 717 38 718 c 1
 52 689 84 665 126 665 c 0
 169 665 198 687 212 718 c 1
EndSplineSet
EndChar

StartChar: uni0306
Encoding: 774 774 239
Width: 254
Flags: W
HStem: 574 30<38.9359 109.735 140.692 210.412>
VStem: 225 2<626.541 628.999>
LayerCount: 2
Fore
SplineSet
171 604 m 1
 195 604 220 611 225 629 c 1
 225 629 227 628 227 627 c 0
 223 601 209 576 182 574 c 0
 155 574 131 590 123 616 c 0
 118 590 95 569 68 570 c 1
 41 574 25 604 24 632 c 1
 28 622 48 602 72 602 c 0
 97 604 145 594 171 604 c 1
EndSplineSet
EndChar

StartChar: uni0327.cap
Encoding: 65543 -1 240
Width: 757
Flags: W
HStem: -170 29<170.606 254.51> -68 42<235 260.746>
VStem: 264 51<-135.774 -69.8225>
LayerCount: 2
Fore
SplineSet
235 -27 m 1
 239 -27 257 -26 262 -26 c 1
 292 -26 315 -51 315 -81 c 0
 315 -133 271 -170 208 -170 c 0
 189 -170 170 -163 162 -157 c 1
 160 -153 158 -144 158 -138 c 0
 158 -131 164 -126 168 -126 c 1
 177 -127 193 -141 214 -141 c 0
 248 -141 264 -124 264 -106 c 0
 264 -84 251 -68 232 -68 c 0
 222 -68 214 -72 202 -76 c 1
 200 -76 189 -66 190 -60 c 1
 200 -43 216 -17 224 -1 c 1
 253 -1 l 1
 253 -1 237 -22 235 -27 c 1
EndSplineSet
EndChar

StartChar: uni0327
Encoding: 807 807 241
Width: 464
Flags: W
HStem: -154 28<167.335 249.304> -64 37<214.234 253.171>
VStem: 256 44<-122.385 -64.8705>
LayerCount: 2
Fore
SplineSet
228 -28 m 1
 228 -28 246 -27 250 -27 c 1
 278 -27 300 -51 300 -77 c 0
 300 -124 260 -154 204 -154 c 0
 187 -154 169 -148 163 -142 c 1
 162 -138 160 -131 160 -126 c 0
 160 -119 167 -112 171 -112 c 0
 179 -112 195 -126 214 -126 c 0
 242 -126 256 -111 256 -95 c 0
 256 -76 243 -64 228 -64 c 0
 220 -64 210 -66 200 -70 c 0
 198 -70 186 -60 188 -56 c 0
 197 -41 210 -17 218 -3 c 1
 244 -3 l 1
 228 -28 l 1
EndSplineSet
EndChar

StartChar: uni0307.cap
Encoding: 65544 -1 242
Width: 297
Flags: W
HStem: 716 118<118.662 208.745>
VStem: 105 117<729.255 819.932>
LayerCount: 2
Fore
SplineSet
105 774 m 0
 105 806 132 834 164 834 c 0
 196 834 222 806 222 774 c 0
 222 742 196 716 164 716 c 0
 132 716 105 742 105 774 c 0
EndSplineSet
EndChar

StartChar: uni0305
Encoding: 773 773 243
Width: 561
Flags: W
HStem: 736 68<-12.0258 577.903>
LayerCount: 2
Fore
SplineSet
-16 746 m 0
 -16 748 -13 804 -2 804 c 2
 580 804 l 2
 582 804 586 803 586 795 c 0
 586 777 579 748 578 744 c 0
 576 738 570 736 570 736 c 1
 -10 736 l 1
 -10 736 -16 736 -16 746 c 0
EndSplineSet
EndChar

StartChar: uni030B.cap
Encoding: 65545 -1 244
Width: 403
Flags: W
HStem: 702 136
LayerCount: 2
Fore
SplineSet
342 838 m 0
 376 831 380 809 379 803 c 0
 371 765 208 700 198 702 c 0
 191 703 186 714 187 720 c 0
 188 725 262 802 306 836 c 0
 312 840 328 841 342 838 c 0
180 838 m 0
 214 831 218 809 217 803 c 0
 209 765 46 700 36 702 c 0
 29 703 24 714 25 720 c 0
 26 725 100 802 144 836 c 0
 150 840 166 841 180 838 c 0
EndSplineSet
EndChar

StartChar: uni0308.cap
Encoding: 65546 -1 245
Width: 392
Flags: W
HStem: 742 116<41.7644 134.236 255.255 346.338>
VStem: 29 118<755.255 844.745> 242 118<755.255 844.745>
LayerCount: 2
Fore
SplineSet
301 858 m 1
 333 858 360 832 360 800 c 1
 360 768 332 742 300 742 c 1
 268 742 242 768 242 800 c 1
 242 832 269 858 301 858 c 1
88 858 m 1
 120 858 147 832 147 800 c 1
 147 768 120 742 88 742 c 1
 56 742 29 768 29 800 c 1
 29 832 56 858 88 858 c 1
EndSplineSet
EndChar

StartChar: uni0308
Encoding: 776 776 246
Width: 354
Flags: W
HStem: 468 116<35.7644 127.003 222.255 312.152>
VStem: 23 116<481.255 570.745> 209 116<480.381 570.745>
LayerCount: 2
Fore
SplineSet
268 584 m 0
 300 584 325 558 325 526 c 0
 325 494 299 468 267 468 c 0
 235 468 209 494 209 526 c 0
 209 558 236 584 268 584 c 0
82 584 m 0
 114 584 139 558 139 526 c 0
 139 494 114 468 82 468 c 0
 50 468 23 494 23 526 c 0
 23 558 50 584 82 584 c 0
EndSplineSet
EndChar

StartChar: uni0308.narrow
Encoding: 65547 -1 247
Width: 349
Flags: W
HStem: 505 118<40.4751 131.932 222.068 313.525>
VStem: 26 120<518.662 608.416> 208 120<519.584 609.338>
LayerCount: 2
Fore
SplineSet
268 623 m 0
 300 623 328 596 328 564 c 0
 328 532 299 505 267 505 c 0
 235 505 208 532 208 564 c 0
 208 596 236 623 268 623 c 0
87 623 m 0
 119 623 146 596 146 564 c 0
 146 532 118 505 86 505 c 0
 54 505 26 532 26 564 c 0
 26 596 55 623 87 623 c 0
EndSplineSet
EndChar

StartChar: uni0307
Encoding: 775 775 248
Width: 297
Flags: W
HStem: 508 118<94.6616 184.745>
VStem: 81 117<521.662 612.338>
LayerCount: 2
Fore
SplineSet
81 567 m 0
 81 599 108 626 140 626 c 0
 172 626 198 599 198 567 c 0
 198 535 172 508 140 508 c 0
 108 508 81 535 81 567 c 0
EndSplineSet
EndChar

StartChar: hookabovecomb
Encoding: 777 777 249
Width: 181
Flags: W
HStem: 631 34<76.1773 127.045>
VStem: 18 54<575.479 628.564> 52 45<489.1 536.256> 130 48<565.744 630.184>
LayerCount: 2
Fore
SplineSet
116 665 m 0xd0
 154 665 178 642 178 610 c 0
 178 575 152 550 127 540 c 0
 107 532 97 526 97 514 c 1
 97 509 100 503 102 500 c 1
 102 496 84 489 74 489 c 1
 68 491 52 502 52 514 c 1
 52 540 81 552 97 560 c 0xb0
 119 570 130 582 130 600 c 0
 130 614 124 631 104 631 c 0
 82 631 72 618 72 595 c 0
 72 579 50 574 37 574 c 0
 29 574 18 579 18 587 c 0
 18 629 70 665 116 665 c 0xd0
EndSplineSet
EndChar

StartChar: uni030B
Encoding: 779 779 250
Width: 374
Flags: W
HStem: 524 162<178 195>
VStem: 38 304
LayerCount: 2
Fore
SplineSet
298 686 m 0
 333 686 342 666 342 660 c 0
 342 621 195 524 185 524 c 0
 178 524 170 534 170 540 c 0
 170 546 228 636 264 678 c 0
 269 683 284 686 298 686 c 0
164 686 m 0
 199 686 208 666 208 660 c 0
 208 621 62 524 52 524 c 0
 45 524 38 534 38 540 c 0
 38 546 94 636 130 678 c 0
 135 683 150 686 164 686 c 0
EndSplineSet
EndChar

StartChar: uni030C
Encoding: 780 780 251
Width: 365
Flags: W
HStem: 493 158
VStem: 56 218
LayerCount: 2
Fore
SplineSet
165 581 m 1
 193 605 255 651 266 651 c 0
 272 651 274 638 274 628 c 1
 270 623 246 600 212 556 c 0
 196 536 187 518 176 502 c 0
 172 496 171 493 166 493 c 1
 162 493 158 495 154 502 c 0
 144 518 134 535 116 557 c 0
 83 599 63 620 56 628 c 1
 56 636 60 651 66 651 c 0
 77 651 137 606 165 581 c 1
EndSplineSet
EndChar

StartChar: uni0312
Encoding: 786 786 253
Width: 222
Flags: W
HStem: 478 174
VStem: 19 77<519 586.808>
LayerCount: 2
Fore
SplineSet
84 478 m 0
 66 475 42 481 32 486 c 1
 24 495 19 512 19 526 c 0
 19 585 78 632 134 652 c 1
 142 651 153 644 153 640 c 1
 137 632 96 606 96 578 c 0
 96 560 140 558 140 523 c 0
 140 509 126 486 84 478 c 0
EndSplineSet
EndChar

StartChar: uni0326
Encoding: 806 806 254
Width: 222
Flags: W
HStem: -220 174
VStem: 78 76<-154.45 -86>
LayerCount: 2
Fore
SplineSet
89 -46 m 0
 107 -43 132 -48 142 -53 c 1
 150 -62 154 -79 154 -93 c 0
 154 -152 96 -200 40 -220 c 1
 32 -219 20 -211 20 -207 c 1
 36 -199 78 -174 78 -146 c 0
 78 -128 34 -125 34 -90 c 0
 34 -76 47 -54 89 -46 c 0
EndSplineSet
EndChar

StartChar: uni0315
Encoding: 789 789 255
Width: 216
Flags: W
HStem: 459 211
VStem: 118 66<533.807 625.5>
LayerCount: 2
Fore
SplineSet
143 670 m 0
 151 670 161 667 168 664 c 1
 175 654 184 642 184 609 c 0
 184 559 150 503 104 459 c 1
 97 459 83 465 83 470 c 1
 104 493 118 520 118 550 c 0
 118 597 86 594 86 628 c 0
 86 646 108 670 143 670 c 0
EndSplineSet
EndChar

StartChar: dotbelowcomb
Encoding: 803 803 256
Width: 296
Flags: W
HStem: -162 124<104.2 197.8>
VStem: 89 124<-146.8 -53.2003>
LayerCount: 2
Fore
SplineSet
89 -100 m 0
 89 -66 117 -38 151 -38 c 0
 185 -38 213 -66 213 -100 c 0
 213 -134 185 -162 151 -162 c 0
 117 -162 89 -134 89 -100 c 0
EndSplineSet
EndChar

StartChar: uni0237
Encoding: 567 567 359
Width: 257
Flags: HW
HStem: 365 28<14.5928 73.77> 421 20G<166.5 189>
VStem: 87 104<-43.2009 356.638>
LayerCount: 2
Fore
SplineSet
-17 -202 m 1
 13 -180 87 -132 87 54 c 2
 87 282 l 2
 87 294 86 335 80 349 c 0
 72 365 23 368 16 368 c 1
 14 370 13 394 17 396 c 1
 81 402 147 424 186 444 c 1
 192 443 200 431 200 427 c 1
 198 419 191 379 191 365 c 1
 191 354 191 319 191 316 c 1
 191 94 l 1
 191 -44 136 -128 82 -172 c 0
 50 -198 4 -217 -11 -217 c 1
 -15 -214 -17 -206 -17 -202 c 1
EndSplineSet
EndChar

StartChar: Aogonek
Encoding: 260 260 361
Width: 653
Flags: W
HStem: -221 64<488.71 554.436> -4 21G<-10.8613 11.1387> 3 27<139.657 201.264 397.327 455.664 606.858 655.611> 238 48<207.139 379.138> 642 20G<330.139 338.139>
VStem: 419.139 64<-151.708 -84.9346>
LayerCount: 2
Fore
SplineSet
295.139 506 m 1x9c
 207.139 290 l 1
 207.139 290 207.139 286 209.139 286 c 0
 232.139 284 271.139 283 294.139 283 c 0
 325.139 283 345.139 284 376.139 286 c 0
 378.139 286 379.139 291 379.139 291 c 1
 295.139 506 l 1x9c
655.139 -4 m 1xdc
 642.139 -3 631.139 -2 616.139 -1 c 0
 550.139 4 483.139 -68 483.139 -112 c 0
 483.139 -130 492.139 -157 528.139 -157 c 0
 568.139 -157 598.139 -122 606.139 -118 c 0
 608.139 -118 611.139 -122 611.139 -130 c 0
 611.139 -135 608.139 -148 605.139 -152 c 0
 587.139 -176 541.139 -221 491.139 -221 c 0
 447.139 -221 419.139 -184 419.139 -144 c 0
 419.139 -92 484.139 -26 538.139 3 c 1
 536.139 3 535.139 3 533.139 3 c 0xbc
 487.139 3 441.139 -2 400.139 -4 c 1xdc
 395.139 1 395.139 28 400.139 30 c 1
 414.139 30 446.139 35 458.139 45 c 0
 462.139 49 464.139 54 464.139 60 c 0
 464.139 80 401.139 234 401.139 234 c 1
 401.139 234 398.139 238 395.139 238 c 0
 363.139 240 321.139 238 296.139 238 c 0
 255.139 238 232.139 238 192.139 236 c 0
 190.139 236 186.139 233 186.139 232 c 2
 186.139 232 159.139 168 145.139 130 c 0
 134.139 100 127.139 70 127.139 60 c 0
 127.139 35 191.139 30 199.139 30 c 1xbc
 203.139 25 202.139 1 200.139 -4 c 1xdc
 162.139 -1 142.139 3 98.1387 3 c 0xbc
 52.1387 3 31.1387 -1 -8.86133 -4 c 1xdc
 -12.8613 0 -12.8613 20 -9.86133 29 c 1
 2.13867 29 44.1387 40 54.1387 54 c 0
 72.1387 81 82.1387 104 95.1387 136 c 2
 95.1387 136 268.139 551 298.139 629 c 0
 304.139 643 325.139 662 335.139 662 c 0
 341.139 662 347.139 660 349.139 658 c 1
 553.139 137 l 2
 566.139 103 575.139 80 580.139 68 c 0
 594.139 36 645.139 30 653.139 30 c 1xbc
 658.139 22 657.139 0 655.139 -4 c 1xdc
EndSplineSet
EndChar

StartChar: aogonek
Encoding: 261 261 362
Width: 452
Flags: W
HStem: -218 64<273.806 339.297> -8 62<121.5 218.679> 404 38<161.586 279>
VStem: 33 109<70.8169 168.107> 47 94<294.202 362.528> 204 64<-148.127 -79.6663> 271 103<65.8703 223 257.281 374.655>
LayerCount: 2
Fore
SplineSet
433 39 m 1xee
 425 32 405 16 385 6 c 0
 331 -22 268 -64 268 -108 c 0
 268 -126 277 -154 313 -154 c 0
 353 -154 383 -119 391 -115 c 0
 393 -115 396 -119 396 -127 c 0
 396 -132 393 -144 390 -148 c 0
 372 -172 326 -218 276 -218 c 0
 232 -218 204 -180 204 -140 c 0
 204 -87 264 -28 319 0 c 1
 298 10 280 32 275 52 c 1
 265 42 193 -8 157 -8 c 0
 86 -8 33 48 33 110 c 0xf6
 33 150 61 182 85 190 c 0
 132 206 225 241 265 257 c 1
 270 263 271 268 271 280 c 2
 271 306 l 2
 271 354 240 404 198 404 c 0
 162 404 149 374 141 332 c 0
 135 304 120 286 90 286 c 0
 66 286 47 306 47 330 c 0
 47 338 51 353 57 363 c 1
 79 384 164 442 244 442 c 0
 314 442 374 382 374 298 c 2
 374 101 l 2
 374 74 383 57 401 57 c 0
 417 57 428 66 432 68 c 1
 436 67 437 60 437 56 c 0
 437 50 436 44 433 39 c 1xee
207 54 m 0
 237 54 271 77 271 85 c 2
 271 223 l 1
 247 214 210 202 191 192 c 0
 159 176 142 150 142 120 c 0
 143 80 175 54 207 54 c 0
EndSplineSet
EndChar

StartChar: dcroat
Encoding: 273 273 363
Width: 533
Flags: W
HStem: -8 63<209.43 293.851> 24 30<459.609 511.881> 396 46<198.629 327.191> 526 36<199.405 505.209> 626 29<278.243 337.081> 674 20<437 451>
VStem: 36 113<127.946 293.991> 346 104<70.7694 375.829 436.009 617.957>
LayerCount: 2
Fore
SplineSet
204 562 m 1x3f
 233 562 487 562 501 562 c 1
 504 562 506 558 506 554 c 1
 506 547 504 533 501 526 c 1
 472 526 218 526 204 526 c 1
 201 526 199 532 199 536 c 1
 199 543 200 556 204 562 c 1x3f
EndSplineSet
Refer: 68 100 N 1 0 0 1 0 0 2
EndChar

StartChar: Eogonek
Encoding: 280 280 364
Width: 596
Flags: W
HStem: -221 64<398.571 464.297> -3 33<40.75 108.999> -1 41<236.479 442.426> 311 42<230.031 391.416> 620 44<283.25 445.413> 620 36<232.227 375.5> 628 33<40.75 108.999>
VStem: 116 114<54.5915 308.954 353.879 617.054> 329 64<-151.708 -83.6896> 424 32<378.533 431.896> 490 36<517.121 564.804>
LayerCount: 2
Fore
SplineSet
173 656 m 0x95e0
 241 656 413 664 497 664 c 1
 504 614 517 567 526 522 c 1
 523 519 512 517 505 517 c 0
 498 517 492 519 490 524 c 0
 468 592 435 620 378 620 c 2
 294 620 l 2
 276 620 238 619 234 609 c 0
 229 595 230 571 230 543 c 2
 230 362 l 2
 230 356 250 353 272 353 c 2
 325 353 l 2
 403 353 408 362 424 424 c 0
 425 429 431 432 438 432 c 0
 445 432 453 429 456 426 c 1
 456 236 l 1
 454 234 446 232 439 232 c 0
 432 232 426 235 424 240 c 0
 410 292 401 299 392 304 c 0
 380 310 339 311 301 311 c 0
 273 311 230 310 230 300 c 2
 230 128 l 2
 230 118 229 66 236 54 c 0
 246 42 270 40 304 40 c 2
 361 40 l 2xb9e0
 403 40 445 48 471 68 c 0
 497 88 513 122 529 166 c 0
 530 170 536 172 543 172 c 0
 553 172 568 169 571 166 c 1
 552 112 524 41 517 -3 c 1
 463 -9 393 -68 393 -112 c 0
 393 -130 402 -157 438 -157 c 0
 478 -157 508 -122 516 -118 c 1
 518 -118 521 -122 521 -130 c 0
 521 -135 518 -148 515 -152 c 0
 497 -176 451 -221 401 -221 c 0
 357 -221 329 -184 329 -144 c 0
 329 -91 389 -31 444 -3 c 1xd1e0
 365 -2 264 -1 167 -1 c 0xb1e0
 111 -1 69 -3 43 -3 c 1
 39 3 39 24 43 30 c 1
 55 30 105 34 109 46 c 0
 115 64 116 94 116 130 c 2
 116 528 l 2
 116 564 115 594 109 612 c 0
 105 624 55 628 43 628 c 1
 39 634 39 655 43 661 c 1xd3e0
 86 659 133 656 173 656 c 0x95e0
EndSplineSet
EndChar

StartChar: eogonek
Encoding: 281 281 365
Width: 446
Flags: W
HStem: -221 64<268.24 334.297> -8 74<210.36 311.683> 245 38<142.806 285.129> 254 33<181.759 303.785> 404 38<186.81 274.561>
VStem: 36 100<144.973 245 283 298.022> 198 64<-151.708 -72.2279> 304 104<287.219 371.989>
LayerCount: 2
Fore
SplineSet
356 31 m 0xef
 295 -18 262 -61 262 -112 c 0
 262 -130 272 -157 308 -157 c 0
 348 -157 378 -122 386 -118 c 1
 388 -118 390 -122 390 -130 c 0
 390 -135 388 -148 385 -152 c 0
 367 -176 321 -221 271 -221 c 0
 227 -221 198 -184 198 -144 c 0
 198 -96 236 -39 271 -6 c 1
 262 -8 252 -8 242 -8 c 0
 127 -8 36 76 36 200 c 0
 36 330 144 442 246 442 c 0
 372 442 408 348 408 299 c 0
 408 273 400 255 383 254 c 0xdf
 333 250 179 246 136 245 c 1
 134 111 222 66 288 66 c 0
 344 66 383 98 400 117 c 1
 404 116 410 108 410 101 c 0
 410 95 407 86 405 82 c 0
 397 69 379 49 356 31 c 0xef
140 283 m 1xef
 149 283 269 285 286 287 c 0xdf
 298 287 304 295 304 307 c 0
 304 342 285 404 232 404 c 0
 160 404 139 300 140 283 c 1xef
EndSplineSet
EndChar

StartChar: Hbar
Encoding: 294 294 366
Width: 736
Flags: W
HStem: -4 34<40.75 108.493 236.507 304.25 431.75 499.493 627.507 695.25> 321 41<230.193 507> 488 38<46.3369 677.828> 628 34<40.75 108.493 236.507 304.25 431.75 499.493 627.507 695.25>
VStem: 116 114<38.5078 315.952 365.001 619.492> 507 114<38.5078 317.999 365.001 619.492>
LayerCount: 2
Fore
SplineSet
676 488 m 1
 647 488 62 488 48 488 c 1
 44 488 43 517 49 526 c 1
 78 526 662 526 676 526 c 1
 680 526 680 497 676 488 c 1
EndSplineSet
Refer: 40 72 N 1 0 0 1 0 0 2
EndChar

StartChar: hbar
Encoding: 295 295 367
Width: 553
Flags: W
HStem: -4 33<17.75 82.7813 200.217 262.25 300.75 360.785 477.219 543.25> 372 70<269.186 394.475> 526 36<27.4046 333.209> 626 29<21.6549 81.048> 674 20<180 194>
VStem: 90 104<36.3778 342.871 364.001 618.938> 367 104<36.0252 341.83>
LayerCount: 2
Fore
SplineSet
32 562 m 1
 61 562 315 562 329 562 c 1
 332 562 334 558 334 554 c 1
 334 547 332 533 329 526 c 1
 300 526 46 526 32 526 c 1
 29 526 27 532 27 536 c 1
 27 543 28 556 32 562 c 1
EndSplineSet
Refer: 72 104 N 1 0 0 1 -0 0 2
EndChar

StartChar: Iogonek
Encoding: 302 302 368
Width: 345
Flags: W
HStem: -221 64<155.571 221.297> -4 33<40.75 108.779 236.221 304.25> 629 33<40.75 108.779 236.221 304.25>
VStem: 86 64<-151.708 -73.9957> 116 114<36.7397 621.26>
LayerCount: 2
Fore
SplineSet
173 656 m 0xe8
 213 656 262 659 302 662 c 1
 306 656 306 635 302 629 c 1
 290 629 240 624 236 612 c 0
 230 594 230 564 230 528 c 2
 230 130 l 2xe8
 230 94 230 64 236 46 c 0
 240 34 290 29 302 29 c 1
 306 23 306 2 302 -4 c 1
 274 -2 241 1 210 2 c 1
 171 -36 150 -71 150 -112 c 0
 150 -130 159 -157 195 -157 c 0
 235 -157 265 -122 273 -118 c 0
 275 -118 278 -122 278 -130 c 0
 278 -135 275 -148 272 -152 c 0
 254 -176 208 -221 158 -221 c 0
 114 -221 86 -184 86 -144 c 0xf0
 86 -99 129 -33 163 2 c 1
 124 2 80 -1 43 -4 c 1
 39 2 39 23 43 29 c 1
 55 29 105 34 109 46 c 0
 115 64 116 94 116 130 c 2
 116 528 l 2
 116 564 115 594 109 612 c 0
 105 624 55 629 43 629 c 1
 39 635 39 656 43 662 c 1
 83 659 133 656 173 656 c 0xe8
EndSplineSet
EndChar

StartChar: iogonek
Encoding: 303 303 369
Width: 294
Flags: W
HStem: -221 64<135.881 201.607> -4 33<30.0596 95.0909 212.527 274.56> 365 28<29.6177 90.5498> 421 20G<180.81 203.31> 544 122<99.0801 192.11>
VStem: 66.3096 64.0004<-151.708 -74.7875> 84.3096 123<558.34 650.8> 102.31 104<36.3778 356.638>
LayerCount: 2
Fore
SplineSet
84.3096 604 m 0xfa
 84.3096 638 111.31 666 145.31 666 c 0
 179.31 666 207.31 638 207.31 604 c 0
 207.31 570 179.31 544 145.31 544 c 0
 111.31 544 84.3096 570 84.3096 604 c 0xfa
206.31 317 m 2xf9
 206.31 130 l 2xf9
 206.31 96 206.31 64 212.31 46 c 0
 216.31 34 260.31 29 272.31 29 c 1
 276.31 23 276.31 2 272.31 -4 c 1
 244.31 -2 217.31 1 190.31 2 c 1
 151.31 -35 130.31 -71 130.31 -112 c 0
 130.31 -130 139.31 -157 175.31 -157 c 0
 215.31 -157 245.31 -122 253.31 -118 c 0
 255.31 -118 258.31 -122 258.31 -130 c 0
 258.31 -135 255.31 -148 252.31 -152 c 0
 234.31 -176 188.31 -221 138.31 -221 c 0
 94.3096 -221 66.3096 -184 66.3096 -144 c 0xfc
 66.3096 -99 109.31 -33 143.31 2 c 1
 106.31 2 69.3096 -1 32.3096 -4 c 1
 28.3096 2 28.3096 23 32.3096 29 c 1
 44.3096 29 91.3096 34 95.3096 46 c 0
 102.31 64 102.31 94 102.31 130 c 2
 102.31 279 l 2
 102.31 291 102.31 332 95.3096 346 c 0
 87.3096 362 38.3096 365 31.3096 365 c 1
 29.3096 367 27.3096 391 31.3096 393 c 1
 95.3096 399 161.31 421 200.31 441 c 1
 206.31 440 214.31 428 214.31 424 c 1
 212.31 416 207.31 377 206.31 365 c 0
 206.31 354 206.31 320 206.31 317 c 2xf9
EndSplineSet
EndChar

StartChar: kgreenlandic
Encoding: 312 312 372
Width: 567
Flags: HW
HStem: -4 33<30.9219 95.5313 212.969 277.578 497.46 563.168> 4 27<500.904 564.954> 365 28<29.3428 88.308> 400 32<316.265 373.014 464.531 534.653>
VStem: 101.75 104<36.3778 130 279 356.638>
LayerCount: 2
Fore
SplineSet
102.75 130 m 2x78
 103 94 102.75 64 95.75 46 c 0
 91.75 34 44.75 29 32.75 29 c 1
 28.75 23 28.75 2 32.75 -4 c 1
 72.75 -1 113.75 2 153.75 2 c 0
 193.75 2 235.75 -1 275.75 -4 c 1
 279.75 2 279.75 23 275.75 29 c 1xb8
 263.75 29 216.75 34 212.75 46 c 0
 206.75 64 206.75 94 206.75 130 c 2
 206.75 202 l 1
 206.75 202 215.75 198 219.75 192 c 0
 272.75 130 350.75 46 350.75 46 c 2
 372.75 20 422.75 -5 480.75 -5 c 0
 512.75 -5 551.75 0 563.75 4 c 1
 565.75 8 566.75 24 562.75 31 c 1
 533.75 31 497.75 35 457.75 76 c 0
 417.75 118 369.75 170 296.75 252 c 1
 356.75 304 427.75 362 443.75 374 c 0
 467.75 390 509.75 398 531.75 400 c 1
 535.75 404 537.75 424 532.75 432 c 1
 498.75 430 468.75 428 433.75 428 c 0
 396.75 428 333.75 430 319.75 432 c 1
 314.75 430 313.75 408 317.75 400 c 1
 331.75 399 373.75 395 373.75 381 c 0
 373.75 369 344.75 344 283.75 292 c 0
 249.75 262 222.75 242 205.75 236 c 1
 205.75 317 l 1
 205.75 320 205.75 354 205.75 365 c 1
 205.75 377 211.75 419 213.75 427 c 1
 213.75 431 205.75 443 199.75 444 c 1
 160.75 424 95.75 402 31.75 396 c 1
 27.75 394 28.75 370 30.75 368 c 1
 37.75 368 86.75 365 94.75 349 c 0
 100.75 335 101.75 293 101.75 282 c 2
 102.75 130 l 2x78
EndSplineSet
EndChar

StartChar: Lslash
Encoding: 321 321 373
Width: 575
Flags: W
HStem: -3 33<44.4188 112.668> -1 41<240.148 462.86> 629 33<44.4188 112.448 239.89 307.919>
VStem: 119.669 114<54.5929 621.26>
LayerCount: 2
Fore
SplineSet
51.6689 177 m 1x30
 45.6689 183 30.6689 203 34.6689 207 c 1
 395.669 461 l 1
 401.669 455 417.669 436 413.669 432 c 1
 51.6689 177 l 1x30
EndSplineSet
Refer: 44 76 N 1 0 0 1 3.66876 0 2
EndChar

StartChar: lslash
Encoding: 322 322 374
Width: 280
Flags: W
HStem: -4 33<17.75 82.7813 200.219 265.25> 626 29<21.6549 81.048> 674 20<180 194>
VStem: 18 259 90 104<36.3778 618.938>
LayerCount: 2
Fore
SplineSet
34 235 m 1xf0
 28 241 14 261 18 265 c 1
 259 433 l 1
 265 427 281 408 277 404 c 1
 34 235 l 1xf0
EndSplineSet
Refer: 76 108 N 1 0 0 1 0 0 2
EndChar

StartChar: Eng
Encoding: 330 330 375
Width: 768
Flags: W
HStem: -222 54<377 492.17> -4 33<33.9492 107.888 200.592 272.873> 630 33<37.1719 107.906 506.381 582.213 667.367 745.618>
VStem: 126 55<44.3074 543.172> 598 54<207 617.106>
LayerCount: 2
Fore
SplineSet
652 130 m 2
 652 -87 551 -222 387 -222 c 0
 367 -222 337 -212 327 -204 c 1
 321 -196 315 -186 315 -172 c 0
 315 -140 338 -110 370 -110 c 0
 390 -110 407 -126 422 -141 c 0
 436 -155 452 -168 466 -168 c 0
 509 -168 561 -88 572 56 c 1
 181 544 l 1
 181 136 l 2
 181 100 183 68 191 53 c 0
 197 39 258 30 270 30 c 1
 276 22 274 2 272 -4 c 1
 232 -2 196 3 152 3 c 0
 106 3 82 -2 36 -4 c 1
 32 3 32 23 36 29 c 1
 48 29 107 37 115 52 c 0
 123 67 126 99 126 137 c 0
 126 203 126 465 126 531 c 0
 126 564 123 593 112 610 c 0
 104 622 52 630 40 630 c 1
 35 636 35 658 39 663 c 1
 77 661 108 658 148 658 c 0
 180 658 217 660 240 662 c 1
 284 583 480 361 597 207 c 1
 598 211 598 249 598 256 c 2
 598 510 l 2
 598 547 595 593 587 609 c 0
 580 623 523 630 509 630 c 1
 505 634 504 655 508 663 c 1
 551 661 581 656 626 656 c 0
 671 656 701 661 744 663 c 1
 746 657 749 640 743 630 c 1
 733 630 670 624 662 608 c 0
 655 594 652 550 652 512 c 2
 652 130 l 2
EndSplineSet
EndChar

StartChar: eng
Encoding: 331 331 376
Width: 549
Flags: HW
HStem: -4 33<30.0596 95.0909 212.527 274.56> 365 28<29.6177 90.5498> 372 70<282.655 406.785>
VStem: 102.31 104<36.3778 342.871> 379.31 104<-40.9089 341.83>
LayerCount: 2
Fore
SplineSet
379.31 57 m 2xb8
 379.31 220 l 2
 379.31 318 363.31 372 297.31 372 c 0xb8
 259.31 372 206.31 331 206.31 317 c 2
 206.31 130 l 2
 206.31 96 206.31 64 212.31 46 c 0
 216.31 34 260.31 29 272.31 29 c 1
 276.31 23 276.31 2 272.31 -4 c 1
 232.31 -1 193.31 2 153.31 2 c 0
 112.31 2 72.3096 -1 32.3096 -4 c 1
 28.3096 2 28.3096 23 32.3096 29 c 1
 44.3096 29 91.3096 34 95.3096 46 c 0
 102.31 64 102 94 102.31 130 c 2
 102.309570312 282 l 2
 102.309570312 294 102.309570312 335 95.3095703125 349 c 0
 87.3095703125 365 38.3095703125 368 31.3095703125 368 c 1
 29.3095703125 370 27.3095703125 394 31.3095703125 396 c 1xd8
 95.3095703125 402 161.309570312 424 200.309570312 444 c 1
 206.309570312 444 214.309570312 432 214.309570312 427 c 1
 212.309570312 419 206.31 374 206.31 370 c 0
 206.31 368 206.31 364 208.31 364 c 1
 210.31 364 211.31 366 213.31 368 c 0
 237.31 395 303.31 442 350.31 442 c 0
 461.31 442 483.31 370 483.31 218 c 2
 483.31 94 l 1
 483.31 -44 428.31 -128 374.31 -172 c 0
 342.31 -198 297.31 -217 282.31 -217 c 1
 278.31 -214 275.31 -206 275.31 -202 c 1
 305.31 -180 379.31 -130 379.31 57 c 2xb8
EndSplineSet
EndChar

StartChar: OE
Encoding: 338 338 377
Width: 1016
Flags: W
HStem: -1 40<299.345 503.619 657.479 874.45> 311 42<650 812.416> 620 36<653.173 795.5> 626 39<278.713 467.628 708.851 853.686>
VStem: 45 125<212.44 445.262> 536 114<69.2203 308.954 353.969 570.213> 845 32<378.533 431.825> 911 36<517.204 564.804>
LayerCount: 2
Fore
SplineSet
593 656 m 0xef
 661 656 833 664 917 664 c 1
 924 614 938 567 947 522 c 1
 944 519 932 517 925 517 c 0
 918 517 913 519 911 524 c 0
 889 592 856 620 799 620 c 2
 714 620 l 0xef
 696 620 659 619 655 609 c 0
 650 595 650 571 650 543 c 2
 650 362 l 2
 650 356 671 353 693 353 c 2
 745 353 l 2
 823 353 829 362 845 424 c 0
 846 429 851 432 858 432 c 0
 865 432 874 429 877 426 c 1
 877 236 l 1
 875 234 866 232 859 232 c 0
 852 232 846 235 844 240 c 0
 830 292 822 299 813 304 c 0
 801 310 759 311 721 311 c 0
 693 311 650 310 650 300 c 2
 650 128 l 2
 650 118 650 66 657 54 c 0
 667 42 691 39 725 39 c 1
 781 39 l 2
 819 39 865 49 891 68 c 0
 911 84 933 117 949 166 c 0
 950 170 956 172 963 172 c 0
 973 172 988 169 991 166 c 1
 972 112 944 41 937 -3 c 1
 869 -3 725 -1 591 -1 c 0
 534 -1 484 -2 463 -3 c 1
 445 -3 471 -5 371 -5 c 0
 195 -5 45 141 45 328 c 0
 45 515 201 665 373 665 c 0xdf
 435 665 539 656 593 656 c 0xef
354 626 m 0xdf
 222 626 170 484 170 356 c 1
 170 202 241 32 393 32 c 1
 437 32 492 39 513 68 c 0
 532 94 536 122 536 170 c 2
 536 484 l 2
 536 523 528 560 502 584 c 0
 474 611 428 626 354 626 c 0xdf
EndSplineSet
EndChar

StartChar: oe
Encoding: 339 339 378
Width: 781
Flags: W
HStem: -8 74<544.665 662.1> -7 38<216.903 322.134> 245 38<478.806 621.128> 254 33<516.541 639.785> 404 38<195.347 301.738 520.65 610.561>
VStem: 36 114<115.547 316.005> 369 104<144.353 244.551> 640 104<287.219 371.989>
LayerCount: 2
Fore
SplineSet
568 404 m 1x1f
 496 404 475 300 476 283 c 1x2f
 485 283 605 285 622 287 c 0
 634 287 640 295 640 307 c 1
 640 342 621 404 568 404 c 1x1f
248 406 m 1
 169 406 150 315 150 235 c 1
 150 143 188 31 270 31 c 1x4f
 349 31 369 122 369 200 c 1
 369 293 329 406 248 406 c 1
624 66 m 0xaf
 680 66 718 98 735 117 c 1
 739 116 745 108 745 101 c 1
 745 95 742 86 740 82 c 0
 722 54 663 -8 577 -8 c 0xaf
 513 -8 457 19 420 64 c 1
 381 21 324 -7 260 -7 c 0
 124 -7 36 89 36 215 c 0
 36 343 132 443 258 443 c 0
 334 443 395 413 434 364 c 1
 474 412 530 442 582 442 c 0
 708 442 744 348 744 299 c 0
 744 273 735 255 718 254 c 0x5f
 670 250 530 247 473 245 c 1
 473 101 566 66 624 66 c 0xaf
EndSplineSet
EndChar

StartChar: Tbar
Encoding: 358 358 379
Width: 629
Flags: W
HStem: -4 33<182.75 251.778 379.221 447.25> 310 38<145.337 481.828> 618 40<98.0983 259 373 530.902>
VStem: 10 36<490.828 551.207> 259 114<36.7397 618> 583 36<490.646 551.207>
LayerCount: 2
Fore
SplineSet
480 310 m 1
 451 310 161 310 147 310 c 1
 143 310 142 339 148 348 c 1
 177 348 466 348 480 348 c 1
 484 348 484 319 480 310 c 1
EndSplineSet
Refer: 52 84 N 1 0 0 1 0 0 2
EndChar

StartChar: tbar
Encoding: 359 359 380
Width: 330
Flags: W
HStem: -7 59<172 265.351> 290 36<14.4046 304.209> 386 44<22.2377 84 188 311.628>
VStem: 84 104<64.7735 386 430 510.438>
LayerCount: 2
Fore
SplineSet
19 326 m 1
 48 326 286 326 300 326 c 1
 303 326 305 322 305 318 c 1
 305 311 303 297 300 290 c 1
 271 290 33 290 19 290 c 1
 16 290 14 296 14 300 c 1
 14 307 15 320 19 326 c 1
EndSplineSet
Refer: 84 116 N 1 0 0 1 1 0 2
EndChar

StartChar: Uogonek
Encoding: 370 370 381
Width: 728
Flags: W
HStem: -221 64<427.571 493.297> -6 65<303.357 456.62> 629 33<24.75 93.7784 220.222 289.25 485.538 556.428 644.294 720.199>
VStem: 100 114<165.871 621.622> 358 64<-151.708 -74.4082> 573 55<167.48 615.972>
LayerCount: 2
Fore
SplineSet
422 -112 m 0
 422 -130 431 -157 467 -157 c 0
 507 -157 537 -122 545 -118 c 0
 547 -118 550 -122 550 -130 c 0
 550 -135 547 -148 544 -152 c 0
 526 -176 480 -221 430 -221 c 0
 386 -221 358 -184 358 -144 c 0
 358 -99 400 -34 434 1 c 1
 410 -4 386 -6 360 -6 c 0
 282 -6 211 19 165 70 c 0
 123 117 100 184 100 276 c 2
 100 528 l 2
 100 564 101 594 94 612 c 0
 90 624 39 629 27 629 c 1
 23 635 23 656 27 662 c 1
 67 659 118 656 158 656 c 0
 198 656 247 659 287 662 c 1
 291 656 291 635 287 629 c 1
 275 629 224 624 220 612 c 0
 214 594 214 564 214 528 c 2
 214 313 l 2
 214 237 223 182 251 136 c 1
 286 72 346 59 395 59 c 0
 487 59 571 118 573 292 c 1
 573 512 l 2
 573 552 570 590 561 608 c 0
 554 622 502 630 488 630 c 1
 483 637 484 656 487 662 c 1
 531 659 560 656 605 656 c 0
 650 656 674 660 718 662 c 1
 722 656 723 639 718 630 c 1
 706 630 648 624 640 608 c 0
 632 590 628 553 628 513 c 2
 628 281 l 2
 628 161 583 83 521 38 c 0
 483 10 422 -61 422 -112 c 0
EndSplineSet
EndChar

StartChar: uogonek
Encoding: 371 371 382
Width: 540
Flags: W
HStem: -221 64<383.21 448.936> -8 21G<358.639 362.139> 24 30<469.566 518.284> 48 4<273.639 349.639> 376 28<11.5037 67.1723 282.03 335.307> 421 20G<161.139 182.639 432.139 453.639>
VStem: 81.6387 104<87.9368 366.211> 313.639 64<-151.708 -74.2024> 351.639 104<70.0939 366.211>
LayerCount: 2
Fore
SplineSet
351.639 288 m 2xde80
 351.639 300 351.639 341 343.639 356 c 0
 334.639 372 293.639 376 283.639 376 c 1
 280.639 378 280.639 402 284.639 404 c 1
 348.639 408 413.639 426 450.639 441 c 1
 456.639 440 464.639 426 464.639 422 c 1
 460.639 414 455.639 384 455.639 362 c 0
 455.639 351 455.639 310 455.639 307 c 2
 455.639 124 l 2xde80
 455.639 111 455.639 87 463.639 68 c 1
 470.639 54 509.639 54 515.639 54 c 1
 517.639 52 518.639 47 518.639 42 c 0
 518.639 38 515.639 27 511.639 24 c 1
 431.639 8 377.639 -61 377.639 -112 c 0
 377.639 -130 386.639 -157 422.639 -157 c 0
 462.639 -157 492.639 -122 500.639 -118 c 0
 502.639 -118 505.639 -122 505.639 -130 c 0
 505.639 -135 502.639 -148 499.639 -152 c 0
 481.639 -176 435.639 -221 385.639 -221 c 0
 341.639 -221 313.639 -184 313.639 -144 c 0xef
 313.639 -96 354.639 -40 390.639 -6 c 0
 394.639 -2 396.639 -1 402.639 3 c 1
 374.639 -4 363.639 -8 360.639 -8 c 0
 356.639 -8 351.639 1 351.639 12 c 2
 351.639 44 l 2
 351.639 48 351.639 49 349.639 48 c 0
 327.639 28 267.639 -6 207.639 -6 c 0
 105.639 -6 81.6387 94 81.6387 183 c 2
 81.6387 288 l 2
 81.6387 300 80.6387 341 72.6387 356 c 0
 63.6387 372 23.6387 376 13.6387 376 c 1
 10.6387 378 9.63867 402 13.6387 404 c 1
 77.6387 408 142.639 426 179.639 441 c 1
 185.639 440 193.639 426 193.639 422 c 1
 189.639 414 185.639 384 185.639 362 c 0
 185.639 351 185.639 311 185.639 308 c 2
 185.639 212 l 2
 185.639 106 207.639 52 273.639 52 c 0
 309.639 52 351.639 78 351.639 98 c 2
 351.639 288 l 2xde80
EndSplineSet
EndChar

StartChar: breve
Encoding: 728 728 405
Width: 474
Flags: W
HStem: 515 51<353.463 470.979>
VStem: 503 20<614.094 627.896>
LayerCount: 2
Fore
SplineSet
503 635 m 1
 510 635 523 623 523 617 c 3
 523 615 523 612 522 610 c 0
 508 553 466 515 413 515 c 0
 360 515 314 553 300 610 c 0
 299 612 299 615 299 617 c 3
 299 623 311 635 318 635 c 1
 325 611 361 566 413 566 c 0
 467 566 495 611 503 635 c 1
EndSplineSet
EndChar

StartChar: longs
Encoding: 383 383 406
Width: 302
Flags: W
HStem: -4 33<25.75 91.7806 208.221 276.25> 386 44<37.2377 98> 632 66<228.368 303.876>
VStem: 98 104<36.3778 386 430 545.536>
LayerCount: 2
Fore
SplineSet
202 347 m 0
 202 130 l 2
 202 94 202 64 208 46 c 0
 212 34 262 29 274 29 c 1
 278 23 278 2 274 -4 c 1
 234 -1 190 2 150 2 c 0
 110 2 68 -1 28 -4 c 1
 24 2 24 23 28 29 c 1
 40 29 88 34 92 46 c 0
 98 64 98 94 98 130 c 2
 98 130 98 342 98 386 c 1
 84 386 47 386 34 386 c 1
 30 387 29 393 29 397 c 1
 34 406 52 424 58 430 c 1
 73 430 88 430 98 430 c 1
 98 440 l 2
 98 581 220 698 288 698 c 0
 319 698 330 693 344 686 c 1
 354 680 368 667 368 650 c 1
 368 616 346 595 323 595 c 1
 303 595 290 610 275 620 c 0
 264 628 255 632 241 632 c 0
 217 632 198 598 198 544 c 1
 198 521 202 363 202 347 c 0
EndSplineSet
EndChar

StartChar: uni02BE
Encoding: 702 702 412
Width: 189
Flags: W
HStem: 443 29<29.4617 66.584> 672 28<30.2093 70.6187>
VStem: 107 52<506.551 643.903>
LayerCount: 2
Fore
SplineSet
31 700 m 1
 107 700 159 636 159 574 c 0
 159 502 107 443 30 443 c 1
 29 453 29 462 30 472 c 1
 76 472 107 531 107 574 c 0
 107 626 77 672 31 672 c 1
 28 682 30 690 31 700 c 1
EndSplineSet
EndChar

StartChar: uni02BF
Encoding: 703 703 413
Width: 189
Flags: W
HStem: 443 29<122.416 159.538> 672 28<118.381 158.791>
VStem: 30 52<506.551 643.903>
LayerCount: 2
Fore
SplineSet
158 700 m 1
 82 700 30 636 30 574 c 0
 30 502 82 443 159 443 c 1
 160 453 160 462 159 472 c 1
 113 472 82 531 82 574 c 0
 82 626 112 672 158 672 c 1
 161 682 159 690 158 700 c 1
EndSplineSet
EndChar

StartChar: quotereversed
Encoding: 8219 8219 414
Width: 189
Flags: W
HStem: 479 228<75 141>
VStem: 33 64<556.02 644>
LayerCount: 2
Fore
SplineSet
33 630 m 0
 33 536 132 479 141 479 c 0
 149 479 158 486 162 497 c 1
 102 533 97 571 97 580 c 0
 97 600 109 614 119 626 c 0
 129 638 138 647 138 660 c 0
 138 684 107 707 75 707 c 0
 68 707 55 704 47 700 c 1
 38 687 33 658 33 630 c 0
EndSplineSet
EndChar

StartChar: uni201F
Encoding: 8223 8223 415
Width: 327
Flags: W
HStem: 478 228<62 129 208 274>
VStem: 19 65<555.35 643> 165 64<554.712 643>
LayerCount: 2
Fore
SplineSet
165 629 m 0
 165 535 265 478 274 478 c 0
 282 478 291 485 295 496 c 1
 235 532 229 569 229 578 c 0
 229 597 238 611 248 622 c 0
 259 634 271 646 271 660 c 0
 271 684 240 706 208 706 c 0
 201 706 188 703 180 699 c 1
 171 686 165 657 165 629 c 0
19 629 m 0
 19 535 120 478 129 478 c 0
 137 478 145 485 149 496 c 1
 89 532 84 569 84 578 c 0
 84 598 95 612 105 624 c 0
 115 636 126 646 126 660 c 0
 126 684 94 706 62 706 c 0
 55 706 42 703 34 699 c 1
 25 686 19 657 19 629 c 0
EndSplineSet
EndChar

StartChar: fraction
Encoding: 8260 8260 427
Width: 516
Flags: W
HStem: -2 21G<43.5 58.5>
LayerCount: 2
Fore
SplineSet
493 721 m 1
 74 14 l 2
 70 7 63 -2 54 -2 c 0
 33 -2 23 10 23 10 c 1
 442 717 l 2
 445 723 452 731 458 731 c 0
 474 731 489 724 493 721 c 1
EndSplineSet
EndChar
